<svg width="276" height="100" viewBox="0 0 276 100" fill="none" xmlns="http://www.w3.org/2000/svg">
<rect width="276" height="100" fill="white"/>
<g clip-path="url(#clip0_318_13)">
<path d="M64.0568 61.1433C64.0568 59.8751 63.8785 58.9425 63.5219 58.3457C63.1652 57.7239 62.452 57.4131 61.3821 57.4131H61V56.2941H83.9262V80.9128H78.9588V57.9727H69.0242V80.9128H64.0568V61.1433Z" fill="#2A322C"/>
<path d="M94.654 81.2858C92.5906 81.2858 90.9858 80.8382 89.8395 79.943C88.7187 79.0229 88.1583 77.792 88.1583 76.2501C88.1583 75.0068 88.4513 73.9748 89.0371 73.1542C89.6485 72.3336 90.7056 71.7119 92.2086 71.2892C93.7115 70.8664 95.8004 70.6551 98.475 70.6551H99.0482C99.0482 68.4916 98.7425 66.9622 98.1312 66.067C97.5197 65.1469 96.6155 64.6869 95.4182 64.6869C94.4247 64.6869 93.6096 64.9231 92.9728 65.3955C92.3359 65.8681 91.8774 66.7508 91.5972 68.044H89.4956C89.4956 67.1985 89.5466 66.4773 89.6485 65.8805C89.7758 65.2836 90.0433 64.7614 90.4509 64.3139C91.2405 63.4435 93.1511 63.0083 96.1824 63.0083C98.7298 63.0083 100.666 63.6673 101.99 64.9853C103.341 66.2784 104.016 68.2305 104.016 70.8416V80.9128H100.768L99.4303 79.2342H99.2392C99.01 79.5824 98.6534 79.9305 98.1694 80.2787C97.3033 80.9501 96.1315 81.2858 94.654 81.2858ZM95.8004 79.4207C96.3353 79.4207 96.7938 79.3213 97.1759 79.1224C97.558 78.8986 97.9274 78.6001 98.2839 78.2271C98.6151 77.879 98.8699 77.4687 99.0482 76.9963V72.3336H98.475C96.6665 72.3336 95.3545 72.6569 94.5394 73.3034C93.7242 73.9251 93.3167 74.9073 93.3167 76.2501C93.3167 77.2697 93.5331 78.0531 93.9663 78.6001C94.3993 79.1473 95.0107 79.4207 95.8004 79.4207Z" fill="#2A322C"/>
<path d="M109.789 68.2305C109.789 66.9622 109.611 66.0296 109.254 65.4329C108.897 64.8112 108.184 64.5004 107.114 64.5004H106.732V63.3813H111.317C112.234 63.3813 112.935 63.5305 113.419 63.8289C113.903 64.1273 114.247 64.6247 114.45 65.321C114.654 65.9924 114.756 66.9622 114.756 68.2305V71.2146H120.87V63.3813H125.837V76.0636C125.837 77.3319 126.015 78.2768 126.372 78.8986C126.729 79.4953 127.442 79.7937 128.512 79.7937H128.894V80.9128H124.309C123.392 80.9128 122.691 80.776 122.207 80.5025C121.723 80.2041 121.379 79.7192 121.176 79.0477C120.972 78.3514 120.87 77.3568 120.87 76.0636V72.893H114.756V80.9128H109.789V68.2305Z" fill="#2A322C"/>
<path d="M129.969 80.5398C129.969 80.1668 130.096 79.8559 130.351 79.6072C130.605 79.3586 130.924 79.2342 131.306 79.2342H132.682C133.497 77.4936 134.083 75.6409 134.439 73.6764C134.796 71.687 134.974 69.7474 134.974 67.8575C134.974 66.7633 134.783 65.9302 134.401 65.3583C134.019 64.7863 133.255 64.5004 132.109 64.5004V63.3813H149.112V79.2342H150.258C150.64 79.2342 150.959 79.3586 151.214 79.6072C151.468 79.8559 151.596 80.1668 151.596 80.5398V86.881H149.685C149.558 85.2895 149.316 84.0585 148.959 83.1882C148.603 82.3426 148.131 81.7459 147.545 81.3977C146.985 81.0744 146.272 80.9128 145.406 80.9128H136.159C135.293 80.9128 134.567 81.0744 133.981 81.3977C133.42 81.7459 132.962 82.3426 132.605 83.1882C132.249 84.0585 132.007 85.2895 131.879 86.881H129.969V80.5398ZM144.145 79.2342V65.0599H138.757C138.757 68.2677 138.592 70.9782 138.26 73.1915C137.955 75.3798 137.42 77.394 136.656 79.2342H144.145Z" fill="#2A322C"/>
<path d="M155.723 68.2305C155.723 66.9622 155.544 66.0296 155.188 65.4329C154.857 64.8112 154.156 64.5004 153.086 64.5004H152.704V63.3813H156.487C157.379 63.3813 158.066 63.5056 158.55 63.7543C159.034 63.9782 159.416 64.3761 159.697 64.948C161.2 63.6549 162.932 63.0083 164.893 63.0083C167.466 63.0083 169.44 63.8663 170.816 65.5821C172.217 67.2731 172.917 69.4614 172.917 72.1471C172.917 74.8328 172.204 77.0335 170.778 78.7494C169.377 80.4403 167.351 81.2858 164.702 81.2858C163.658 81.2858 162.677 81.0993 161.76 80.7263C161.352 80.5771 160.996 80.3906 160.69 80.1668V88H155.723V68.2305ZM163.938 79.6072C166.485 79.6072 167.759 77.1206 167.759 72.1471C167.759 69.8593 167.466 68.044 166.88 66.7011C166.294 65.3583 165.377 64.6869 164.129 64.6869C162.703 64.6869 161.467 65.1967 160.423 66.2163L160.537 66.7384C160.639 67.0369 160.69 67.4596 160.69 68.0066V78.4882C160.97 78.712 161.276 78.8986 161.607 79.0477C162.32 79.4207 163.097 79.6072 163.938 79.6072Z" fill="#2A322C"/>
<path d="M185.312 81.2858C183.554 81.2858 182.013 80.8879 180.689 80.0922C179.364 79.2964 178.333 78.2147 177.594 76.847C176.88 75.4544 176.524 73.8878 176.524 72.1471C176.524 70.2075 176.88 68.5538 177.594 67.186C178.333 65.8183 179.338 64.7863 180.612 64.09C181.886 63.3688 183.325 63.0083 184.93 63.0083C186.51 63.0083 187.936 63.3191 189.209 63.9408C190.483 64.5626 191.49 65.4453 192.229 66.5893C192.966 67.7082 193.336 69.0014 193.336 70.4685C193.336 70.941 193.311 71.4757 193.26 72.0724L193.183 72.8184H181.682C181.682 75.1809 182.051 76.9092 182.79 78.0034C183.529 79.0726 184.561 79.6072 185.885 79.6072C187.108 79.6072 188.127 79.3461 188.942 78.824C189.783 78.2768 190.585 77.5059 191.349 76.5113L192.534 77.3693C191.795 78.4882 190.865 79.4207 189.744 80.1668C188.65 80.9128 187.172 81.2858 185.312 81.2858ZM188.178 71.14C188.178 68.8024 187.898 67.1487 187.337 66.1789C186.777 65.1842 185.975 64.6869 184.93 64.6869C183.962 64.6869 183.172 65.1967 182.561 66.2163C181.975 67.2109 181.682 68.8521 181.682 71.14H188.178Z" fill="#2A322C"/>
<path d="M198.142 68.2305C198.142 66.9622 197.964 66.0296 197.607 65.4329C197.252 64.8112 196.538 64.5004 195.468 64.5004H195.277V63.3813H205.517C207.887 63.3813 209.759 63.7667 211.134 64.5376C212.536 65.3085 213.236 66.4151 213.236 67.8575C213.236 68.9516 212.816 69.8343 211.975 70.5058C211.134 71.1524 209.937 71.5751 208.383 71.7741C210.09 71.9978 211.452 72.4828 212.471 73.2288C213.49 73.95 214 74.8949 214 76.0636C214 79.2964 211.172 80.9128 205.517 80.9128H198.142V68.2305ZM204.447 70.8416C205.466 70.8416 206.319 70.5804 207.007 70.0582C207.721 69.5112 208.077 68.7775 208.077 67.8575C208.077 66.8876 207.746 66.1541 207.084 65.6566C206.447 65.1345 205.696 64.8734 204.829 64.8734C204.218 64.8734 203.645 64.9604 203.11 65.1345V70.8416H204.447ZM204.829 79.4207C206.027 79.4207 206.995 79.1348 207.734 78.5629C208.473 77.966 208.841 77.1329 208.841 76.0636C208.841 74.8949 208.447 74.0122 207.657 73.4153C206.893 72.8184 205.823 72.5201 204.447 72.5201H203.11V79.1596C203.645 79.3338 204.218 79.4207 204.829 79.4207Z" fill="#2A322C"/>
<path d="M114.278 38.2429C111.952 38.5774 106.922 34.84 104.735 32.2377L103.542 32.538C105.829 34.84 108.413 37.8954 110.401 38.8434C116.068 41.5458 120.735 41.6767 127.699 40.3447C138.687 38.2429 154.54 26.833 166.469 15.1229C166.469 14.6225 165.574 13.6216 164.679 13.6216C163.736 13.6216 162.294 14.8227 161.995 14.5224C161.399 13.9219 163.188 13.3214 162.294 12.4206C161.872 11.9959 160.354 12.2212 159.61 12.7208C158.715 13.3214 158.417 14.5224 157.224 15.1229C156.031 15.7234 158.095 13.437 157.224 12.1203C156.627 11.2195 155.136 10.619 152.75 12.4206C150.827 13.873 148.277 19.6268 147.382 21.4284C146.487 23.23 144.698 23.23 145.294 22.0289C145.891 20.8278 148.277 15.1229 146.786 12.1203C146.236 11.013 145.12 10.9708 144.698 11.8201C143.803 13.6216 142.387 14.2221 140.821 15.1229C138.733 16.3239 139.33 19.9271 138.137 19.0263C136.944 18.1255 136.212 18.3074 135.453 19.3266C134.558 20.5276 133.962 24.1306 132.172 27.7338C130.383 31.3369 127.997 33.799 126.804 34.0393C125.909 34.2195 127.102 32.2377 127.699 31.0366C128.593 29.2351 126.146 28.2412 123.524 31.0366C118.454 36.4414 116.366 37.9426 114.278 38.2429Z" fill="#85A960"/>
<path d="M114.278 38.2429C111.952 38.5774 106.922 34.84 104.735 32.2377L103.542 32.538C105.829 34.84 108.413 37.8954 110.401 38.8434C116.068 41.5458 120.735 41.6767 127.699 40.3447C138.687 38.2429 154.54 26.833 166.469 15.1229C166.469 14.6225 165.574 13.6216 164.679 13.6216C163.736 13.6216 162.294 14.8227 161.995 14.5224C161.399 13.9219 163.188 13.3214 162.294 12.4206C161.872 11.9959 160.354 12.2212 159.61 12.7208C158.715 13.3214 158.417 14.5224 157.224 15.1229C156.031 15.7234 158.095 13.437 157.224 12.1203C156.627 11.2195 155.136 10.619 152.75 12.4206C150.827 13.873 148.277 19.6268 147.382 21.4284C146.487 23.23 144.698 23.23 145.294 22.0289C145.891 20.8278 148.277 15.1229 146.786 12.1203C146.236 11.013 145.12 10.9708 144.698 11.8201C143.803 13.6216 142.387 14.2221 140.821 15.1229C138.733 16.3239 139.33 19.9271 138.137 19.0263C136.944 18.1255 136.212 18.3074 135.453 19.3266C134.558 20.5276 133.962 24.1306 132.172 27.7338C130.383 31.3369 127.997 33.799 126.804 34.0393C125.909 34.2195 127.102 32.2377 127.699 31.0366C128.593 29.2351 126.146 28.2412 123.524 31.0366C118.454 36.4414 116.366 37.9426 114.278 38.2429Z" fill="#EED57B"/>
<path d="M120.685 45.8048C119.518 44.8184 116.982 43.3304 115.419 42.705C118.951 42.7427 123.68 44.6306 135.506 39.8758C146.702 35.3738 159.35 23.8718 166.337 16.1605C167.115 15.3026 166.318 17.9864 165.131 18.8868C164.275 19.5361 165.332 19.802 165.61 21.3268C165.888 22.8516 163.6 24.3489 162.42 24.6407C161.239 24.9325 160.517 25.7951 161.52 26.1529C162.4 26.4666 163.571 27.0878 163.555 28.6095C163.542 29.8267 163.218 32.5625 157.897 34.6363C155.676 35.502 154.06 35.5084 152.579 36.4057C151.501 37.0585 154.905 39.1697 156.072 40.0953C156.914 40.7627 159.565 43.7848 154.532 46.4703C151.549 48.0622 146.892 45.1714 146.597 45.1682C146.303 45.165 145.715 45.1588 146.29 46.3824C146.654 47.1563 147.442 48.8295 142.725 49.3879C138.009 49.9463 132.203 42.2754 129.538 43.7687C128.719 44.2274 130.935 45.3054 130.686 46.5202C130.5 47.4313 129.783 48.3367 127.131 48.6128C124.628 48.8733 122.143 47.0378 120.685 45.8048Z" fill="#688A42"/>
<path d="M120.685 45.8048C119.518 44.8184 116.982 43.3304 115.419 42.705C118.951 42.7427 123.68 44.6306 135.506 39.8758C146.702 35.3738 159.35 23.8718 166.337 16.1605C167.115 15.3026 166.318 17.9864 165.131 18.8868C164.275 19.5361 165.332 19.802 165.61 21.3268C165.888 22.8516 163.6 24.3489 162.42 24.6407C161.239 24.9325 160.517 25.7951 161.52 26.1529C162.4 26.4666 163.571 27.0878 163.555 28.6095C163.542 29.8267 163.218 32.5625 157.897 34.6363C155.676 35.502 154.06 35.5084 152.579 36.4057C151.501 37.0585 154.905 39.1697 156.072 40.0953C156.914 40.7627 159.565 43.7848 154.532 46.4703C151.549 48.0622 146.892 45.1714 146.597 45.1682C146.303 45.165 145.715 45.1588 146.29 46.3824C146.654 47.1563 147.442 48.8295 142.725 49.3879C138.009 49.9463 132.203 42.2754 129.538 43.7687C128.719 44.2274 130.935 45.3054 130.686 46.5202C130.5 47.4313 129.783 48.3367 127.131 48.6128C124.628 48.8733 122.143 47.0378 120.685 45.8048Z" fill="#DCBE54"/>
</g>
<defs>
<clipPath id="clip0_318_13">
<rect width="153" height="77" fill="white" transform="translate(61 11)"/>
</clipPath>
</defs>
</svg>
