<svg width="173" height="142" viewBox="0 0 173 142" fill="none" xmlns="http://www.w3.org/2000/svg">
<path fill-rule="evenodd" clip-rule="evenodd" d="M41.5428 22.3056C41.8512 22.5739 42.2389 22.7335 42.6464 22.7601H42.9336H42.946H130.054H130.066H130.354C130.761 22.7335 131.149 22.5739 131.457 22.3056C131.766 22.0373 131.978 21.6752 132.061 21.2747C132.144 20.8741 132.094 20.4573 131.919 20.0879C131.743 19.7185 131.451 19.417 131.088 19.2295L87.3846 0.154196C87.1529 0.0525024 86.9027 0 86.6498 0C86.5997 0 86.5498 0.00205806 86.5 0.00614847C86.4503 0.00205806 86.4003 0 86.3502 0C86.0973 0 85.8471 0.0525024 85.6154 0.154196L41.9116 19.2295C41.5486 19.417 41.2569 19.7185 41.0813 20.0879C40.9056 20.4573 40.8556 20.8741 40.939 21.2747C41.0223 21.6752 41.2344 22.0373 41.5428 22.3056ZM86.5 3.90698L51.764 19.0798H121.236L86.5 3.90698ZM53.3509 25.299H53.6762H119.324H119.649C124.338 25.299 128.156 28.7485 128.156 32.984C128.156 37.2195 124.338 40.669 119.649 40.669C119.595 40.669 119.541 40.6685 119.486 40.6676C119.432 40.6685 119.378 40.669 119.324 40.669C114.635 40.669 110.823 37.2195 110.823 32.984C110.823 32.4959 111.017 32.0279 111.362 31.6828C111.706 31.3377 112.173 31.1438 112.661 31.1438C113.148 31.1438 113.615 31.3377 113.96 31.6828C113.996 31.7189 114.03 31.7564 114.063 31.7951C114.103 31.8236 114.142 31.8538 114.181 31.8857C114.516 32.1654 114.743 32.554 114.823 32.984C114.823 35.147 116.902 36.9151 119.487 36.9864C122.077 36.9151 124.156 35.147 124.156 32.984C124.156 30.7758 121.989 28.9793 119.324 28.9793H53.6762C51.0109 28.9793 48.8437 30.7758 48.8437 32.984C48.8437 35.147 50.9232 36.9151 53.5134 36.9864C56.0977 36.9151 58.1772 35.147 58.1772 32.984C58.2565 32.554 58.4837 32.1654 58.8193 31.8857C58.8576 31.8538 58.8969 31.8236 58.9373 31.7951C58.97 31.7564 59.0044 31.7189 59.0405 31.6828C59.385 31.3377 59.8523 31.1438 60.3395 31.1438C60.8267 31.1438 61.294 31.3377 61.6385 31.6828C61.983 32.0279 62.1766 32.4959 62.1766 32.984C62.1766 37.2195 58.3654 40.669 53.6762 40.669C53.6219 40.669 53.5676 40.6685 53.5136 40.6676C53.4595 40.6685 53.4053 40.669 53.3509 40.669C48.6617 40.669 44.8443 37.2195 44.8443 32.984C44.8443 28.7485 48.6617 25.299 53.3509 25.299ZM93.2417 63.5618C92.7463 63.5618 92.2711 63.3647 91.9207 63.0137C91.5704 62.6628 91.3735 62.1868 91.3735 61.6905V38.5481C91.4529 38.1181 91.6801 37.7295 92.0157 37.4498C92.3513 37.1701 92.774 37.017 93.2106 37.017C93.3367 37.017 93.4616 37.0298 93.5837 37.0547C93.7057 37.0298 93.8306 37.017 93.9567 37.017C94.3933 37.017 94.8161 37.1701 95.1517 37.4498C95.4872 37.7295 95.7144 38.1181 95.7938 38.5481V61.6905C95.7938 62.1868 95.597 62.6628 95.2466 63.0137C94.8963 63.3647 94.4211 63.5618 93.9256 63.5618C93.8098 63.558 93.6953 63.5435 93.5837 63.5188C93.472 63.5435 93.3576 63.558 93.2417 63.5618ZM77.7534 63.0137C78.1038 63.3647 78.5789 63.5618 79.0744 63.5618C79.1903 63.558 79.3047 63.5435 79.4164 63.5188C79.528 63.5435 79.6425 63.558 79.7583 63.5618C80.2538 63.5618 80.729 63.3647 81.0793 63.0137C81.4297 62.6628 81.6265 62.1868 81.6265 61.6905V38.5481C81.5471 38.1181 81.3199 37.7295 80.9843 37.4498C80.6488 37.1701 80.226 37.017 79.7894 37.017C79.6633 37.017 79.5384 37.0298 79.4164 37.0547C79.2943 37.0298 79.1694 37.017 79.0433 37.017C78.6067 37.017 78.1839 37.1701 77.8484 37.4498C77.5128 37.7295 77.2856 38.1181 77.2062 38.5481V61.6905C77.2062 62.1868 77.403 62.6628 77.7534 63.0137ZM88.5215 35.3792V72.3197H119.732H120.138C120.567 72.3992 120.955 72.6268 121.234 72.9629C121.514 73.2991 121.666 73.7225 121.666 74.1598C121.666 74.5971 121.514 75.0206 121.234 75.3568C120.955 75.6929 120.567 75.9205 120.138 76H119.732H53.2683H52.8621C52.4328 75.9205 52.0449 75.6929 51.7657 75.3568C51.4864 75.0206 51.3335 74.5971 51.3335 74.1598C51.3335 73.7225 51.4864 73.2991 51.7657 72.9629C52.0449 72.6268 52.4328 72.3992 52.8621 72.3197H53.2683H84.4785V35.3792H73.0901H72.7088C72.4392 35.4291 72.162 35.419 71.8968 35.3496C71.6316 35.2802 71.3849 35.1532 71.1742 34.9776C70.9635 34.8019 70.7939 34.582 70.6776 34.3334C70.5612 34.0848 70.5009 33.8136 70.5009 33.539C70.5009 33.2645 70.5612 32.9933 70.6776 32.7447C70.7939 32.4961 70.9635 32.2761 71.1742 32.1005C71.3849 31.9249 71.6316 31.7979 71.8968 31.7285C72.162 31.6591 72.4392 31.649 72.7088 31.6989H73.0901H99.91H100.291C100.561 31.649 100.838 31.6591 101.103 31.7285C101.368 31.7979 101.615 31.9249 101.826 32.1005C102.037 32.2761 102.206 32.4961 102.322 32.7447C102.439 32.9933 102.499 33.2645 102.499 33.539C102.499 33.8136 102.439 34.0848 102.322 34.3334C102.206 34.582 102.037 34.8019 101.826 34.9776C101.615 35.1532 101.368 35.2802 101.103 35.3496C100.838 35.419 100.561 35.4291 100.291 35.3792H99.91H88.5215Z" fill="white"/>
<path d="M9.77123 86.0087C8.46968 85.9603 7.17164 86.173 5.95422 86.6344C4.7368 87.0957 3.62484 87.7963 2.68442 88.6944C0.9552 90.6331 0 93.137 0 95.731C0 98.325 0.9552 100.829 2.68442 102.768C3.62454 103.666 4.73645 104.367 5.95394 104.828C7.17144 105.29 8.46963 105.502 9.77123 105.453C11.0678 105.505 12.3613 105.294 13.5734 104.832C14.7855 104.37 15.8908 103.668 16.8221 102.768C18.552 100.827 19.5075 98.322 19.5075 95.7265C19.5075 93.131 18.552 90.6256 16.8221 88.6855C15.8909 87.7853 14.7855 87.0837 13.5732 86.6235C12.3609 86.1633 11.0673 85.9541 9.77123 86.0087ZM14.9898 95.7041C15.0197 96.7119 14.7645 97.7078 14.2533 98.5778C13.7923 99.3403 13.129 99.9612 12.3366 100.372C11.5441 100.783 10.6533 100.967 9.76225 100.905C8.86916 100.925 7.98468 100.728 7.18441 100.332C6.31444 99.933 5.58905 99.2761 5.10691 98.4512C4.62478 97.6263 4.4093 96.6733 4.4898 95.722C4.45784 95.0294 4.57118 94.3376 4.82258 93.6911C5.07398 93.0445 5.45792 92.4573 5.94986 91.967C6.44181 91.4767 7.03094 91.094 7.67965 90.8435C8.32835 90.5929 9.02236 90.4799 9.71734 90.5118C11.0415 90.4752 12.3287 90.9499 13.3101 91.8367C13.8608 92.3165 14.2973 92.9125 14.5878 93.5815C14.8784 94.2505 15.0157 94.9756 14.9898 95.7041Z" fill="white"/>
<path d="M32.8639 86.009C31.5625 85.9615 30.2647 86.1747 29.0474 86.636C27.8302 87.0974 26.7181 87.7974 25.7771 88.6947C24.0497 90.6342 23.0957 93.1377 23.0957 95.7312C23.0957 98.3247 24.0497 100.828 25.7771 102.768C26.7156 103.666 27.8259 104.367 29.0419 104.828C30.2579 105.29 31.5547 105.502 32.8549 105.453C34.1711 105.51 35.4851 105.3 36.7178 104.837C37.9505 104.374 39.0765 103.667 40.0278 102.758C40.9791 101.85 41.7361 100.759 42.2533 99.5514C42.7705 98.3437 43.0371 97.0442 43.0371 95.7312C43.0371 94.4181 42.7705 93.1187 42.2533 91.911C41.7361 90.7034 40.9791 89.6125 40.0278 88.7042C39.0765 87.7959 37.9505 87.0888 36.7178 86.6256C35.4851 86.1624 34.1711 85.9526 32.8549 86.009H32.8639ZM38.0825 95.7043C38.1151 96.7113 37.863 97.7071 37.3549 98.578C36.8924 99.3391 36.2289 99.9588 35.4368 100.369C34.6447 100.78 33.7546 100.965 32.8639 100.906C31.9783 100.916 31.1031 100.714 30.313 100.315C29.443 99.9153 28.7176 99.2584 28.2355 98.4335C27.7534 97.6086 27.5379 96.6556 27.6184 95.7043C27.6318 94.6931 27.9362 93.7069 28.4955 92.863C29.0547 92.0191 29.8453 91.353 30.7733 90.9438C31.7013 90.5346 32.7276 90.3996 33.7303 90.5547C34.733 90.7099 35.6699 91.1487 36.4298 91.819C36.9779 92.3033 37.4108 92.9033 37.6967 93.5755C37.9826 94.2477 38.1144 94.975 38.0825 95.7043Z" fill="white"/>
<path d="M55.9566 86.009C54.6564 85.9607 53.3598 86.1735 52.1438 86.6349C50.9279 87.0963 49.8175 87.7968 48.8788 88.6947C47.1495 90.6333 46.1943 93.1372 46.1943 95.7312C46.1943 98.3252 47.1495 100.829 48.8788 102.768C49.8172 103.666 50.9276 104.367 52.1436 104.828C53.3596 105.29 54.6564 105.502 55.9566 105.453C57.2728 105.51 58.5868 105.3 59.8195 104.837C61.0522 104.374 62.1781 103.667 63.1294 102.758C64.0807 101.85 64.8378 100.759 65.3549 99.5514C65.8721 98.3437 66.1387 97.0442 66.1387 95.7312C66.1387 94.4181 65.8721 93.1187 65.3549 91.911C64.8378 90.7034 64.0807 89.6125 63.1294 88.7042C62.1781 87.7959 61.0522 87.0888 59.8195 86.6256C58.5868 86.1624 57.2728 85.9526 55.9566 86.009ZM61.1841 95.7043C61.2141 96.7121 60.9588 97.708 60.4476 98.578C59.9859 99.3398 59.3224 99.9601 58.5302 100.371C57.7379 100.781 56.8475 100.966 55.9566 100.906C55.0711 100.915 54.1962 100.713 53.4057 100.315C52.5357 99.9153 51.8103 99.2584 51.3282 98.4335C50.8461 97.6086 50.6306 96.6556 50.7111 95.7043C50.7245 94.6931 51.0289 93.7069 51.5882 92.863C52.1474 92.0191 52.938 91.353 53.866 90.9438C54.7939 90.5346 55.8203 90.3996 56.823 90.5547C57.8257 90.7099 58.7626 91.1487 59.5224 91.819C60.0733 92.3016 60.5085 92.9012 60.7961 93.5736C61.0836 94.246 61.2162 94.9741 61.1841 95.7043Z" fill="white"/>
<path d="M94.5704 100.834V99.2318H94.6692V98.9274H94.5435V88.3099C94.5743 88.0037 94.5364 87.6945 94.4327 87.4046C94.3289 87.1148 94.1619 86.8516 93.9435 86.634C93.7252 86.4164 93.4611 86.2498 93.1703 86.1464C92.8795 86.043 92.5692 86.0053 92.262 86.036C91.9596 86.0106 91.6552 86.0476 91.3678 86.1446C91.0804 86.2417 90.8161 86.3967 90.5914 86.6C90.3914 86.8295 90.2398 87.0968 90.1457 87.386C90.0516 87.6751 90.0168 87.9802 90.0435 88.2831V100.816H80.5046C80.0195 100.816 79.8489 100.646 79.8489 100.145V88.3009C79.8847 87.9983 79.8569 87.6916 79.7672 87.4003C79.6775 87.1089 79.5279 86.8394 79.3279 86.609C79.0968 86.4067 78.8278 86.252 78.5365 86.1537C78.2451 86.0554 77.9372 86.0154 77.6303 86.036C77.3238 86.0067 77.0146 86.0455 76.7249 86.1495C76.4352 86.2536 76.1723 86.4203 75.955 86.6378C75.7377 86.8552 75.5714 87.1179 75.4682 87.4071C75.3649 87.6962 75.3273 88.0045 75.3579 88.3099V103.01C75.3265 103.315 75.3642 103.624 75.468 103.913C75.5719 104.202 75.7393 104.464 75.958 104.681C76.1768 104.897 76.4413 105.062 76.7322 105.163C77.0231 105.264 77.333 105.299 77.6393 105.266H91.9117V110.53C91.8967 110.789 91.9344 111.049 92.0223 111.293C92.1103 111.538 92.2468 111.762 92.4237 111.953C92.657 112.157 92.929 112.313 93.2236 112.412C93.5181 112.51 93.8294 112.549 94.1393 112.526C94.462 112.556 94.7874 112.521 95.0961 112.422C95.4048 112.324 95.6904 112.164 95.9357 111.953C96.1024 111.768 96.2304 111.551 96.3122 111.316C96.3939 111.081 96.4278 110.832 96.4117 110.583L96.4746 103.171C96.5104 102.851 96.4803 102.527 96.3861 102.219C96.2919 101.911 96.1355 101.626 95.9267 101.38C95.557 101.039 95.0744 100.844 94.5704 100.834Z" fill="white"/>
<path d="M107.029 90.3331H113.792L114.313 90.2794C114.555 90.2995 114.798 90.2683 115.028 90.1881C115.257 90.1079 115.466 89.9804 115.642 89.8139C115.84 89.5865 115.99 89.3222 116.084 89.0363C116.178 88.7504 116.214 88.4487 116.19 88.1487C116.215 87.8516 116.179 87.5526 116.084 87.2696C115.99 86.9866 115.84 86.7253 115.642 86.5015C115.46 86.339 115.247 86.2141 115.015 86.1342C114.784 86.0543 114.539 86.0209 114.295 86.036H107.02C105.787 86.0014 104.56 86.2139 103.411 86.661C102.263 87.1081 101.216 87.7806 100.333 88.6386C99.45 89.4966 98.7491 90.5227 98.2717 91.6559C97.7943 92.7891 97.5501 94.0063 97.5538 95.2354C97.5574 96.4644 97.8087 97.6802 98.2927 98.8106C98.7768 99.941 99.4837 100.963 100.372 101.816C101.26 102.669 102.31 103.335 103.462 103.775C104.613 104.216 105.841 104.421 107.073 104.379H114.304C115.005 104.379 116.19 104.075 116.19 102.195C116.19 100.315 115.005 100.055 114.295 100.055H107.011C106.205 100.09 105.404 99.9075 104.693 99.5272C103.885 99.1508 103.211 98.5359 102.765 97.7658C102.318 96.9956 102.12 96.1074 102.196 95.2211C102.171 94.5806 102.277 93.9416 102.507 93.343C102.737 92.7444 103.087 92.1986 103.535 91.7386C103.994 91.2847 104.54 90.9266 105.14 90.6853C105.74 90.444 106.382 90.3242 107.029 90.3331Z" fill="white"/>
<path d="M136.571 88.1306C136.595 87.8293 136.558 87.5262 136.46 87.2398C136.363 86.9535 136.208 86.69 136.005 86.4655C135.822 86.3024 135.607 86.1785 135.373 86.1015C135.14 86.0245 134.893 85.996 134.649 86.0179H121.768C121.471 85.984 121.17 86.016 120.886 86.1117C120.603 86.2075 120.344 86.3644 120.129 86.5715C119.913 86.7785 119.747 87.0305 119.64 87.3093C119.534 87.5881 119.491 87.8869 119.514 88.1843C119.495 88.4743 119.535 88.7652 119.632 89.0391C119.73 89.3131 119.882 89.5645 120.08 89.7779C120.312 89.9767 120.582 90.1268 120.874 90.2191C121.165 90.3114 121.473 90.344 121.777 90.315H124.472C124.894 90.315 125.182 90.4582 125.182 91.2102V102.248C125.163 102.807 125.366 103.351 125.747 103.761C126.22 104.127 126.802 104.326 127.4 104.326C127.999 104.326 128.58 104.127 129.053 103.761C129.234 103.555 129.371 103.313 129.455 103.051C129.538 102.789 129.566 102.513 129.538 102.24V91.2281C129.583 90.4224 129.978 90.2881 130.319 90.2613H134.729C134.965 90.2887 135.205 90.2653 135.431 90.1927C135.657 90.1201 135.865 90 136.041 89.8405C136.239 89.6052 136.388 89.3327 136.479 89.039C136.57 88.7453 136.601 88.4365 136.571 88.1306Z" fill="white"/>
<path d="M167.81 88.5961C166.938 87.7498 165.904 87.0865 164.77 86.6452C163.636 86.2038 162.425 85.9936 161.208 86.0268H154.023C153.775 86.0061 153.526 86.0368 153.291 86.1169C153.056 86.197 152.84 86.3249 152.657 86.4923C152.458 86.7154 152.306 86.9763 152.21 87.2593C152.115 87.5424 152.077 87.8417 152.1 88.1395C152.078 88.4365 152.115 88.735 152.209 89.0177C152.303 89.3005 152.452 89.5618 152.648 89.7867C152.822 89.9468 153.026 90.0711 153.248 90.1525C153.469 90.234 153.705 90.2709 153.942 90.2612L154.526 90.3149H161.235C161.886 90.3005 162.532 90.4194 163.135 90.6642C163.737 90.9091 164.283 91.2747 164.738 91.7384C165.121 92.1108 165.426 92.555 165.636 93.0454H160.741C160.448 93.0146 160.151 93.0495 159.873 93.1473C159.595 93.2452 159.342 93.4036 159.133 93.6111C158.924 93.8187 158.764 94.07 158.664 94.3469C158.565 94.6238 158.529 94.9193 158.558 95.2119C158.539 95.4957 158.579 95.7804 158.675 96.0483C158.77 96.3163 158.92 96.5618 159.115 96.7696C159.349 96.9663 159.619 97.115 159.91 97.2072C160.202 97.2994 160.508 97.3332 160.813 97.3067H165.699C165.309 98.2831 164.556 99.0719 163.597 99.509C162.867 99.8682 162.059 100.043 161.244 100.019H154.005C153.295 100.019 152.1 100.315 152.1 102.177C152.1 104.039 153.295 104.334 154.014 104.343H161.199C163.008 104.299 164.766 103.734 166.26 102.718C167.755 101.701 168.923 100.275 169.623 98.612C170.324 96.949 170.527 95.1197 170.208 93.3443C169.89 91.5689 169.063 89.9231 167.828 88.605L167.81 88.5961Z" fill="white"/>
<path d="M138.789 101.076H139.337C139.553 101.082 139.767 101.043 139.967 100.961C140.167 100.879 140.347 100.757 140.496 100.602L145.391 95.4808L145.472 95.4092V99.6526C145.442 99.8401 145.456 100.032 145.512 100.213C145.568 100.395 145.666 100.561 145.797 100.698C145.928 100.836 146.09 100.942 146.268 101.007C146.447 101.073 146.639 101.096 146.828 101.076C147.019 101.097 147.212 101.075 147.393 101.012C147.574 100.949 147.739 100.847 147.875 100.712C148.011 100.577 148.115 100.413 148.18 100.233C148.244 100.053 148.267 99.8607 148.247 99.6705V91.4075C148.265 91.257 148.249 91.1046 148.201 90.9609C148.153 90.8173 148.074 90.6858 147.969 90.5758C147.865 90.4657 147.738 90.3798 147.596 90.324C147.455 90.2682 147.303 90.2438 147.152 90.2526H146.667C146.227 90.2678 145.811 90.4543 145.508 90.7719L140.235 96.4476V91.676C140.262 91.4887 140.246 91.2977 140.188 91.1176C140.13 90.9374 140.031 90.7729 139.899 90.6365C139.768 90.5001 139.607 90.3955 139.428 90.3305C139.25 90.2655 139.059 90.2419 138.87 90.2616C138.682 90.2459 138.492 90.2707 138.314 90.3344C138.136 90.3981 137.974 90.4991 137.838 90.6307C137.703 90.7622 137.598 90.9213 137.529 91.097C137.461 91.2727 137.431 91.461 137.442 91.6492V99.7868C137.426 99.9649 137.45 100.144 137.512 100.312C137.575 100.48 137.675 100.631 137.804 100.755C137.934 100.879 138.09 100.972 138.26 101.027C138.431 101.083 138.611 101.1 138.789 101.076Z" fill="white"/>
<path d="M148.938 102.526H136.723C136.346 102.555 135.994 102.725 135.738 103.001C135.481 103.277 135.339 103.64 135.339 104.017C135.339 104.393 135.481 104.756 135.738 105.032C135.994 105.308 136.346 105.478 136.723 105.507H148.938C149.144 105.523 149.352 105.496 149.547 105.429C149.742 105.361 149.921 105.254 150.073 105.114C150.225 104.974 150.346 104.804 150.429 104.615C150.511 104.426 150.554 104.223 150.554 104.017C150.554 103.81 150.511 103.607 150.429 103.418C150.346 103.229 150.225 103.059 150.073 102.919C149.921 102.779 149.742 102.672 149.547 102.604C149.352 102.537 149.144 102.51 148.938 102.526Z" fill="white"/>
<path d="M15.5106 123.153C15.6635 123.153 15.7825 123.2 15.8674 123.294C15.9609 123.379 16.0077 123.498 16.0077 123.65V125.69C16.0077 125.843 15.9652 125.962 15.8802 126.047C15.8037 126.14 15.6933 126.187 15.5488 126.187C15.4043 126.187 15.2854 126.14 15.1919 126.047C15.1069 125.962 15.0645 125.843 15.0645 125.69V124.007H14.7458C14.4059 124.007 14.1595 123.931 14.0065 123.778C13.8621 123.625 13.7899 123.383 13.7899 123.051V123C13.5265 123.34 13.1951 123.608 12.7957 123.803C12.3963 123.99 11.9545 124.084 11.4701 124.084C10.8583 124.084 10.3102 123.948 9.82589 123.676C9.35004 123.396 8.97616 123.009 8.70425 122.516C8.44083 122.023 8.30913 121.462 8.30913 120.834V117.52C8.30913 117.375 8.35161 117.261 8.43659 117.176C8.53006 117.082 8.64902 117.035 8.79347 117.035C8.93793 117.035 9.05689 117.082 9.15036 117.176C9.24383 117.261 9.29056 117.375 9.29056 117.52V120.834C9.29056 121.275 9.38828 121.675 9.58372 122.032C9.77915 122.38 10.0468 122.656 10.3867 122.86C10.7351 123.056 11.1302 123.153 11.5721 123.153C12.2179 123.153 12.749 122.979 13.1653 122.631C13.5817 122.282 13.7899 121.836 13.7899 121.292V117.52C13.7899 117.375 13.8324 117.261 13.9173 117.176C14.0108 117.082 14.1298 117.035 14.2742 117.035C14.4187 117.035 14.5376 117.082 14.6311 117.176C14.7246 117.261 14.7713 117.375 14.7713 117.52V123.153H15.5106Z" fill="white"/>
<path d="M20.3932 116.972C21.022 116.972 21.5786 117.12 22.063 117.418C22.5473 117.707 22.9212 118.11 23.1846 118.629C23.4565 119.147 23.5925 119.737 23.5925 120.4C23.5925 120.536 23.55 120.647 23.465 120.732C23.38 120.808 23.2696 120.846 23.1336 120.846H17.9843C18.0522 121.543 18.3242 122.108 18.8 122.542C19.2759 122.975 19.8707 123.192 20.5844 123.192C20.8903 123.192 21.1962 123.141 21.5021 123.039C21.8165 122.928 22.0672 122.792 22.2541 122.631C22.3646 122.546 22.4793 122.503 22.5983 122.503C22.6918 122.503 22.7852 122.537 22.8787 122.605C22.9892 122.707 23.0444 122.822 23.0444 122.949C23.0444 123.06 22.9977 123.158 22.9042 123.243C22.6238 123.481 22.2669 123.68 21.8335 123.842C21.4002 123.995 20.9838 124.071 20.5844 124.071C19.9046 124.071 19.2971 123.922 18.7618 123.625C18.2264 123.319 17.8058 122.898 17.4999 122.363C17.2025 121.819 17.0538 121.207 17.0538 120.528C17.0538 119.839 17.194 119.228 17.4744 118.692C17.7633 118.148 18.1585 117.728 18.6598 117.43C19.1696 117.125 19.7474 116.972 20.3932 116.972ZM20.3932 117.851C19.7474 117.851 19.2121 118.051 18.7873 118.45C18.3624 118.85 18.1032 119.376 18.0098 120.031H22.6748C22.6068 119.376 22.3689 118.85 21.961 118.45C21.5531 118.051 21.0305 117.851 20.3932 117.851Z" fill="white"/>
<path d="M31.2178 117.035C31.3623 117.035 31.477 117.082 31.5619 117.176C31.6469 117.269 31.6894 117.388 31.6894 117.532V123.51C31.6894 123.655 31.6469 123.774 31.5619 123.867C31.477 123.961 31.3623 124.007 31.2178 124.007C31.0734 124.007 30.9544 123.961 30.8609 123.867C30.7675 123.774 30.7207 123.655 30.7207 123.51V120.936H26.2214V123.51C26.2214 123.655 26.1747 123.774 26.0812 123.867C25.9962 123.961 25.8815 124.007 25.7371 124.007C25.5926 124.007 25.4736 123.961 25.3802 123.867C25.2952 123.774 25.2527 123.655 25.2527 123.51V117.532C25.2527 117.388 25.2952 117.269 25.3802 117.176C25.4736 117.082 25.5926 117.035 25.7371 117.035C25.8815 117.035 25.9962 117.082 26.0812 117.176C26.1747 117.269 26.2214 117.388 26.2214 117.532V120.056H30.7207V117.532C30.7207 117.388 30.7675 117.269 30.8609 117.176C30.9544 117.082 31.0734 117.035 31.2178 117.035Z" fill="white"/>
<path d="M41.3198 116.959C41.8212 116.959 42.263 117.078 42.6454 117.316C43.0363 117.554 43.3379 117.894 43.5504 118.335C43.7713 118.769 43.8818 119.274 43.8818 119.852V123.523C43.8818 123.667 43.835 123.786 43.7416 123.88C43.6566 123.965 43.5419 124.007 43.3974 124.007C43.253 124.007 43.134 123.965 43.0405 123.88C42.9471 123.786 42.9003 123.667 42.9003 123.523V119.852C42.9003 119.249 42.7431 118.773 42.4287 118.425C42.1228 118.068 41.7192 117.889 41.2179 117.889C40.6825 117.889 40.2492 118.068 39.9178 118.425C39.5864 118.782 39.4249 119.249 39.4334 119.827V123.523C39.4334 123.667 39.3867 123.786 39.2932 123.88C39.2083 123.965 39.0935 124.007 38.9491 124.007C38.8046 124.007 38.6857 123.965 38.5922 123.88C38.4987 123.786 38.452 123.667 38.452 123.523V119.852C38.452 119.249 38.2948 118.773 37.9804 118.425C37.6745 118.068 37.2709 117.889 36.7695 117.889C36.2427 117.889 35.8094 118.064 35.4695 118.412C35.1296 118.76 34.9596 119.206 34.9596 119.75V123.523C34.9596 123.667 34.9129 123.786 34.8194 123.88C34.7344 123.965 34.6197 124.007 34.4753 124.007C34.3308 124.007 34.2119 123.965 34.1184 123.88C34.0249 123.786 33.9782 123.667 33.9782 123.523V117.532C33.9782 117.388 34.0249 117.269 34.1184 117.176C34.2119 117.082 34.3308 117.035 34.4753 117.035C34.6197 117.035 34.7344 117.082 34.8194 117.176C34.9129 117.269 34.9596 117.388 34.9596 117.532V117.813C35.1976 117.541 35.478 117.333 35.8009 117.188C36.1323 117.035 36.4891 116.959 36.8715 116.959C37.3389 116.959 37.7595 117.065 38.1334 117.278C38.5072 117.49 38.8046 117.787 39.0256 118.17C39.272 117.787 39.5906 117.49 39.9815 117.278C40.3809 117.065 40.827 116.959 41.3198 116.959Z" fill="white"/>
<path d="M49.5953 116.972C50.2581 116.972 50.8572 117.129 51.3925 117.443C51.9363 117.749 52.3612 118.174 52.6671 118.718C52.9815 119.262 53.1387 119.865 53.1387 120.528C53.1387 121.191 52.9857 121.794 52.6798 122.338C52.3824 122.873 51.9703 123.298 51.4435 123.612C50.9251 123.918 50.3431 124.071 49.6973 124.071C49.145 124.071 48.6394 123.956 48.1805 123.727C47.7217 123.489 47.3435 123.166 47.0461 122.758V126.493C47.0461 126.637 46.9994 126.756 46.9059 126.85C46.8125 126.943 46.6935 126.99 46.549 126.99C46.4046 126.99 46.2856 126.943 46.1922 126.85C46.1072 126.756 46.0647 126.637 46.0647 126.493V123.638C46.0562 123.612 46.052 123.574 46.052 123.523V120.528C46.052 119.865 46.2049 119.262 46.5108 118.718C46.8252 118.174 47.2501 117.749 47.7854 117.443C48.3292 117.129 48.9325 116.972 49.5953 116.972ZM49.5953 123.179C50.0797 123.179 50.5173 123.064 50.9081 122.835C51.3075 122.605 51.6177 122.291 51.8386 121.892C52.068 121.484 52.1827 121.029 52.1827 120.528C52.1827 120.026 52.068 119.576 51.8386 119.177C51.6177 118.769 51.3075 118.45 50.9081 118.221C50.5173 117.983 50.0797 117.864 49.5953 117.864C49.111 117.864 48.6734 117.983 48.2825 118.221C47.8916 118.45 47.5815 118.769 47.352 119.177C47.1311 119.576 47.0206 120.026 47.0206 120.528C47.0206 120.672 47.0249 120.778 47.0334 120.846C47.0419 120.863 47.0461 120.885 47.0461 120.91C47.1311 121.573 47.4073 122.117 47.8746 122.542C48.3505 122.966 48.924 123.179 49.5953 123.179Z" fill="white"/>
<path d="M61.7804 116.972C62.8426 116.972 63.705 117.379 64.3678 118.195C64.4358 118.272 64.4698 118.361 64.4698 118.463C64.4698 118.599 64.3976 118.718 64.2531 118.82C64.1766 118.871 64.0959 118.896 64.0109 118.896C63.8835 118.896 63.7603 118.833 63.6413 118.705C63.3864 118.425 63.106 118.216 62.8001 118.081C62.4942 117.936 62.1543 117.864 61.7804 117.864C61.313 117.864 60.8967 117.979 60.5313 118.208C60.1659 118.429 59.8813 118.743 59.6773 119.151C59.4819 119.559 59.3842 120.018 59.3842 120.528C59.3842 121.029 59.4904 121.484 59.7028 121.892C59.9153 122.291 60.2127 122.605 60.595 122.835C60.9774 123.064 61.415 123.179 61.9079 123.179C62.5876 123.179 63.1357 122.996 63.5521 122.631C63.6626 122.537 63.7773 122.491 63.8962 122.491C63.9982 122.491 64.0917 122.525 64.1766 122.593C64.2956 122.695 64.3551 122.809 64.3551 122.937C64.3551 123.047 64.3126 123.141 64.2276 123.217C63.6158 123.786 62.8426 124.071 61.9079 124.071C61.2451 124.071 60.6503 123.918 60.1234 123.612C59.5966 123.298 59.1802 122.873 58.8743 122.338C58.5769 121.794 58.4282 121.191 58.4282 120.528C58.4282 119.848 58.5727 119.24 58.8616 118.705C59.1505 118.161 59.5499 117.736 60.0597 117.43C60.5695 117.125 61.1431 116.972 61.7804 116.972Z" fill="white"/>
<path d="M73.7323 116.959C74.2336 116.959 74.6755 117.078 75.0579 117.316C75.4487 117.554 75.7504 117.894 75.9628 118.335C76.1837 118.769 76.2942 119.274 76.2942 119.852V123.523C76.2942 123.667 76.2475 123.786 76.154 123.88C76.069 123.965 75.9543 124.007 75.8099 124.007C75.6654 124.007 75.5464 123.965 75.453 123.88C75.3595 123.786 75.3128 123.667 75.3128 123.523V119.852C75.3128 119.249 75.1556 118.773 74.8412 118.425C74.5353 118.068 74.1316 117.889 73.6303 117.889C73.095 117.889 72.6616 118.068 72.3302 118.425C71.9988 118.782 71.8374 119.249 71.8459 119.827V123.523C71.8459 123.667 71.7991 123.786 71.7057 123.88C71.6207 123.965 71.506 124.007 71.3615 124.007C71.2171 124.007 71.0981 123.965 71.0047 123.88C70.9112 123.786 70.8645 123.667 70.8645 123.523V119.852C70.8645 119.249 70.7073 118.773 70.3929 118.425C70.087 118.068 69.6833 117.889 69.182 117.889C68.6552 117.889 68.2218 118.064 67.8819 118.412C67.542 118.76 67.3721 119.206 67.3721 119.75V123.523C67.3721 123.667 67.3253 123.786 67.2319 123.88C67.1469 123.965 67.0322 124.007 66.8877 124.007C66.7433 124.007 66.6243 123.965 66.5308 123.88C66.4374 123.786 66.3906 123.667 66.3906 123.523V117.532C66.3906 117.388 66.4374 117.269 66.5308 117.176C66.6243 117.082 66.7433 117.035 66.8877 117.035C67.0322 117.035 67.1469 117.082 67.2319 117.176C67.3253 117.269 67.3721 117.388 67.3721 117.532V117.813C67.61 117.541 67.8904 117.333 68.2133 117.188C68.5447 117.035 68.9016 116.959 69.284 116.959C69.7513 116.959 70.1719 117.065 70.5458 117.278C70.9197 117.49 71.2171 117.787 71.438 118.17C71.6844 117.787 72.0031 117.49 72.394 117.278C72.7933 117.065 73.2394 116.959 73.7323 116.959Z" fill="white"/>
<path d="M82.0078 116.972C82.6705 116.972 83.2696 117.129 83.8049 117.443C84.3488 117.749 84.7736 118.174 85.0795 118.718C85.3939 119.262 85.5511 119.865 85.5511 120.528C85.5511 121.191 85.3982 121.794 85.0923 122.338C84.7949 122.873 84.3827 123.298 83.8559 123.612C83.3376 123.918 82.7555 124.071 82.1097 124.071C81.5574 124.071 81.0518 123.956 80.593 123.727C80.1341 123.489 79.756 123.166 79.4586 122.758V126.493C79.4586 126.637 79.4118 126.756 79.3184 126.85C79.2249 126.943 79.1059 126.99 78.9615 126.99C78.817 126.99 78.6981 126.943 78.6046 126.85C78.5196 126.756 78.4771 126.637 78.4771 126.493V123.638C78.4686 123.612 78.4644 123.574 78.4644 123.523V120.528C78.4644 119.865 78.6173 119.262 78.9232 118.718C79.2376 118.174 79.6625 117.749 80.1978 117.443C80.7417 117.129 81.345 116.972 82.0078 116.972ZM82.0078 123.179C82.4921 123.179 82.9297 123.064 83.3206 122.835C83.72 122.605 84.0301 122.291 84.251 121.892C84.4805 121.484 84.5952 121.029 84.5952 120.528C84.5952 120.026 84.4805 119.576 84.251 119.177C84.0301 118.769 83.72 118.45 83.3206 118.221C82.9297 117.983 82.4921 117.864 82.0078 117.864C81.5234 117.864 81.0858 117.983 80.6949 118.221C80.3041 118.45 79.9939 118.769 79.7645 119.177C79.5435 119.576 79.4331 120.026 79.4331 120.528C79.4331 120.672 79.4373 120.778 79.4458 120.846C79.4543 120.863 79.4586 120.885 79.4586 120.91C79.5435 121.573 79.8197 122.117 80.2871 122.542C80.7629 122.966 81.3365 123.179 82.0078 123.179Z" fill="white"/>
<path d="M90.6499 116.972C91.3212 116.972 91.9245 117.125 92.4598 117.43C92.9951 117.736 93.4157 118.161 93.7216 118.705C94.036 119.249 94.1933 119.856 94.1933 120.528C94.1933 121.199 94.0403 121.807 93.7344 122.35C93.4285 122.886 93.0036 123.306 92.4598 123.612C91.9245 123.918 91.3212 124.071 90.6499 124.071C89.9786 124.071 89.371 123.918 88.8272 123.612C88.2919 123.306 87.8713 122.886 87.5654 122.35C87.2595 121.807 87.1065 121.199 87.1065 120.528C87.1065 119.856 87.2595 119.249 87.5654 118.705C87.8713 118.161 88.2919 117.736 88.8272 117.43C89.371 117.125 89.9786 116.972 90.6499 116.972ZM90.6499 117.864C90.1655 117.864 89.7237 117.979 89.3243 118.208C88.9334 118.437 88.6233 118.756 88.3939 119.164C88.1729 119.563 88.0625 120.018 88.0625 120.528C88.0625 121.029 88.1729 121.484 88.3939 121.892C88.6233 122.291 88.9334 122.605 89.3243 122.835C89.7237 123.064 90.1655 123.179 90.6499 123.179C91.1427 123.179 91.5846 123.064 91.9754 122.835C92.3663 122.605 92.6722 122.291 92.8932 121.892C93.1141 121.484 93.2246 121.029 93.2246 120.528C93.2246 120.018 93.1141 119.563 92.8932 119.164C92.6722 118.756 92.3663 118.437 91.9754 118.208C91.5846 117.979 91.1427 117.864 90.6499 117.864Z" fill="white"/>
<path d="M101.94 117.035C102.084 117.035 102.203 117.082 102.297 117.176C102.39 117.261 102.437 117.375 102.437 117.52V123.51C102.437 123.655 102.39 123.774 102.297 123.867C102.203 123.961 102.084 124.007 101.94 124.007C101.795 124.007 101.676 123.961 101.583 123.867C101.498 123.774 101.455 123.655 101.455 123.51V123.077C101.175 123.391 100.835 123.638 100.436 123.816C100.036 123.995 99.6029 124.084 99.1356 124.084C98.5323 124.084 97.9884 123.956 97.5041 123.701C97.0282 123.447 96.6544 123.077 96.3825 122.593C96.1105 122.1 95.9746 121.513 95.9746 120.834V117.52C95.9746 117.384 96.0213 117.269 96.1148 117.176C96.2083 117.082 96.323 117.035 96.4589 117.035C96.6034 117.035 96.7223 117.082 96.8158 117.176C96.9093 117.269 96.956 117.384 96.956 117.52V120.834C96.956 121.59 97.1642 122.168 97.5806 122.567C98.0054 122.958 98.5578 123.153 99.2375 123.153C99.6539 123.153 100.028 123.073 100.359 122.911C100.699 122.75 100.967 122.529 101.162 122.248C101.358 121.96 101.455 121.641 101.455 121.292V117.52C101.455 117.375 101.498 117.261 101.583 117.176C101.676 117.082 101.795 117.035 101.94 117.035Z" fill="white"/>
<path d="M112.07 116.959C112.571 116.959 113.013 117.078 113.395 117.316C113.786 117.554 114.088 117.894 114.3 118.335C114.521 118.769 114.632 119.274 114.632 119.852V123.523C114.632 123.667 114.585 123.786 114.491 123.88C114.406 123.965 114.292 124.007 114.147 124.007C114.003 124.007 113.884 123.965 113.79 123.88C113.697 123.786 113.65 123.667 113.65 123.523V119.852C113.65 119.249 113.493 118.773 113.178 118.425C112.873 118.068 112.469 117.889 111.968 117.889C111.432 117.889 110.999 118.068 110.668 118.425C110.336 118.782 110.175 119.249 110.183 119.827V123.523C110.183 123.667 110.136 123.786 110.043 123.88C109.958 123.965 109.843 124.007 109.699 124.007C109.554 124.007 109.435 123.965 109.342 123.88C109.248 123.786 109.202 123.667 109.202 123.523V119.852C109.202 119.249 109.045 118.773 108.73 118.425C108.424 118.068 108.021 117.889 107.519 117.889C106.992 117.889 106.559 118.064 106.219 118.412C105.879 118.76 105.709 119.206 105.709 119.75V123.523C105.709 123.667 105.663 123.786 105.569 123.88C105.484 123.965 105.369 124.007 105.225 124.007C105.081 124.007 104.962 123.965 104.868 123.88C104.775 123.786 104.728 123.667 104.728 123.523V117.532C104.728 117.388 104.775 117.269 104.868 117.176C104.962 117.082 105.081 117.035 105.225 117.035C105.369 117.035 105.484 117.082 105.569 117.176C105.663 117.269 105.709 117.388 105.709 117.532V117.813C105.947 117.541 106.228 117.333 106.551 117.188C106.882 117.035 107.239 116.959 107.621 116.959C108.089 116.959 108.509 117.065 108.883 117.278C109.257 117.49 109.554 117.787 109.775 118.17C110.022 117.787 110.34 117.49 110.731 117.278C111.131 117.065 111.577 116.959 112.07 116.959Z" fill="white"/>
<path d="M119.771 116.972C120.4 116.972 120.957 117.12 121.441 117.418C121.926 117.707 122.299 118.11 122.563 118.629C122.835 119.147 122.971 119.737 122.971 120.4C122.971 120.536 122.928 120.647 122.843 120.732C122.758 120.808 122.648 120.846 122.512 120.846H117.363C117.43 121.543 117.702 122.108 118.178 122.542C118.654 122.975 119.249 123.192 119.963 123.192C120.269 123.192 120.574 123.141 120.88 123.039C121.195 122.928 121.445 122.792 121.632 122.631C121.743 122.546 121.858 122.503 121.977 122.503C122.07 122.503 122.163 122.537 122.257 122.605C122.367 122.707 122.423 122.822 122.423 122.949C122.423 123.06 122.376 123.158 122.282 123.243C122.002 123.481 121.645 123.68 121.212 123.842C120.778 123.995 120.362 124.071 119.963 124.071C119.283 124.071 118.675 123.922 118.14 123.625C117.605 123.319 117.184 122.898 116.878 122.363C116.581 121.819 116.432 121.207 116.432 120.528C116.432 119.839 116.572 119.228 116.853 118.692C117.142 118.148 117.537 117.728 118.038 117.43C118.548 117.125 119.126 116.972 119.771 116.972ZM119.771 117.851C119.126 117.851 118.59 118.051 118.166 118.45C117.741 118.85 117.481 119.376 117.388 120.031H122.053C121.985 119.376 121.747 118.85 121.339 118.45C120.931 118.051 120.409 117.851 119.771 117.851Z" fill="white"/>
<path d="M130.481 123.383C130.515 123.468 130.532 123.532 130.532 123.574C130.532 123.735 130.439 123.867 130.252 123.969C130.184 124.003 130.107 124.02 130.022 124.02C129.844 124.02 129.708 123.931 129.615 123.752L127.257 118.514L124.86 123.74C124.826 123.825 124.771 123.893 124.695 123.944C124.618 123.995 124.533 124.02 124.44 124.02C124.372 124.02 124.295 123.999 124.21 123.956C124.015 123.854 123.917 123.723 123.917 123.561C123.917 123.519 123.934 123.455 123.968 123.37L126.772 117.367C126.874 117.146 127.027 117.035 127.231 117.035C127.452 117.035 127.614 117.146 127.715 117.367L130.481 123.383Z" fill="white"/>
<path d="M135.183 119.342C135.735 119.342 136.22 119.444 136.636 119.648C137.061 119.844 137.388 120.12 137.618 120.477C137.856 120.834 137.975 121.241 137.975 121.7C137.975 122.168 137.851 122.588 137.605 122.962C137.367 123.328 137.027 123.616 136.585 123.829C136.143 124.033 135.642 124.135 135.081 124.135C134.503 124.135 133.989 124.029 133.539 123.816C133.089 123.595 132.74 123.289 132.494 122.898C132.247 122.499 132.124 122.044 132.124 121.535V117.52C132.133 117.384 132.184 117.269 132.277 117.176C132.371 117.082 132.485 117.035 132.621 117.035C132.766 117.035 132.88 117.082 132.965 117.176C133.059 117.269 133.106 117.388 133.106 117.532V119.342H135.183ZM133.106 121.535C133.106 122.027 133.288 122.435 133.654 122.758C134.019 123.073 134.495 123.23 135.081 123.23C135.659 123.23 136.122 123.098 136.471 122.835C136.827 122.571 137.006 122.193 137.006 121.7C137.006 121.224 136.844 120.855 136.521 120.591C136.199 120.328 135.752 120.196 135.183 120.196H133.106V121.535Z" fill="white"/>
<path d="M145.582 117.035C145.727 117.035 145.842 117.082 145.927 117.176C146.012 117.269 146.054 117.388 146.054 117.532V123.51C146.054 123.655 146.012 123.774 145.927 123.867C145.842 123.961 145.727 124.007 145.582 124.007C145.438 124.007 145.319 123.961 145.226 123.867C145.132 123.774 145.085 123.655 145.085 123.51V120.936H140.586V123.51C140.586 123.655 140.539 123.774 140.446 123.867C140.361 123.961 140.246 124.007 140.102 124.007C139.957 124.007 139.838 123.961 139.745 123.867C139.66 123.774 139.617 123.655 139.617 123.51V117.532C139.617 117.388 139.66 117.269 139.745 117.176C139.838 117.082 139.957 117.035 140.102 117.035C140.246 117.035 140.361 117.082 140.446 117.176C140.539 117.269 140.586 117.388 140.586 117.532V120.056H145.085V117.532C145.085 117.388 145.132 117.269 145.226 117.176C145.319 117.082 145.438 117.035 145.582 117.035Z" fill="white"/>
<path d="M151.211 119.342C151.984 119.342 152.613 119.559 153.097 119.992C153.581 120.417 153.824 120.987 153.824 121.7C153.824 122.185 153.709 122.614 153.479 122.988C153.258 123.353 152.944 123.638 152.536 123.842C152.137 124.037 151.678 124.135 151.16 124.135C150.616 124.135 150.132 124.024 149.707 123.803C149.282 123.582 148.946 123.277 148.7 122.886C148.462 122.486 148.343 122.036 148.343 121.535V117.52C148.351 117.375 148.402 117.261 148.496 117.176C148.589 117.082 148.704 117.035 148.84 117.035C148.984 117.035 149.099 117.082 149.184 117.176C149.278 117.269 149.324 117.388 149.324 117.532V119.342H151.211ZM154.932 117.532C154.932 117.388 154.975 117.269 155.06 117.176C155.153 117.082 155.272 117.035 155.417 117.035C155.561 117.035 155.68 117.082 155.774 117.176C155.867 117.269 155.914 117.388 155.914 117.532V123.51C155.914 123.655 155.867 123.774 155.774 123.867C155.68 123.961 155.561 124.007 155.417 124.007C155.272 124.007 155.153 123.961 155.06 123.867C154.975 123.774 154.932 123.655 154.932 123.51V117.532ZM149.324 121.535C149.324 122.027 149.494 122.435 149.834 122.758C150.182 123.073 150.624 123.23 151.16 123.23C151.678 123.23 152.09 123.098 152.396 122.835C152.71 122.571 152.868 122.193 152.868 121.7C152.868 121.216 152.715 120.846 152.409 120.591C152.111 120.328 151.712 120.196 151.211 120.196H149.324V121.535Z" fill="white"/>
<path d="M162.99 123.243C163.083 123.362 163.13 123.476 163.13 123.587C163.13 123.706 163.083 123.808 162.99 123.893C162.905 123.969 162.807 124.007 162.697 124.007C162.595 124.007 162.51 123.99 162.442 123.956C162.374 123.922 162.31 123.863 162.25 123.778L160.16 121.114L157.993 123.854C157.917 123.956 157.802 124.007 157.649 124.007C157.513 124.007 157.403 123.965 157.318 123.88C157.241 123.795 157.203 123.693 157.203 123.574C157.203 123.438 157.246 123.323 157.33 123.23L159.536 120.477L157.445 117.826C157.36 117.732 157.318 117.617 157.318 117.481C157.318 117.354 157.356 117.248 157.432 117.163C157.509 117.078 157.619 117.035 157.764 117.035C157.908 117.035 158.032 117.086 158.133 117.188L160.186 119.827L162.212 117.265C162.331 117.112 162.471 117.035 162.633 117.035C162.769 117.035 162.875 117.078 162.951 117.163C163.036 117.248 163.079 117.35 163.079 117.469C163.079 117.596 163.032 117.719 162.939 117.838L160.823 120.464L162.99 123.243Z" fill="white"/>
<path d="M7.68466 130.979C8.186 130.979 8.62786 131.098 9.01024 131.336C9.40111 131.574 9.70276 131.914 9.91519 132.356C10.1361 132.789 10.2466 133.295 10.2466 133.873V137.544C10.2466 137.688 10.1999 137.807 10.1064 137.9C10.0214 137.985 9.9067 138.028 9.76224 138.028C9.61779 138.028 9.49883 137.985 9.40536 137.9C9.31189 137.807 9.26515 137.688 9.26515 137.544V133.873C9.26515 133.269 9.10795 132.794 8.79355 132.445C8.48765 132.088 8.08403 131.91 7.58269 131.91C7.04737 131.91 6.614 132.088 6.28261 132.445C5.95122 132.802 5.78977 133.269 5.79827 133.847V137.544C5.79827 137.688 5.75153 137.807 5.65806 137.9C5.57309 137.985 5.45837 138.028 5.31392 138.028C5.16947 138.028 5.05051 137.985 4.95704 137.9C4.86357 137.807 4.81683 137.688 4.81683 137.544V133.873C4.81683 133.269 4.65963 132.794 4.34523 132.445C4.03933 132.088 3.63571 131.91 3.13437 131.91C2.60754 131.91 2.17418 132.084 1.83429 132.432C1.4944 132.781 1.32445 133.227 1.32445 133.771V137.544C1.32445 137.688 1.27772 137.807 1.18425 137.9C1.09927 137.985 0.984562 138.028 0.840108 138.028C0.695654 138.028 0.576693 137.985 0.483223 137.9C0.389753 137.807 0.343018 137.688 0.343018 137.544V131.553C0.343018 131.408 0.389753 131.29 0.483223 131.196C0.576693 131.103 0.695654 131.056 0.840108 131.056C0.984562 131.056 1.09927 131.103 1.18425 131.196C1.27772 131.29 1.32445 131.408 1.32445 131.553V131.833C1.56238 131.561 1.84279 131.353 2.16568 131.209C2.49708 131.056 2.85396 130.979 3.23634 130.979C3.70369 130.979 4.1243 131.086 4.49818 131.298C4.87206 131.51 5.16947 131.808 5.3904 132.19C5.63682 131.808 5.95547 131.51 6.34634 131.298C6.74571 131.086 7.19182 130.979 7.68466 130.979Z" fill="white"/>
<path d="M15.3866 130.992C16.0154 130.992 16.5719 131.141 17.0563 131.438C17.5406 131.727 17.9145 132.131 18.1779 132.649C18.4498 133.167 18.5858 133.758 18.5858 134.421C18.5858 134.557 18.5433 134.667 18.4583 134.752C18.3734 134.829 18.2629 134.867 18.1269 134.867H12.9776C13.0456 135.564 13.3175 136.129 13.7933 136.562C14.2692 136.995 14.864 137.212 15.5778 137.212C15.8837 137.212 16.1896 137.161 16.4955 137.059C16.8099 136.949 17.0605 136.813 17.2475 136.651C17.3579 136.566 17.4727 136.524 17.5916 136.524C17.6851 136.524 17.7786 136.558 17.872 136.626C17.9825 136.728 18.0377 136.842 18.0377 136.97C18.0377 137.08 17.991 137.178 17.8975 137.263C17.6171 137.501 17.2602 137.701 16.8269 137.862C16.3935 138.015 15.9771 138.092 15.5778 138.092C14.898 138.092 14.2904 137.943 13.7551 137.645C13.2198 137.34 12.7992 136.919 12.4933 136.384C12.1958 135.84 12.0471 135.228 12.0471 134.548C12.0471 133.86 12.1874 133.248 12.4678 132.713C12.7567 132.169 13.1518 131.748 13.6531 131.451C14.163 131.145 14.7408 130.992 15.3866 130.992ZM15.3866 131.872C14.7408 131.872 14.2055 132.071 13.7806 132.471C13.3557 132.87 13.0966 133.397 13.0031 134.051H17.6681C17.6001 133.397 17.3622 132.87 16.9543 132.471C16.5465 132.071 16.0239 131.872 15.3866 131.872Z" fill="white"/>
<path d="M25.0223 137.263C25.1157 137.382 25.1625 137.497 25.1625 137.607C25.1625 137.726 25.1157 137.828 25.0223 137.913C24.9373 137.99 24.8396 138.028 24.7291 138.028C24.6272 138.028 24.5422 138.011 24.4742 137.977C24.4062 137.943 24.3425 137.883 24.283 137.798L22.1927 135.135L20.0259 137.875C19.9494 137.977 19.8347 138.028 19.6817 138.028C19.5458 138.028 19.4353 137.985 19.3504 137.9C19.2739 137.815 19.2356 137.713 19.2356 137.594C19.2356 137.459 19.2781 137.344 19.3631 137.25L21.5681 134.497L19.4778 131.846C19.3928 131.753 19.3504 131.638 19.3504 131.502C19.3504 131.374 19.3886 131.268 19.4651 131.183C19.5415 131.098 19.652 131.056 19.7965 131.056C19.9409 131.056 20.0641 131.107 20.1661 131.209L22.2182 133.847L24.2448 131.285C24.3637 131.132 24.5039 131.056 24.6654 131.056C24.8014 131.056 24.9076 131.098 24.984 131.183C25.069 131.268 25.1115 131.37 25.1115 131.489C25.1115 131.617 25.0648 131.74 24.9713 131.859L22.8555 134.484L25.0223 137.263Z" fill="white"/>
<path d="M32.8081 131.056C32.9526 131.056 33.0673 131.103 33.1523 131.196C33.2373 131.29 33.2797 131.408 33.2797 131.553V137.531C33.2797 137.675 33.2373 137.794 33.1523 137.888C33.0673 137.981 32.9526 138.028 32.8081 138.028C32.6637 138.028 32.5447 137.981 32.4513 137.888C32.3578 137.794 32.3111 137.675 32.3111 137.531V134.956H27.8117V137.531C27.8117 137.675 27.765 137.794 27.6715 137.888C27.5866 137.981 27.4718 138.028 27.3274 138.028C27.1829 138.028 27.064 137.981 26.9705 137.888C26.8855 137.794 26.8431 137.675 26.8431 137.531V131.553C26.8431 131.408 26.8855 131.29 26.9705 131.196C27.064 131.103 27.1829 131.056 27.3274 131.056C27.4718 131.056 27.5866 131.103 27.6715 131.196C27.765 131.29 27.8117 131.408 27.8117 131.553V134.077H32.3111V131.553C32.3111 131.408 32.3578 131.29 32.4513 131.196C32.5447 131.103 32.6637 131.056 32.8081 131.056Z" fill="white"/>
<path d="M38.7423 130.992C39.4135 130.992 40.0168 131.145 40.5522 131.451C41.0875 131.757 41.5081 132.182 41.814 132.726C42.1284 133.269 42.2856 133.877 42.2856 134.548C42.2856 135.219 42.1327 135.827 41.8268 136.371C41.5209 136.906 41.096 137.327 40.5522 137.633C40.0168 137.939 39.4135 138.092 38.7423 138.092C38.071 138.092 37.4634 137.939 36.9196 137.633C36.3843 137.327 35.9636 136.906 35.6577 136.371C35.3518 135.827 35.1989 135.219 35.1989 134.548C35.1989 133.877 35.3518 133.269 35.6577 132.726C35.9636 132.182 36.3843 131.757 36.9196 131.451C37.4634 131.145 38.071 130.992 38.7423 130.992ZM38.7423 131.884C38.2579 131.884 37.8161 131.999 37.4167 132.228C37.0258 132.458 36.7157 132.777 36.4862 133.184C36.2653 133.584 36.1548 134.038 36.1548 134.548C36.1548 135.05 36.2653 135.504 36.4862 135.912C36.7157 136.311 37.0258 136.626 37.4167 136.855C37.8161 137.085 38.2579 137.199 38.7423 137.199C39.2351 137.199 39.677 137.085 40.0678 136.855C40.4587 136.626 40.7646 136.311 40.9855 135.912C41.2065 135.504 41.3169 135.05 41.3169 134.548C41.3169 134.038 41.2065 133.584 40.9855 133.184C40.7646 132.777 40.4587 132.458 40.0678 132.228C39.677 131.999 39.2351 131.884 38.7423 131.884Z" fill="white"/>
<path d="M50.0448 137.403C50.0788 137.488 50.0958 137.552 50.0958 137.594C50.0958 137.756 50.0023 137.888 49.8154 137.99C49.7474 138.024 49.6709 138.041 49.5859 138.041C49.4075 138.041 49.2715 137.951 49.1781 137.773L46.8201 132.534L44.4238 137.76C44.3899 137.845 44.3346 137.913 44.2582 137.964C44.1817 138.015 44.0967 138.041 44.0032 138.041C43.9353 138.041 43.8588 138.019 43.7738 137.977C43.5784 137.875 43.4806 137.743 43.4806 137.582C43.4806 137.539 43.4976 137.476 43.5316 137.391L46.3357 131.387C46.4377 131.166 46.5906 131.056 46.7946 131.056C47.0155 131.056 47.177 131.166 47.2789 131.387L50.0448 137.403Z" fill="white"/>
<path d="M54.8613 130.992C55.5326 130.992 56.1359 131.145 56.6713 131.451C57.2066 131.757 57.6272 132.182 57.9331 132.726C58.2475 133.269 58.4047 133.877 58.4047 134.548C58.4047 135.219 58.2518 135.827 57.9459 136.371C57.64 136.906 57.2151 137.327 56.6713 137.633C56.1359 137.939 55.5326 138.092 54.8613 138.092C54.1901 138.092 53.5825 137.939 53.0387 137.633C52.5034 137.327 52.0827 136.906 51.7768 136.371C51.4709 135.827 51.318 135.219 51.318 134.548C51.318 133.877 51.4709 133.269 51.7768 132.726C52.0827 132.182 52.5034 131.757 53.0387 131.451C53.5825 131.145 54.1901 130.992 54.8613 130.992ZM54.8613 131.884C54.377 131.884 53.9351 131.999 53.5358 132.228C53.1449 132.458 52.8347 132.777 52.6053 133.184C52.3844 133.584 52.2739 134.038 52.2739 134.548C52.2739 135.05 52.3844 135.504 52.6053 135.912C52.8347 136.311 53.1449 136.626 53.5358 136.855C53.9351 137.085 54.377 137.199 54.8613 137.199C55.3542 137.199 55.796 137.085 56.1869 136.855C56.5778 136.626 56.8837 136.311 57.1046 135.912C57.3256 135.504 57.436 135.05 57.436 134.548C57.436 134.038 57.3256 133.584 57.1046 133.184C56.8837 132.777 56.5778 132.458 56.1869 132.228C55.796 131.999 55.3542 131.884 54.8613 131.884Z" fill="white"/>
<path d="M62.4676 130.992C63.1898 130.992 63.7719 131.162 64.2138 131.502C64.6556 131.833 64.8765 132.309 64.8765 132.929C64.8765 133.388 64.6981 133.788 64.3412 134.128C63.9843 134.467 63.4278 134.722 62.6715 134.892C61.9662 135.045 61.4734 135.224 61.193 135.428C60.9126 135.632 60.7724 135.891 60.7724 136.205C60.7724 136.537 60.9041 136.787 61.1675 136.957C61.4394 137.119 61.8558 137.199 62.4166 137.199C63.3343 137.199 63.9928 136.97 64.3922 136.511C64.5027 136.384 64.6301 136.32 64.7746 136.32C64.868 136.32 64.9615 136.354 65.055 136.422C65.174 136.524 65.2334 136.639 65.2334 136.766C65.2334 136.885 65.1909 136.987 65.106 137.072C64.8256 137.386 64.4389 137.637 63.9461 137.824C63.4533 138.002 62.9519 138.092 62.4421 138.092C61.9407 138.092 61.4904 138.015 61.091 137.862C60.6916 137.709 60.373 137.493 60.1351 137.212C59.9056 136.923 59.7909 136.592 59.7909 136.218C59.7909 135.717 59.9991 135.296 60.4155 134.956C60.8318 134.608 61.4989 134.336 62.4166 134.14C62.9689 134.013 63.3555 133.851 63.5765 133.656C63.8059 133.461 63.9206 133.206 63.9206 132.891C63.9206 132.585 63.7889 132.339 63.5255 132.152C63.2706 131.965 62.9222 131.872 62.4803 131.872C62.1234 131.872 61.792 131.935 61.4861 132.063C61.1887 132.182 60.9423 132.356 60.7469 132.585C60.6109 132.721 60.4665 132.789 60.3135 132.789C60.2285 132.789 60.1648 132.772 60.1223 132.738C59.9524 132.645 59.8674 132.517 59.8674 132.356C59.8674 132.271 59.9014 132.186 59.9694 132.101C60.2243 131.761 60.5642 131.493 60.989 131.298C61.4224 131.094 61.9152 130.992 62.4676 130.992Z" fill="white"/>
<path d="M72.7357 131.056C72.8801 131.056 72.9991 131.103 73.0926 131.196C73.186 131.281 73.2328 131.396 73.2328 131.54V137.531C73.2328 137.675 73.186 137.794 73.0926 137.888C72.9991 137.981 72.8801 138.028 72.7357 138.028C72.5912 138.028 72.4723 137.981 72.3788 137.888C72.2938 137.794 72.2513 137.675 72.2513 137.531V137.097C71.9709 137.412 71.6311 137.658 71.2317 137.837C70.8323 138.015 70.3989 138.104 69.9316 138.104C69.3283 138.104 68.7845 137.977 68.3001 137.722C67.8243 137.467 67.4504 137.097 67.1785 136.613C66.9066 136.12 66.7706 135.534 66.7706 134.854V131.54C66.7706 131.404 66.8173 131.29 66.9108 131.196C67.0043 131.103 67.119 131.056 67.255 131.056C67.3994 131.056 67.5184 131.103 67.6118 131.196C67.7053 131.29 67.752 131.404 67.752 131.54V134.854C67.752 135.61 67.9602 136.188 68.3766 136.588C68.8014 136.978 69.3538 137.174 70.0336 137.174C70.4499 137.174 70.8238 137.093 71.1552 136.932C71.4951 136.77 71.7628 136.549 71.9582 136.269C72.1536 135.98 72.2513 135.661 72.2513 135.313V131.54C72.2513 131.396 72.2938 131.281 72.3788 131.196C72.4723 131.103 72.5912 131.056 72.7357 131.056Z" fill="white"/>
<path d="M81.3616 131.056C81.506 131.056 81.625 131.103 81.7185 131.196C81.8119 131.281 81.8587 131.396 81.8587 131.54V137.531C81.8587 137.675 81.8119 137.794 81.7185 137.888C81.625 137.981 81.506 138.028 81.3616 138.028C81.2171 138.028 81.0982 137.981 81.0047 137.888C80.9197 137.794 80.8772 137.675 80.8772 137.531V137.097C80.5968 137.412 80.2569 137.658 79.8576 137.837C79.4582 138.015 79.0248 138.104 78.5575 138.104C77.9542 138.104 77.4104 137.977 76.926 137.722C76.4502 137.467 76.0763 137.097 75.8044 136.613C75.5325 136.12 75.3965 135.534 75.3965 134.854V131.54C75.3965 131.404 75.4432 131.29 75.5367 131.196C75.6302 131.103 75.7449 131.056 75.8808 131.056C76.0253 131.056 76.1443 131.103 76.2377 131.196C76.3312 131.29 76.3779 131.404 76.3779 131.54V134.854C76.3779 135.61 76.5861 136.188 77.0025 136.588C77.4273 136.978 77.9797 137.174 78.6594 137.174C79.0758 137.174 79.4497 137.093 79.7811 136.932C80.121 136.77 80.3886 136.549 80.5841 136.269C80.7795 135.98 80.8772 135.661 80.8772 135.313V131.54C80.8772 131.396 80.9197 131.281 81.0047 131.196C81.0982 131.103 81.2171 131.056 81.3616 131.056ZM85.0578 128.048C85.1938 128.048 77.2107 128.095 77.2956 128.188C77.3806 128.281 77.4231 128.409 77.4231 128.57C77.4231 128.8 77.5421 128.991 77.78 129.144C78.0264 129.288 78.3323 129.361 78.6977 129.361C79.0631 129.361 79.3647 129.288 79.6027 129.144C79.8491 128.991 79.9723 128.8 79.9723 128.57C79.9723 128.409 80.0148 128.281 80.0997 128.188C80.1847 128.095 88.3887 128.048 88.5247 128.048C88.6607 128.048 80.6776 128.095 80.7625 128.188C80.8475 128.273 80.89 128.388 80.89 128.532C80.89 128.838 80.7923 129.114 80.5968 129.361C80.4099 129.607 80.1465 129.802 79.8066 129.947C79.4752 130.083 79.1056 130.151 78.6977 130.151C78.2898 130.151 77.9159 130.083 77.576 129.947C77.2447 129.802 76.9812 129.607 76.7858 129.361C76.5989 129.114 76.5054 128.838 76.5054 128.532C76.5054 128.388 76.5479 128.273 76.6329 128.188C76.7178 128.095 84.9219 128.048 85.0578 128.048Z" fill="white"/>
<path d="M93.7216 131.056C93.8661 131.056 93.985 131.103 94.0785 131.196C94.172 131.281 94.2187 131.396 94.2187 131.54V137.531C94.2187 137.675 94.172 137.794 94.0785 137.888C93.985 137.981 93.8661 138.028 93.7216 138.028C93.5772 138.028 93.4582 137.981 93.3647 137.888C93.2798 137.794 93.2373 137.675 93.2373 137.531V137.097C92.9569 137.412 92.617 137.658 92.2176 137.837C91.8182 138.015 91.3849 138.104 90.9175 138.104C90.3142 138.104 89.7704 137.977 89.286 137.722C88.8102 137.467 88.4363 137.097 88.1644 136.613C87.8925 136.12 87.7565 135.534 87.7565 134.854V131.54C87.7565 131.404 87.8033 131.29 87.8968 131.196C87.9902 131.103 88.1049 131.056 88.2409 131.056C88.3853 131.056 88.5043 131.103 88.5978 131.196C88.6912 131.29 88.738 131.404 88.738 131.54V134.854C88.738 135.61 88.9462 136.188 89.3625 136.588C89.7874 136.978 90.3397 137.174 91.0195 137.174C91.4359 137.174 91.8097 137.093 92.1411 136.932C92.481 136.77 92.7487 136.549 92.9441 136.269C93.1396 135.98 93.2373 135.661 93.2373 135.313V131.54C93.2373 131.396 93.2798 131.281 93.3647 131.196C93.4582 131.103 93.5772 131.056 93.7216 131.056Z" fill="white"/>
<path d="M99.9891 136.957C99.9891 136.83 100.049 136.715 100.168 136.613C100.253 136.545 100.346 136.511 100.448 136.511C100.567 136.511 100.682 136.558 100.792 136.651C101.208 137.017 101.757 137.199 102.436 137.199C103.116 137.199 103.685 136.983 104.144 136.549C104.612 136.116 104.879 135.559 104.947 134.88H102.028C101.893 134.88 101.782 134.846 101.697 134.778C101.621 134.701 101.582 134.603 101.582 134.484C101.582 134.366 101.621 134.272 101.697 134.204C101.782 134.128 101.893 134.089 102.028 134.089H104.935C104.841 133.427 104.582 132.895 104.157 132.496C103.732 132.088 103.201 131.884 102.564 131.884C102.19 131.884 101.85 131.957 101.544 132.101C101.238 132.237 100.958 132.445 100.703 132.726C100.584 132.853 100.461 132.917 100.333 132.917C100.248 132.917 100.168 132.891 100.091 132.84C99.9466 132.738 99.8744 132.619 99.8744 132.483C99.8744 132.381 99.9084 132.292 99.9764 132.216C100.639 131.4 101.502 130.992 102.564 130.992C103.201 130.992 103.775 131.145 104.285 131.451C104.794 131.757 105.194 132.182 105.483 132.726C105.772 133.261 105.916 133.868 105.916 134.548C105.916 135.211 105.763 135.814 105.457 136.358C105.16 136.893 104.748 137.318 104.221 137.633C103.694 137.939 103.099 138.092 102.436 138.092C101.502 138.092 100.728 137.807 100.117 137.238C100.032 137.161 99.9891 137.068 99.9891 136.957Z" fill="white"/>
<path d="M113.279 137.276C113.364 137.378 113.407 137.48 113.407 137.582C113.407 137.692 113.356 137.798 113.254 137.9C113.152 137.985 113.037 138.028 112.91 138.028C112.782 138.028 112.672 137.981 112.578 137.888L109.914 134.969H108.806V137.544C108.806 137.688 108.759 137.807 108.665 137.9C108.572 137.985 108.453 138.028 108.308 138.028C108.164 138.028 108.049 137.985 107.964 137.9C107.879 137.807 107.837 137.688 107.837 137.544V131.553C107.837 131.408 107.879 131.29 107.964 131.196C108.049 131.103 108.164 131.056 108.308 131.056C108.453 131.056 108.572 131.103 108.665 131.196C108.759 131.29 108.806 131.408 108.806 131.553V134.077H109.94L112.451 131.209C112.544 131.107 112.663 131.056 112.808 131.056C112.918 131.056 113.016 131.09 113.101 131.158C113.211 131.243 113.267 131.353 113.267 131.489C113.267 131.608 113.224 131.71 113.139 131.795L110.756 134.497L113.279 137.276Z" fill="white"/>
<path d="M117.342 130.992C118.404 130.992 119.266 131.4 119.929 132.216C119.997 132.292 120.031 132.381 120.031 132.483C120.031 132.619 119.959 132.738 119.814 132.84C119.738 132.891 119.657 132.917 119.572 132.917C119.445 132.917 119.322 132.853 119.203 132.726C118.948 132.445 118.667 132.237 118.361 132.101C118.055 131.957 117.716 131.884 117.342 131.884C116.874 131.884 116.458 131.999 116.093 132.228C115.727 132.449 115.443 132.764 115.239 133.172C115.043 133.58 114.945 134.038 114.945 134.548C114.945 135.05 115.052 135.504 115.264 135.912C115.477 136.311 115.774 136.626 116.156 136.855C116.539 137.085 116.976 137.199 117.469 137.199C118.149 137.199 118.697 137.017 119.113 136.651C119.224 136.558 119.339 136.511 119.458 136.511C119.559 136.511 119.653 136.545 119.738 136.613C119.857 136.715 119.916 136.83 119.916 136.957C119.916 137.068 119.874 137.161 119.789 137.238C119.177 137.807 118.404 138.092 117.469 138.092C116.806 138.092 116.212 137.939 115.685 137.633C115.158 137.318 114.742 136.893 114.436 136.358C114.138 135.814 113.99 135.211 113.99 134.548C113.99 133.868 114.134 133.261 114.423 132.726C114.712 132.182 115.111 131.757 115.621 131.451C116.131 131.145 116.704 130.992 117.342 130.992Z" fill="white"/>
<path d="M125.253 130.979C125.856 130.979 126.396 131.107 126.872 131.362C127.356 131.617 127.734 131.991 128.006 132.483C128.278 132.968 128.414 133.55 128.414 134.23V137.544C128.414 137.679 128.367 137.794 128.274 137.888C128.18 137.981 128.066 138.028 127.93 138.028C127.785 138.028 127.666 137.981 127.573 137.888C127.479 137.794 127.433 137.679 127.433 137.544V134.23C127.433 133.473 127.22 132.9 126.795 132.509C126.379 132.109 125.831 131.91 125.151 131.91C124.735 131.91 124.357 131.991 124.017 132.152C123.685 132.313 123.422 132.539 123.227 132.828C123.031 133.108 122.933 133.422 122.933 133.771V137.544C122.933 137.688 122.887 137.807 122.793 137.9C122.708 137.985 122.593 138.028 122.449 138.028C122.305 138.028 122.186 137.985 122.092 137.9C121.999 137.807 121.952 137.688 121.952 137.544V131.553C121.952 131.408 121.999 131.29 122.092 131.196C122.186 131.103 122.305 131.056 122.449 131.056C122.593 131.056 122.708 131.103 122.793 131.196C122.887 131.29 122.933 131.408 122.933 131.553V131.986C123.214 131.672 123.554 131.425 123.953 131.247C124.352 131.069 124.786 130.979 125.253 130.979Z" fill="white"/>
<path d="M133.548 130.992C134.176 130.992 134.733 131.141 135.217 131.438C135.702 131.727 136.076 132.131 136.339 132.649C136.611 133.167 136.747 133.758 136.747 134.421C136.747 134.557 136.704 134.667 136.619 134.752C136.534 134.829 136.424 134.867 136.288 134.867H131.139C131.207 135.564 131.479 136.129 131.954 136.562C132.43 136.995 133.025 137.212 133.739 137.212C134.045 137.212 134.351 137.161 134.656 137.059C134.971 136.949 135.222 136.813 135.409 136.651C135.519 136.566 135.634 136.524 135.753 136.524C135.846 136.524 135.94 136.558 136.033 136.626C136.144 136.728 136.199 136.842 136.199 136.97C136.199 137.08 136.152 137.178 136.059 137.263C135.778 137.501 135.421 137.701 134.988 137.862C134.555 138.015 134.138 138.092 133.739 138.092C133.059 138.092 132.451 137.943 131.916 137.645C131.381 137.34 130.96 136.919 130.654 136.384C130.357 135.84 130.208 135.228 130.208 134.548C130.208 133.86 130.348 133.248 130.629 132.713C130.918 132.169 131.313 131.748 131.814 131.451C132.324 131.145 132.902 130.992 133.548 130.992ZM133.548 131.872C132.902 131.872 132.366 132.071 131.942 132.471C131.517 132.87 131.258 133.397 131.164 134.051H135.829C135.761 133.397 135.523 132.87 135.115 132.471C134.707 132.071 134.185 131.872 133.548 131.872Z" fill="white"/>
<path d="M141.95 130.992C142.613 130.992 143.212 131.149 143.748 131.464C144.291 131.77 144.716 132.194 145.022 132.738C145.337 133.282 145.494 133.885 145.494 134.548C145.494 135.211 145.341 135.814 145.035 136.358C144.738 136.893 144.325 137.318 143.799 137.633C143.28 137.939 142.698 138.092 142.052 138.092C141.5 138.092 140.994 137.977 140.536 137.747C140.077 137.51 139.699 137.187 139.401 136.779V140.513C139.401 140.658 139.355 140.777 139.261 140.87C139.168 140.964 139.049 141.01 138.904 141.01C138.76 141.01 138.641 140.964 138.547 140.87C138.462 140.777 138.42 140.658 138.42 140.513V137.658C138.411 137.633 138.407 137.594 138.407 137.544V134.548C138.407 133.885 138.56 133.282 138.866 132.738C139.18 132.194 139.605 131.77 140.141 131.464C140.684 131.149 141.288 130.992 141.95 130.992ZM141.95 137.199C142.435 137.199 142.872 137.085 143.263 136.855C143.663 136.626 143.973 136.311 144.194 135.912C144.423 135.504 144.538 135.05 144.538 134.548C144.538 134.047 144.423 133.597 144.194 133.197C143.973 132.789 143.663 132.471 143.263 132.241C142.872 132.003 142.435 131.884 141.95 131.884C141.466 131.884 141.028 132.003 140.638 132.241C140.247 132.471 139.937 132.789 139.707 133.197C139.486 133.597 139.376 134.047 139.376 134.548C139.376 134.693 139.38 134.799 139.389 134.867C139.397 134.884 139.401 134.905 139.401 134.931C139.486 135.593 139.762 136.137 140.23 136.562C140.706 136.987 141.279 137.199 141.95 137.199Z" fill="white"/>
<path d="M154.76 130.979C155.262 130.979 155.704 131.098 156.086 131.336C156.477 131.574 156.779 131.914 156.991 132.356C157.212 132.789 157.322 133.295 157.322 133.873V137.544C157.322 137.688 157.276 137.807 157.182 137.9C157.097 137.985 156.983 138.028 156.838 138.028C156.694 138.028 156.575 137.985 156.481 137.9C156.388 137.807 156.341 137.688 156.341 137.544V133.873C156.341 133.269 156.184 132.794 155.869 132.445C155.563 132.088 155.16 131.91 154.659 131.91C154.123 131.91 153.69 132.088 153.358 132.445C153.027 132.802 152.866 133.269 152.874 133.847V137.544C152.874 137.688 152.827 137.807 152.734 137.9C152.649 137.985 152.534 138.028 152.39 138.028C152.245 138.028 152.126 137.985 152.033 137.9C151.939 137.807 151.893 137.688 151.893 137.544V133.873C151.893 133.269 151.735 132.794 151.421 132.445C151.115 132.088 150.712 131.91 150.21 131.91C149.683 131.91 149.25 132.084 148.91 132.432C148.57 132.781 148.4 133.227 148.4 133.771V137.544C148.4 137.688 148.354 137.807 148.26 137.9C148.175 137.985 148.06 138.028 147.916 138.028C147.771 138.028 147.652 137.985 147.559 137.9C147.466 137.807 147.419 137.688 147.419 137.544V131.553C147.419 131.408 147.466 131.29 147.559 131.196C147.652 131.103 147.771 131.056 147.916 131.056C148.06 131.056 148.175 131.103 148.26 131.196C148.354 131.29 148.4 131.408 148.4 131.553V131.833C148.638 131.561 148.919 131.353 149.241 131.209C149.573 131.056 149.93 130.979 150.312 130.979C150.78 130.979 151.2 131.086 151.574 131.298C151.948 131.51 152.245 131.808 152.466 132.19C152.713 131.808 153.031 131.51 153.422 131.298C153.822 131.086 154.268 130.979 154.76 130.979Z" fill="white"/>
<path d="M165.33 131.056C165.475 131.056 165.594 131.103 165.687 131.196C165.781 131.281 165.827 131.396 165.827 131.54V137.531C165.827 137.675 165.781 137.794 165.687 137.888C165.594 137.981 165.475 138.028 165.33 138.028C165.186 138.028 165.067 137.981 164.973 137.888C164.888 137.794 164.846 137.675 164.846 137.531V137.097C164.565 137.412 164.226 137.658 163.826 137.837C163.427 138.015 162.993 138.104 162.526 138.104C161.923 138.104 161.379 137.977 160.895 137.722C160.419 137.467 160.045 137.097 159.773 136.613C159.501 136.12 159.365 135.534 159.365 134.854V131.54C159.365 131.404 159.412 131.29 159.505 131.196C159.599 131.103 159.714 131.056 159.849 131.056C159.994 131.056 160.113 131.103 160.206 131.196C160.3 131.29 160.347 131.404 160.347 131.54V134.854C160.347 135.61 160.555 136.188 160.971 136.588C161.396 136.978 161.948 137.174 162.628 137.174C163.044 137.174 163.418 137.093 163.75 136.932C164.09 136.77 164.357 136.549 164.553 136.269C164.748 135.98 164.846 135.661 164.846 135.313V131.54C164.846 131.396 164.888 131.281 164.973 131.196C165.067 131.103 165.186 131.056 165.33 131.056Z" fill="white"/>
<path d="M171.547 134.344C171.98 134.438 172.329 134.642 172.592 134.956C172.864 135.262 173 135.627 173 136.052C173 136.443 172.881 136.8 172.643 137.123C172.414 137.437 172.095 137.688 171.687 137.875C171.279 138.053 170.825 138.143 170.324 138.143C169.78 138.143 169.261 138.036 168.769 137.824C168.276 137.603 167.902 137.331 167.647 137.008C167.579 136.932 167.545 136.838 167.545 136.728C167.545 136.558 167.621 136.43 167.774 136.345C167.834 136.311 167.906 136.294 167.991 136.294C168.169 136.294 168.318 136.358 168.437 136.486C168.658 136.715 168.93 136.902 169.253 137.046C169.584 137.182 169.937 137.25 170.311 137.25C170.821 137.25 171.233 137.144 171.547 136.932C171.87 136.711 172.031 136.409 172.031 136.027C172.031 135.687 171.908 135.402 171.662 135.173C171.415 134.943 171.101 134.82 170.719 134.803H170.069C169.907 134.803 169.775 134.765 169.674 134.688C169.572 134.603 169.521 134.501 169.521 134.383C169.521 134.264 169.572 134.166 169.674 134.089C169.775 134.013 169.907 133.975 170.069 133.975H170.719C171.033 133.966 171.288 133.864 171.483 133.669C171.679 133.465 171.777 133.21 171.777 132.904C171.777 132.598 171.641 132.347 171.369 132.152C171.097 131.957 170.74 131.859 170.298 131.859C169.533 131.859 168.96 132.101 168.577 132.585C168.467 132.713 168.331 132.777 168.169 132.777C168.084 132.777 167.995 132.751 167.902 132.7C167.774 132.624 167.711 132.513 167.711 132.369C167.711 132.267 167.749 132.165 167.825 132.063C168.106 131.731 168.458 131.464 168.883 131.26C169.308 131.056 169.775 130.954 170.285 130.954C170.744 130.954 171.161 131.039 171.534 131.209C171.917 131.37 172.214 131.595 172.427 131.884C172.639 132.165 172.745 132.479 172.745 132.828C172.745 133.176 172.635 133.486 172.414 133.758C172.193 134.03 171.904 134.225 171.547 134.344Z" fill="white"/>
</svg>
