<svg width="202" height="45" viewBox="0 0 202 45" fill="none" xmlns="http://www.w3.org/2000/svg">
<path fill-rule="evenodd" clip-rule="evenodd" d="M0.380823 13.2073C0.563415 13.3661 0.792947 13.4606 1.03428 13.4764H1.20392H1.21129H52.7888H52.7961H52.9658C53.2071 13.4606 53.4366 13.3661 53.6192 13.2073C53.8018 13.0484 53.9274 12.834 53.9768 12.5968C54.0261 12.3597 53.9965 12.1129 53.8925 11.8942C53.7885 11.6755 53.6158 11.4969 53.4009 11.3859L27.5236 0.0913003C27.3865 0.031087 27.2383 0 27.0885 0C27.0589 0 27.0294 0.00121335 27 0.00362493C26.9706 0.00121335 26.9411 0 26.9115 0C26.7618 0 26.6136 0.031087 26.4764 0.0913003L0.599184 11.3859C0.384236 11.4969 0.211537 11.6755 0.107527 11.8942C0.00351605 12.1129 -0.0260743 12.3597 0.0232845 12.5968C0.0726433 12.834 0.198232 13.0484 0.380823 13.2073ZM27 2.31327L6.43247 11.2972H47.5676L27 2.31327ZM7.37247 14.9797H7.56468H46.4354H46.6276C49.4041 14.9797 51.6644 17.0221 51.6644 19.53C51.6644 22.0378 49.4041 24.0803 46.6276 24.0803C46.5955 24.0803 46.5634 24.0801 46.5315 24.0795C46.4995 24.0801 46.4675 24.0803 46.4354 24.0803C43.6589 24.0803 41.4023 22.0378 41.4023 19.53C41.4023 19.241 41.5169 18.9639 41.7208 18.7595C41.9248 18.5552 42.2015 18.4404 42.49 18.4404C42.7785 18.4404 43.0552 18.5552 43.2591 18.7595C43.2807 18.7811 43.3012 18.8035 43.3208 18.8267C43.3444 18.8434 43.3674 18.8611 43.3897 18.8797C43.5884 19.0453 43.723 19.2754 43.77 19.53C43.77 20.8108 45.0013 21.8577 46.5316 21.8999C48.0654 21.8577 49.2967 20.8108 49.2967 19.53C49.2967 18.2225 48.0135 17.1588 46.4354 17.1588H7.56468C5.98653 17.1588 4.70336 18.2225 4.70336 19.53C4.70336 20.8108 5.9347 21.8577 7.46846 21.8999C8.99876 21.8577 10.2301 20.8108 10.2301 19.53C10.2771 19.2754 10.4116 19.0453 10.6103 18.8797C10.6327 18.8611 10.6557 18.8434 10.6793 18.8267C10.6988 18.8035 10.7194 18.7811 10.7409 18.7595C10.9449 18.5552 11.2216 18.4404 11.5101 18.4404C11.7985 18.4404 12.0752 18.5552 12.2792 18.7595C12.4832 18.9639 12.5978 19.241 12.5978 19.53C12.5978 22.0378 10.3412 24.0803 7.56468 24.0803C7.53257 24.0803 7.50054 24.0801 7.46857 24.0795C7.43661 24.0801 7.40457 24.0803 7.37247 24.0803C4.59596 24.0803 2.33566 22.0378 2.33566 19.53C2.33566 17.0221 4.59596 14.9797 7.37247 14.9797ZM30.992 37.6353C30.6986 37.6353 30.4173 37.5186 30.2098 37.3108C30.0024 37.103 29.8858 36.8211 29.8858 36.5273V22.8245C29.9328 22.5699 30.0674 22.3399 30.2661 22.1742C30.4648 22.0086 30.7151 21.918 30.9736 21.918C31.0482 21.918 31.1221 21.9255 31.1943 21.9402C31.2665 21.9255 31.3404 21.918 31.415 21.918C31.6735 21.918 31.9238 22.0086 32.1225 22.1742C32.3212 22.3399 32.4558 22.5699 32.5028 22.8245V36.5273C32.5028 36.8211 32.3862 37.103 32.1788 37.3108C31.9713 37.5186 31.69 37.6353 31.3966 37.6353C31.3281 37.6331 31.2604 37.6244 31.1943 37.6098C31.1282 37.6244 31.0605 37.6331 30.992 37.6353ZM21.8213 37.3108C22.0287 37.5186 22.3101 37.6353 22.6035 37.6353C22.672 37.6331 22.7397 37.6244 22.8058 37.6098C22.8718 37.6244 22.9395 37.6331 23.008 37.6353C23.3014 37.6353 23.5828 37.5186 23.7902 37.3108C23.9977 37.103 24.1142 36.8211 24.1142 36.5273V22.8245C24.0672 22.5699 23.9327 22.3399 23.734 22.1742C23.5353 22.0086 23.285 21.918 23.0265 21.918C22.9519 21.918 22.878 21.9255 22.8058 21.9402C22.7336 21.9255 22.6596 21.918 22.585 21.918C22.3266 21.918 22.0762 22.0086 21.8775 22.1742C21.6788 22.3399 21.5443 22.5699 21.4973 22.8245V36.5273C21.4973 36.8211 21.6138 37.103 21.8213 37.3108ZM28.1968 20.9482V42.8209H46.6769H46.917C47.1712 42.8679 47.4009 43.0027 47.5662 43.2017C47.7316 43.4008 47.8221 43.6515 47.8221 43.9104C47.8221 44.1693 47.7316 44.4201 47.5662 44.6191C47.4009 44.8182 47.1712 44.9529 46.917 45H46.6769H7.32317H7.08302C6.82884 44.9529 6.59914 44.8182 6.43381 44.6191C6.26848 44.4201 6.17796 44.1693 6.17796 43.9104C6.17796 43.6515 6.26848 43.4008 6.43381 43.2017C6.59914 43.0027 6.82884 42.8679 7.08302 42.8209H7.32317H25.8033V20.9482H19.0597H18.8343C18.6747 20.9778 18.5106 20.9718 18.3536 20.9307C18.1965 20.8896 18.0505 20.8144 17.9257 20.7104C17.8009 20.6064 17.7006 20.4762 17.6317 20.329C17.5628 20.1818 17.527 20.0212 17.527 19.8586C17.527 19.6961 17.5628 19.5355 17.6317 19.3883C17.7006 19.2411 17.8009 19.1109 17.9257 19.0069C18.0505 18.9029 18.1965 18.8277 18.3536 18.7866C18.5106 18.7455 18.6747 18.7395 18.8343 18.7691H19.0597H34.9403H35.1657C35.3253 18.7395 35.4895 18.7455 35.6465 18.7866C35.8035 18.8277 35.9496 18.9029 36.0744 19.0069C36.1991 19.1109 36.2995 19.2411 36.3684 19.3883C36.4373 19.5355 36.473 19.6961 36.473 19.8586C36.473 20.0212 36.4373 20.1818 36.3684 20.329C36.2995 20.4762 36.1991 20.6064 36.0744 20.7104C35.9496 20.8144 35.8035 20.8896 35.6465 20.9307C35.4895 20.9718 35.3253 20.9778 35.1657 20.9482H34.9403H28.1968Z" fill="white"/>
<path d="M72.297 1.09721C71.2759 1.05917 70.2575 1.22609 69.3023 1.58807C68.3472 1.95004 67.4748 2.49968 66.737 3.20432C65.3803 4.72535 64.6309 6.68976 64.6309 8.72495C64.6309 10.7601 65.3803 12.7245 66.737 14.2456C67.4746 14.9505 68.3469 15.5004 69.3021 15.8624C70.2573 16.2244 71.2758 16.3911 72.297 16.3527C73.3142 16.3934 74.3291 16.2276 75.2801 15.8654C76.231 15.5032 77.0982 14.9521 77.8289 14.2456C79.1861 12.7234 79.9358 10.7578 79.9358 8.72143C79.9358 6.68506 79.1861 4.71947 77.8289 3.1973C77.0983 2.49106 76.231 1.94061 75.2799 1.57954C74.3288 1.21847 73.3139 1.05435 72.297 1.09721ZM76.3913 8.70388C76.4148 9.49457 76.2146 10.2759 75.8135 10.9585C75.4518 11.5567 74.9314 12.0438 74.3097 12.366C73.688 12.6883 72.9891 12.8331 72.29 12.7846C71.5893 12.7997 70.8954 12.6455 70.2675 12.3351C69.5849 12.0217 69.0158 11.5064 68.6376 10.8591C68.2593 10.2119 68.0902 9.4643 68.1534 8.71793C68.1283 8.17447 68.2173 7.63178 68.4145 7.12451C68.6117 6.61724 68.913 6.15655 69.2989 5.77186C69.6849 5.38717 70.1471 5.08695 70.656 4.89036C71.165 4.69377 71.7095 4.60514 72.2547 4.63013C73.2937 4.60148 74.3035 4.9739 75.0735 5.66964C75.5056 6.04604 75.848 6.51368 76.076 7.03855C76.3039 7.56341 76.4116 8.13231 76.3913 8.70388Z" fill="white"/>
<path d="M90.4148 1.09739C89.3937 1.06014 88.3755 1.22744 87.4205 1.58938C86.4655 1.95131 85.593 2.50051 84.8547 3.2045C83.4994 4.72622 82.751 6.69036 82.751 8.72512C82.751 10.7599 83.4994 12.724 84.8547 14.2457C85.591 14.9505 86.4621 15.5003 87.4162 15.8623C88.3702 16.2243 89.3876 16.3911 90.4077 16.3529C91.4404 16.397 92.4713 16.2325 93.4384 15.8691C94.4056 15.5056 95.2889 14.9509 96.0353 14.2383C96.7817 13.5256 97.3756 12.6698 97.7814 11.7223C98.1871 10.7748 98.3963 9.7553 98.3963 8.72512C98.3963 7.69494 98.1871 6.67543 97.7814 5.72795C97.3756 4.78047 96.7817 3.92464 96.0353 3.21199C95.2889 2.49933 94.4056 1.9446 93.4384 1.58119C92.4713 1.21778 91.4404 1.05321 90.4077 1.09739H90.4148ZM94.5091 8.70405C94.5347 9.49407 94.3369 10.2754 93.9383 10.9587C93.5754 11.5558 93.0548 12.042 92.4334 12.3641C91.8119 12.6861 91.1136 12.8317 90.4148 12.7848C89.7199 12.7933 89.0333 12.6342 88.4134 12.3212C87.7309 12.0078 87.1618 11.4925 86.7835 10.8453C86.4052 10.1981 86.2362 9.45042 86.2993 8.70405C86.3098 7.91063 86.5487 7.13691 86.9875 6.47482C87.4262 5.81273 88.0465 5.29012 88.7746 4.96909C89.5026 4.64806 90.3078 4.54211 91.0945 4.66384C91.8812 4.78557 92.6163 5.12985 93.2124 5.65577C93.6425 6.03569 93.9821 6.50649 94.2064 7.03384C94.4307 7.5612 94.5341 8.1318 94.5091 8.70405Z" fill="white"/>
<path d="M108.532 1.09739C107.512 1.05949 106.495 1.22652 105.541 1.58851C104.587 1.9505 103.716 2.50006 102.979 3.2045C101.622 4.72552 100.873 6.68993 100.873 8.72512C100.873 10.7603 101.622 12.7247 102.979 14.2457C103.715 14.9505 104.587 15.5003 105.541 15.8623C106.495 16.2243 107.512 16.3911 108.532 16.3529C109.565 16.397 110.596 16.2325 111.563 15.8691C112.53 15.5056 113.413 14.9509 114.16 14.2383C114.906 13.5256 115.5 12.6698 115.906 11.7223C116.312 10.7748 116.521 9.7553 116.521 8.72512C116.521 7.69494 116.312 6.67543 115.906 5.72795C115.5 4.78047 114.906 3.92464 114.16 3.21199C113.413 2.49933 112.53 1.9446 111.563 1.58119C110.596 1.21778 109.565 1.05321 108.532 1.09739ZM112.634 8.70405C112.657 9.49475 112.457 10.2761 112.056 10.9587C111.693 11.5563 111.173 12.043 110.551 12.3651C109.93 12.6873 109.231 12.8325 108.532 12.7848C107.837 12.7924 107.151 12.6334 106.531 12.3212C105.848 12.0078 105.279 11.4925 104.901 10.8453C104.523 10.1981 104.354 9.45042 104.417 8.70405C104.427 7.91063 104.666 7.13691 105.105 6.47482C105.544 5.81273 106.164 5.29012 106.892 4.96909C107.62 4.64806 108.425 4.54211 109.212 4.66384C109.999 4.78557 110.734 5.12985 111.33 5.65577C111.762 6.03438 112.103 6.50478 112.329 7.03232C112.555 7.55987 112.659 8.13113 112.634 8.70405Z" fill="white"/>
<path d="M138.827 12.7286V11.4713H138.905V11.2325H138.806V2.90242C138.831 2.66219 138.801 2.41959 138.719 2.19219C138.638 1.96479 138.507 1.75825 138.336 1.58753C138.164 1.4168 137.957 1.28615 137.729 1.20502C137.501 1.12388 137.257 1.0943 137.016 1.1184C136.779 1.09849 136.54 1.1275 136.315 1.20363C136.089 1.27976 135.882 1.40138 135.706 1.5609C135.549 1.74098 135.43 1.95069 135.356 2.17755C135.282 2.4044 135.255 2.64377 135.276 2.88135V12.7145H127.792C127.411 12.7145 127.277 12.5811 127.277 12.1878V2.89539C127.306 2.65796 127.284 2.41731 127.213 2.18875C127.143 1.96019 127.026 1.74875 126.869 1.56792C126.687 1.40926 126.476 1.28788 126.248 1.21074C126.019 1.1336 125.778 1.10222 125.537 1.1184C125.296 1.09541 125.054 1.12583 124.827 1.20746C124.599 1.28909 124.393 1.41991 124.222 1.59051C124.052 1.7611 123.922 1.96723 123.841 2.19407C123.76 2.42092 123.73 2.66283 123.754 2.90242V14.4353C123.729 14.675 123.759 14.9172 123.84 15.144C123.922 15.3709 124.053 15.5767 124.225 15.7464C124.396 15.9161 124.604 16.0454 124.832 16.1248C125.06 16.2042 125.304 16.2317 125.544 16.2053H136.742V20.3352C136.73 20.5387 136.759 20.7425 136.828 20.9344C136.897 21.1262 137.004 21.3023 137.143 21.452C137.326 21.6124 137.54 21.7348 137.771 21.812C138.002 21.8891 138.246 21.9196 138.489 21.9015C138.742 21.925 138.998 21.8973 139.24 21.8201C139.482 21.7428 139.706 21.6176 139.899 21.452C140.029 21.3066 140.13 21.1367 140.194 20.9522C140.258 20.7677 140.285 20.5723 140.272 20.3774L140.321 14.5618C140.35 14.3108 140.326 14.0567 140.252 13.8152C140.178 13.5736 140.055 13.3496 139.892 13.157C139.602 12.8891 139.223 12.7366 138.827 12.7286Z" fill="white"/>
<path d="M148.602 4.48986H153.908L154.317 4.44772C154.507 4.46345 154.698 4.43905 154.878 4.37611C155.058 4.31317 155.222 4.21311 155.36 4.08249C155.515 3.9041 155.633 3.69671 155.707 3.47241C155.781 3.2481 155.809 3.01138 155.79 2.77608C155.809 2.54293 155.781 2.30834 155.707 2.0863C155.633 1.86427 155.515 1.65933 155.36 1.48372C155.217 1.35618 155.05 1.25823 154.868 1.19553C154.687 1.13284 154.495 1.10665 154.303 1.11849H148.595C147.628 1.09133 146.665 1.25808 145.764 1.60885C144.863 1.95961 144.042 2.48723 143.349 3.16041C142.656 3.83359 142.106 4.63861 141.732 5.52767C141.357 6.41674 141.166 7.37174 141.168 8.33601C141.171 9.30027 141.368 10.2541 141.748 11.141C142.128 12.0279 142.683 12.8297 143.379 13.4988C144.076 14.1679 144.9 14.6907 145.804 15.0362C146.707 15.3817 147.67 15.5428 148.637 15.51H154.31C154.86 15.51 155.79 15.2712 155.79 13.7963C155.79 12.3213 154.86 12.1176 154.303 12.1176H148.588C147.956 12.1447 147.328 12.0016 146.77 11.7032C146.135 11.4079 145.607 10.9255 145.257 10.3213C144.907 9.71705 144.751 9.02013 144.811 8.32481C144.791 7.82227 144.874 7.32099 145.055 6.85135C145.235 6.3817 145.509 5.95347 145.861 5.59259C146.221 5.23646 146.649 4.95551 147.12 4.76618C147.591 4.57684 148.095 4.48291 148.602 4.48986Z" fill="white"/>
<path d="M171.78 2.76202C171.799 2.52561 171.769 2.28779 171.693 2.06315C171.617 1.83851 171.495 1.63177 171.336 1.45561C171.192 1.32764 171.023 1.23045 170.84 1.17005C170.657 1.10964 170.464 1.08731 170.272 1.10442H160.166C159.933 1.07784 159.697 1.10299 159.474 1.17808C159.252 1.25317 159.049 1.37634 158.88 1.53877C158.711 1.70121 158.58 1.89888 158.496 2.11764C158.413 2.3364 158.379 2.57084 158.397 2.80417C158.382 3.03169 158.414 3.25988 158.49 3.47482C158.567 3.68977 158.686 3.88697 158.841 4.05438C159.023 4.2104 159.235 4.32815 159.464 4.40056C159.693 4.47298 159.934 4.49857 160.173 4.4758H162.287C162.618 4.4758 162.844 4.58818 162.844 5.17817V13.8384C162.829 14.2769 162.989 14.7035 163.288 15.0254C163.659 15.3124 164.115 15.4683 164.585 15.4683C165.054 15.4683 165.51 15.3124 165.881 15.0254C166.024 14.8632 166.131 14.6734 166.197 14.468C166.262 14.2625 166.284 14.0458 166.262 13.8314V5.19222C166.297 4.56009 166.607 4.45473 166.875 4.43366H170.335C170.52 4.45517 170.708 4.43683 170.885 4.37988C171.063 4.32293 171.226 4.2287 171.364 4.10354C171.519 3.91895 171.636 3.70514 171.708 3.47473C171.779 3.24431 171.804 3.00197 171.78 2.76202Z" fill="white"/>
<path d="M196.289 3.12719C195.605 2.46325 194.794 1.94278 193.904 1.59655C193.014 1.25032 192.064 1.08535 191.109 1.11139H185.472C185.278 1.09516 185.082 1.11924 184.898 1.1821C184.713 1.24497 184.544 1.34525 184.401 1.47662C184.244 1.65167 184.125 1.85635 184.05 2.07841C183.975 2.30047 183.946 2.53535 183.964 2.76898C183.946 3.00202 183.975 3.2362 184.049 3.45801C184.123 3.67982 184.24 3.88487 184.394 4.06134C184.53 4.18691 184.69 4.28445 184.864 4.34833C185.038 4.41221 185.223 4.44118 185.408 4.43359L185.866 4.47573H191.13C191.641 4.46439 192.148 4.55766 192.621 4.74977C193.094 4.94187 193.522 5.22871 193.879 5.59251C194.179 5.88471 194.419 6.2332 194.584 6.61796H190.743C190.513 6.59383 190.28 6.62115 190.062 6.69793C189.843 6.77471 189.645 6.89903 189.481 7.06183C189.317 7.22464 189.191 7.42183 189.114 7.63908C189.036 7.85632 189.007 8.08815 189.03 8.3177C189.015 8.54037 189.046 8.76375 189.122 8.97397C189.197 9.1842 189.314 9.3768 189.467 9.53982C189.651 9.69415 189.863 9.81084 190.091 9.88316C190.32 9.95549 190.56 9.98202 190.799 9.96124H194.633C194.327 10.7273 193.736 11.3462 192.984 11.6891C192.41 11.9709 191.777 12.1084 191.138 12.0894H185.458C184.901 12.0894 183.964 12.3212 183.964 13.7821C183.964 15.2431 184.901 15.4748 185.465 15.4819H191.102C192.522 15.4471 193.901 15.0042 195.073 14.2064C196.246 13.4086 197.162 12.2901 197.711 10.9853C198.261 9.68063 198.42 8.2454 198.17 6.85247C197.921 5.45954 197.272 4.1683 196.303 3.13422L196.289 3.12719Z" fill="white"/>
<path d="M173.52 12.9182H173.95C174.119 12.9229 174.287 12.8922 174.444 12.8281C174.6 12.7639 174.742 12.6678 174.859 12.546L178.699 8.52842L178.763 8.47223V11.8015C178.739 11.9486 178.75 12.0991 178.794 12.2414C178.839 12.3837 178.915 12.5139 179.018 12.622C179.121 12.73 179.247 12.8129 179.388 12.8643C179.528 12.9157 179.678 12.9341 179.827 12.9182C179.977 12.9348 180.128 12.9177 180.27 12.8682C180.412 12.8188 180.542 12.7382 180.648 12.6324C180.755 12.5267 180.837 12.3984 180.887 12.257C180.938 12.1156 180.956 11.9648 180.94 11.8155V5.33264C180.954 5.21459 180.941 5.09502 180.904 4.9823C180.866 4.86958 180.804 4.76645 180.722 4.68012C180.64 4.5938 180.54 4.52637 180.43 4.48257C180.319 4.43877 180.2 4.41967 180.081 4.42658H179.7C179.355 4.43852 179.029 4.58478 178.791 4.83396L174.655 9.28698V5.54335C174.676 5.39637 174.663 5.24652 174.617 5.10519C174.572 4.96387 174.494 4.83479 174.391 4.72778C174.288 4.62078 174.161 4.53866 174.021 4.48768C173.881 4.43671 173.732 4.41821 173.583 4.4336C173.436 4.42128 173.287 4.44077 173.147 4.49073C173.007 4.54069 172.88 4.61996 172.774 4.72318C172.668 4.82641 172.585 4.95118 172.531 5.08904C172.478 5.22691 172.454 5.37465 172.463 5.52228V11.9068C172.45 12.0465 172.469 12.1873 172.518 12.3188C172.567 12.4503 172.646 12.569 172.747 12.6661C172.849 12.7633 172.971 12.8364 173.105 12.8801C173.238 12.9237 173.38 12.9368 173.52 12.9182Z" fill="white"/>
<path d="M181.483 14.056H171.899C171.603 14.0789 171.327 14.212 171.126 14.4288C170.925 14.6456 170.813 14.9301 170.813 15.2255C170.813 15.5209 170.925 15.8054 171.126 16.0222C171.327 16.239 171.603 16.3721 171.899 16.3949H181.483C181.644 16.4074 181.807 16.3865 181.96 16.3334C182.113 16.2803 182.254 16.1962 182.373 16.0864C182.492 15.9765 182.587 15.8434 182.652 15.6952C182.717 15.5471 182.751 15.3872 182.751 15.2255C182.751 15.0638 182.717 14.9039 182.652 14.7557C182.587 14.6076 182.492 14.4744 182.373 14.3646C182.254 14.2548 182.113 14.1707 181.96 14.1176C181.807 14.0645 181.644 14.0435 181.483 14.056Z" fill="white"/>
<path d="M70.45 30.2396C70.57 30.2396 70.6633 30.2763 70.73 30.3496C70.8033 30.4163 70.84 30.5096 70.84 30.6296V32.2296C70.84 32.3496 70.8067 32.443 70.74 32.5096C70.68 32.583 70.5933 32.6196 70.48 32.6196C70.3667 32.6196 70.2733 32.583 70.2 32.5096C70.1333 32.443 70.1 32.3496 70.1 32.2296V30.9096H69.85C69.5833 30.9096 69.39 30.8496 69.27 30.7296C69.1567 30.6096 69.1 30.4196 69.1 30.1596V30.1196C68.8933 30.3863 68.6333 30.5963 68.32 30.7496C68.0067 30.8963 67.66 30.9696 67.28 30.9696C66.8 30.9696 66.37 30.863 65.99 30.6496C65.6167 30.4296 65.3233 30.1263 65.11 29.7396C64.9033 29.353 64.8 28.913 64.8 28.4196V25.8196C64.8 25.7063 64.8333 25.6163 64.9 25.5496C64.9733 25.4763 65.0667 25.4396 65.18 25.4396C65.2933 25.4396 65.3867 25.4763 65.46 25.5496C65.5333 25.6163 65.57 25.7063 65.57 25.8196V28.4196C65.57 28.7663 65.6467 29.0796 65.8 29.3596C65.9533 29.633 66.1633 29.8496 66.43 30.0096C66.7033 30.163 67.0133 30.2396 67.36 30.2396C67.8667 30.2396 68.2833 30.103 68.61 29.8296C68.9367 29.5563 69.1 29.2063 69.1 28.7796V25.8196C69.1 25.7063 69.1333 25.6163 69.2 25.5496C69.2733 25.4763 69.3667 25.4396 69.48 25.4396C69.5933 25.4396 69.6867 25.4763 69.76 25.5496C69.8333 25.6163 69.87 25.7063 69.87 25.8196V30.2396H70.45ZM74.2808 25.3896C74.7741 25.3896 75.2108 25.5063 75.5908 25.7396C75.9708 25.9663 76.2641 26.283 76.4708 26.6896C76.6841 27.0963 76.7908 27.5596 76.7908 28.0796C76.7908 28.1863 76.7574 28.273 76.6908 28.3396C76.6241 28.3996 76.5374 28.4296 76.4308 28.4296H72.3908C72.4441 28.9763 72.6574 29.4196 73.0308 29.7596C73.4041 30.0996 73.8708 30.2696 74.4308 30.2696C74.6708 30.2696 74.9108 30.2296 75.1508 30.1496C75.3974 30.063 75.5941 29.9563 75.7408 29.8296C75.8274 29.763 75.9174 29.7296 76.0108 29.7296C76.0841 29.7296 76.1574 29.7563 76.2308 29.8096C76.3174 29.8896 76.3608 29.9796 76.3608 30.0796C76.3608 30.1663 76.3241 30.243 76.2508 30.3096C76.0308 30.4963 75.7508 30.653 75.4108 30.7796C75.0708 30.8996 74.7441 30.9596 74.4308 30.9596C73.8974 30.9596 73.4208 30.843 73.0008 30.6096C72.5808 30.3696 72.2508 30.0396 72.0108 29.6196C71.7774 29.193 71.6608 28.713 71.6608 28.1796C71.6608 27.6396 71.7708 27.1596 71.9908 26.7396C72.2174 26.313 72.5274 25.983 72.9208 25.7496C73.3208 25.5096 73.7741 25.3896 74.2808 25.3896ZM74.2808 26.0796C73.7741 26.0796 73.3541 26.2363 73.0208 26.5496C72.6874 26.863 72.4841 27.2763 72.4108 27.7896H76.0708C76.0174 27.2763 75.8308 26.863 75.5108 26.5496C75.1908 26.2363 74.7808 26.0796 74.2808 26.0796ZM82.7734 25.4396C82.8867 25.4396 82.9767 25.4763 83.0434 25.5496C83.11 25.623 83.1434 25.7163 83.1434 25.8296V30.5196C83.1434 30.633 83.11 30.7263 83.0434 30.7996C82.9767 30.873 82.8867 30.9096 82.7734 30.9096C82.66 30.9096 82.5667 30.873 82.4934 30.7996C82.42 30.7263 82.3834 30.633 82.3834 30.5196V28.4996H78.8534V30.5196C78.8534 30.633 78.8167 30.7263 78.7434 30.7996C78.6767 30.873 78.5867 30.9096 78.4734 30.9096C78.36 30.9096 78.2667 30.873 78.1934 30.7996C78.1267 30.7263 78.0934 30.633 78.0934 30.5196V25.8296C78.0934 25.7163 78.1267 25.623 78.1934 25.5496C78.2667 25.4763 78.36 25.4396 78.4734 25.4396C78.5867 25.4396 78.6767 25.4763 78.7434 25.5496C78.8167 25.623 78.8534 25.7163 78.8534 25.8296V27.8096H82.3834V25.8296C82.3834 25.7163 82.42 25.623 82.4934 25.5496C82.5667 25.4763 82.66 25.4396 82.7734 25.4396ZM90.6991 25.3796C91.0924 25.3796 91.4391 25.473 91.7391 25.6596C92.0457 25.8463 92.2824 26.113 92.4491 26.4596C92.6224 26.7996 92.7091 27.1963 92.7091 27.6496V30.5296C92.7091 30.643 92.6724 30.7363 92.5991 30.8096C92.5324 30.8763 92.4424 30.9096 92.3291 30.9096C92.2157 30.9096 92.1224 30.8763 92.0491 30.8096C91.9757 30.7363 91.9391 30.643 91.9391 30.5296V27.6496C91.9391 27.1763 91.8157 26.803 91.5691 26.5296C91.3291 26.2496 91.0124 26.1096 90.6191 26.1096C90.1991 26.1096 89.8591 26.2496 89.5991 26.5296C89.3391 26.8096 89.2124 27.1763 89.2191 27.6296V27.6496V30.5296C89.2191 30.643 89.1824 30.7363 89.1091 30.8096C89.0424 30.8763 88.9524 30.9096 88.8391 30.9096C88.7257 30.9096 88.6324 30.8763 88.5591 30.8096C88.4857 30.7363 88.4491 30.643 88.4491 30.5296V27.6496C88.4491 27.1763 88.3257 26.803 88.0791 26.5296C87.8391 26.2496 87.5224 26.1096 87.1291 26.1096C86.7157 26.1096 86.3757 26.2463 86.1091 26.5196C85.8424 26.793 85.7091 27.143 85.7091 27.5696V30.5296C85.7091 30.643 85.6724 30.7363 85.5991 30.8096C85.5324 30.8763 85.4424 30.9096 85.3291 30.9096C85.2157 30.9096 85.1224 30.8763 85.0491 30.8096C84.9757 30.7363 84.9391 30.643 84.9391 30.5296V25.8296C84.9391 25.7163 84.9757 25.623 85.0491 25.5496C85.1224 25.4763 85.2157 25.4396 85.3291 25.4396C85.4424 25.4396 85.5324 25.4763 85.5991 25.5496C85.6724 25.623 85.7091 25.7163 85.7091 25.8296V26.0496C85.8957 25.8363 86.1157 25.673 86.3691 25.5596C86.6291 25.4396 86.9091 25.3796 87.2091 25.3796C87.5757 25.3796 87.9057 25.463 88.1991 25.6296C88.4924 25.7963 88.7257 26.0296 88.8991 26.3296C89.0924 26.0296 89.3424 25.7963 89.6491 25.6296C89.9624 25.463 90.3124 25.3796 90.6991 25.3796ZM97.1917 25.3896C97.7117 25.3896 98.1817 25.513 98.6017 25.7596C99.0284 25.9996 99.3617 26.333 99.6017 26.7596C99.8484 27.1863 99.9717 27.6596 99.9717 28.1796C99.9717 28.6996 99.8517 29.173 99.6117 29.5996C99.3784 30.0196 99.0551 30.353 98.6417 30.5996C98.2351 30.8396 97.7784 30.9596 97.2717 30.9596C96.8384 30.9596 96.4417 30.8696 96.0817 30.6896C95.7217 30.503 95.4251 30.2496 95.1917 29.9296V32.8596C95.1917 32.973 95.1551 33.0663 95.0817 33.1396C95.0084 33.213 94.9151 33.2496 94.8017 33.2496C94.6884 33.2496 94.5951 33.213 94.5217 33.1396C94.4551 33.0663 94.4217 32.973 94.4217 32.8596V30.6196C94.4151 30.5996 94.4117 30.5696 94.4117 30.5296V28.1796C94.4117 27.6596 94.5317 27.1863 94.7717 26.7596C95.0184 26.333 95.3517 25.9996 95.7717 25.7596C96.1984 25.513 96.6717 25.3896 97.1917 25.3896ZM97.1917 30.2596C97.5717 30.2596 97.9151 30.1696 98.2217 29.9896C98.5351 29.8096 98.7784 29.563 98.9517 29.2496C99.1317 28.9296 99.2217 28.573 99.2217 28.1796C99.2217 27.7863 99.1317 27.433 98.9517 27.1196C98.7784 26.7996 98.5351 26.5496 98.2217 26.3696C97.9151 26.183 97.5717 26.0896 97.1917 26.0896C96.8117 26.0896 96.4684 26.183 96.1617 26.3696C95.8551 26.5496 95.6117 26.7996 95.4317 27.1196C95.2584 27.433 95.1717 27.7863 95.1717 28.1796C95.1717 28.293 95.1751 28.3763 95.1817 28.4296C95.1884 28.443 95.1917 28.4596 95.1917 28.4796C95.2584 28.9996 95.4751 29.4263 95.8417 29.7596C96.2151 30.093 96.6651 30.2596 97.1917 30.2596ZM106.752 25.3896C107.585 25.3896 108.262 25.7096 108.782 26.3496C108.835 26.4096 108.862 26.4796 108.862 26.5596C108.862 26.6663 108.805 26.7596 108.692 26.8396C108.632 26.8796 108.568 26.8996 108.502 26.8996C108.402 26.8996 108.305 26.8496 108.212 26.7496C108.012 26.5296 107.792 26.3663 107.552 26.2596C107.312 26.1463 107.045 26.0896 106.752 26.0896C106.385 26.0896 106.058 26.1796 105.772 26.3596C105.485 26.533 105.262 26.7796 105.102 27.0996C104.948 27.4196 104.872 27.7796 104.872 28.1796C104.872 28.573 104.955 28.9296 105.122 29.2496C105.288 29.563 105.522 29.8096 105.822 29.9896C106.122 30.1696 106.465 30.2596 106.852 30.2596C107.385 30.2596 107.815 30.1163 108.142 29.8296C108.228 29.7563 108.318 29.7196 108.412 29.7196C108.492 29.7196 108.565 29.7463 108.632 29.7996C108.725 29.8796 108.772 29.9696 108.772 30.0696C108.772 30.1563 108.738 30.2296 108.672 30.2896C108.192 30.7363 107.585 30.9596 106.852 30.9596C106.332 30.9596 105.865 30.8396 105.452 30.5996C105.038 30.353 104.712 30.0196 104.472 29.5996C104.238 29.173 104.122 28.6996 104.122 28.1796C104.122 27.6463 104.235 27.1696 104.462 26.7496C104.688 26.323 105.002 25.9896 105.402 25.7496C105.802 25.5096 106.252 25.3896 106.752 25.3896ZM116.129 25.3796C116.522 25.3796 116.869 25.473 117.169 25.6596C117.475 25.8463 117.712 26.113 117.879 26.4596C118.052 26.7996 118.139 27.1963 118.139 27.6496V30.5296C118.139 30.643 118.102 30.7363 118.029 30.8096C117.962 30.8763 117.872 30.9096 117.759 30.9096C117.645 30.9096 117.552 30.8763 117.479 30.8096C117.405 30.7363 117.369 30.643 117.369 30.5296V27.6496C117.369 27.1763 117.245 26.803 116.999 26.5296C116.759 26.2496 116.442 26.1096 116.049 26.1096C115.629 26.1096 115.289 26.2496 115.029 26.5296C114.769 26.8096 114.642 27.1763 114.649 27.6296V27.6496V30.5296C114.649 30.643 114.612 30.7363 114.539 30.8096C114.472 30.8763 114.382 30.9096 114.269 30.9096C114.155 30.9096 114.062 30.8763 113.989 30.8096C113.915 30.7363 113.879 30.643 113.879 30.5296V27.6496C113.879 27.1763 113.755 26.803 113.509 26.5296C113.269 26.2496 112.952 26.1096 112.559 26.1096C112.145 26.1096 111.805 26.2463 111.539 26.5196C111.272 26.793 111.139 27.143 111.139 27.5696V30.5296C111.139 30.643 111.102 30.7363 111.029 30.8096C110.962 30.8763 110.872 30.9096 110.759 30.9096C110.645 30.9096 110.552 30.8763 110.479 30.8096C110.405 30.7363 110.369 30.643 110.369 30.5296V25.8296C110.369 25.7163 110.405 25.623 110.479 25.5496C110.552 25.4763 110.645 25.4396 110.759 25.4396C110.872 25.4396 110.962 25.4763 111.029 25.5496C111.102 25.623 111.139 25.7163 111.139 25.8296V26.0496C111.325 25.8363 111.545 25.673 111.799 25.5596C112.059 25.4396 112.339 25.3796 112.639 25.3796C113.005 25.3796 113.335 25.463 113.629 25.6296C113.922 25.7963 114.155 26.0296 114.329 26.3296C114.522 26.0296 114.772 25.7963 115.079 25.6296C115.392 25.463 115.742 25.3796 116.129 25.3796ZM122.621 25.3896C123.141 25.3896 123.611 25.513 124.031 25.7596C124.458 25.9996 124.791 26.333 125.031 26.7596C125.278 27.1863 125.401 27.6596 125.401 28.1796C125.401 28.6996 125.281 29.173 125.041 29.5996C124.808 30.0196 124.485 30.353 124.071 30.5996C123.665 30.8396 123.208 30.9596 122.701 30.9596C122.268 30.9596 121.871 30.8696 121.511 30.6896C121.151 30.503 120.855 30.2496 120.621 29.9296V32.8596C120.621 32.973 120.585 33.0663 120.511 33.1396C120.438 33.213 120.345 33.2496 120.231 33.2496C120.118 33.2496 120.025 33.213 119.951 33.1396C119.885 33.0663 119.851 32.973 119.851 32.8596V30.6196C119.845 30.5996 119.841 30.5696 119.841 30.5296V28.1796C119.841 27.6596 119.961 27.1863 120.201 26.7596C120.448 26.333 120.781 25.9996 121.201 25.7596C121.628 25.513 122.101 25.3896 122.621 25.3896ZM122.621 30.2596C123.001 30.2596 123.345 30.1696 123.651 29.9896C123.965 29.8096 124.208 29.563 124.381 29.2496C124.561 28.9296 124.651 28.573 124.651 28.1796C124.651 27.7863 124.561 27.433 124.381 27.1196C124.208 26.7996 123.965 26.5496 123.651 26.3696C123.345 26.183 123.001 26.0896 122.621 26.0896C122.241 26.0896 121.898 26.183 121.591 26.3696C121.285 26.5496 121.041 26.7996 120.861 27.1196C120.688 27.433 120.601 27.7863 120.601 28.1796C120.601 28.293 120.605 28.3763 120.611 28.4296C120.618 28.443 120.621 28.4596 120.621 28.4796C120.688 28.9996 120.905 29.4263 121.271 29.7596C121.645 30.093 122.095 30.2596 122.621 30.2596ZM129.402 25.3896C129.928 25.3896 130.402 25.5096 130.822 25.7496C131.242 25.9896 131.572 26.323 131.812 26.7496C132.058 27.1763 132.182 27.653 132.182 28.1796C132.182 28.7063 132.062 29.183 131.822 29.6096C131.582 30.0296 131.248 30.3596 130.822 30.5996C130.402 30.8396 129.928 30.9596 129.402 30.9596C128.875 30.9596 128.398 30.8396 127.972 30.5996C127.552 30.3596 127.222 30.0296 126.982 29.6096C126.742 29.183 126.622 28.7063 126.622 28.1796C126.622 27.653 126.742 27.1763 126.982 26.7496C127.222 26.323 127.552 25.9896 127.972 25.7496C128.398 25.5096 128.875 25.3896 129.402 25.3896ZM129.402 26.0896C129.022 26.0896 128.675 26.1796 128.362 26.3596C128.055 26.5396 127.812 26.7896 127.632 27.1096C127.458 27.423 127.372 27.7796 127.372 28.1796C127.372 28.573 127.458 28.9296 127.632 29.2496C127.812 29.563 128.055 29.8096 128.362 29.9896C128.675 30.1696 129.022 30.2596 129.402 30.2596C129.788 30.2596 130.135 30.1696 130.442 29.9896C130.748 29.8096 130.988 29.563 131.162 29.2496C131.335 28.9296 131.422 28.573 131.422 28.1796C131.422 27.7796 131.335 27.423 131.162 27.1096C130.988 26.7896 130.748 26.5396 130.442 26.3596C130.135 26.1796 129.788 26.0896 129.402 26.0896ZM138.259 25.4396C138.373 25.4396 138.466 25.4763 138.539 25.5496C138.613 25.6163 138.649 25.7063 138.649 25.8196V30.5196C138.649 30.633 138.613 30.7263 138.539 30.7996C138.466 30.873 138.373 30.9096 138.259 30.9096C138.146 30.9096 138.053 30.873 137.979 30.7996C137.913 30.7263 137.879 30.633 137.879 30.5196V30.1796C137.659 30.4263 137.393 30.6196 137.079 30.7596C136.766 30.8996 136.426 30.9696 136.059 30.9696C135.586 30.9696 135.159 30.8696 134.779 30.6696C134.406 30.4696 134.113 30.1796 133.899 29.7996C133.686 29.413 133.579 28.953 133.579 28.4196V25.8196C133.579 25.713 133.616 25.623 133.689 25.5496C133.763 25.4763 133.853 25.4396 133.959 25.4396C134.073 25.4396 134.166 25.4763 134.239 25.5496C134.313 25.623 134.349 25.713 134.349 25.8196V28.4196C134.349 29.013 134.513 29.4663 134.839 29.7796C135.173 30.0863 135.606 30.2396 136.139 30.2396C136.466 30.2396 136.759 30.1763 137.019 30.0496C137.286 29.923 137.496 29.7496 137.649 29.5296C137.803 29.303 137.879 29.053 137.879 28.7796V25.8196C137.879 25.7063 137.913 25.6163 137.979 25.5496C138.053 25.4763 138.146 25.4396 138.259 25.4396ZM146.207 25.3796C146.6 25.3796 146.947 25.473 147.247 25.6596C147.554 25.8463 147.79 26.113 147.957 26.4596C148.13 26.7996 148.217 27.1963 148.217 27.6496V30.5296C148.217 30.643 148.18 30.7363 148.107 30.8096C148.04 30.8763 147.95 30.9096 147.837 30.9096C147.724 30.9096 147.63 30.8763 147.557 30.8096C147.484 30.7363 147.447 30.643 147.447 30.5296V27.6496C147.447 27.1763 147.324 26.803 147.077 26.5296C146.837 26.2496 146.52 26.1096 146.127 26.1096C145.707 26.1096 145.367 26.2496 145.107 26.5296C144.847 26.8096 144.72 27.1763 144.727 27.6296V27.6496V30.5296C144.727 30.643 144.69 30.7363 144.617 30.8096C144.55 30.8763 144.46 30.9096 144.347 30.9096C144.234 30.9096 144.14 30.8763 144.067 30.8096C143.994 30.7363 143.957 30.643 143.957 30.5296V27.6496C143.957 27.1763 143.834 26.803 143.587 26.5296C143.347 26.2496 143.03 26.1096 142.637 26.1096C142.224 26.1096 141.884 26.2463 141.617 26.5196C141.35 26.793 141.217 27.143 141.217 27.5696V30.5296C141.217 30.643 141.18 30.7363 141.107 30.8096C141.04 30.8763 140.95 30.9096 140.837 30.9096C140.724 30.9096 140.63 30.8763 140.557 30.8096C140.484 30.7363 140.447 30.643 140.447 30.5296V25.8296C140.447 25.7163 140.484 25.623 140.557 25.5496C140.63 25.4763 140.724 25.4396 140.837 25.4396C140.95 25.4396 141.04 25.4763 141.107 25.5496C141.18 25.623 141.217 25.7163 141.217 25.8296V26.0496C141.404 25.8363 141.624 25.673 141.877 25.5596C142.137 25.4396 142.417 25.3796 142.717 25.3796C143.084 25.3796 143.414 25.463 143.707 25.6296C144 25.7963 144.234 26.0296 144.407 26.3296C144.6 26.0296 144.85 25.7963 145.157 25.6296C145.47 25.463 145.82 25.3796 146.207 25.3796ZM152.25 25.3896C152.743 25.3896 153.18 25.5063 153.56 25.7396C153.94 25.9663 154.233 26.283 154.44 26.6896C154.653 27.0963 154.76 27.5596 154.76 28.0796C154.76 28.1863 154.726 28.273 154.66 28.3396C154.593 28.3996 154.506 28.4296 154.4 28.4296H150.36C150.413 28.9763 150.626 29.4196 151 29.7596C151.373 30.0996 151.84 30.2696 152.4 30.2696C152.64 30.2696 152.88 30.2296 153.12 30.1496C153.366 30.063 153.563 29.9563 153.71 29.8296C153.796 29.763 153.886 29.7296 153.98 29.7296C154.053 29.7296 154.126 29.7563 154.2 29.8096C154.286 29.8896 154.33 29.9796 154.33 30.0796C154.33 30.1663 154.293 30.243 154.22 30.3096C154 30.4963 153.72 30.653 153.38 30.7796C153.04 30.8996 152.713 30.9596 152.4 30.9596C151.866 30.9596 151.39 30.843 150.97 30.6096C150.55 30.3696 150.22 30.0396 149.98 29.6196C149.746 29.193 149.63 28.713 149.63 28.1796C149.63 27.6396 149.74 27.1596 149.96 26.7396C150.186 26.313 150.496 25.983 150.89 25.7496C151.29 25.5096 151.743 25.3896 152.25 25.3896ZM152.25 26.0796C151.743 26.0796 151.323 26.2363 150.99 26.5496C150.656 26.863 150.453 27.2763 150.38 27.7896H154.04C153.986 27.2763 153.8 26.863 153.48 26.5496C153.16 26.2363 152.75 26.0796 152.25 26.0796ZM160.652 30.4196C160.679 30.4863 160.692 30.5363 160.692 30.5696C160.692 30.6963 160.619 30.7996 160.472 30.8796C160.419 30.9063 160.359 30.9196 160.292 30.9196C160.152 30.9196 160.045 30.8496 159.972 30.7096L158.122 26.5996L156.242 30.6996C156.215 30.7663 156.172 30.8196 156.112 30.8596C156.052 30.8996 155.985 30.9196 155.912 30.9196C155.859 30.9196 155.799 30.903 155.732 30.8696C155.579 30.7896 155.502 30.6863 155.502 30.5596C155.502 30.5263 155.515 30.4763 155.542 30.4096L157.742 25.6996C157.822 25.5263 157.942 25.4396 158.102 25.4396C158.275 25.4396 158.402 25.5263 158.482 25.6996L160.652 30.4196ZM164.341 27.2496C164.774 27.2496 165.154 27.3296 165.481 27.4896C165.814 27.643 166.071 27.8596 166.251 28.1396C166.438 28.4196 166.531 28.7396 166.531 29.0996C166.531 29.4663 166.434 29.7963 166.241 30.0896C166.054 30.3763 165.788 30.603 165.441 30.7696C165.094 30.9296 164.701 31.0096 164.261 31.0096C163.808 31.0096 163.404 30.9263 163.051 30.7596C162.698 30.5863 162.424 30.3463 162.231 30.0396C162.038 29.7263 161.941 29.3696 161.941 28.9696V25.8196C161.948 25.713 161.988 25.623 162.061 25.5496C162.134 25.4763 162.224 25.4396 162.331 25.4396C162.444 25.4396 162.534 25.4763 162.601 25.5496C162.674 25.623 162.711 25.7163 162.711 25.8296V27.2496H164.341ZM162.711 28.9696C162.711 29.3563 162.854 29.6763 163.141 29.9296C163.428 30.1763 163.801 30.2996 164.261 30.2996C164.714 30.2996 165.078 30.1963 165.351 29.9896C165.631 29.783 165.771 29.4863 165.771 29.0996C165.771 28.7263 165.644 28.4363 165.391 28.2296C165.138 28.023 164.788 27.9196 164.341 27.9196H162.711V28.9696ZM172.5 25.4396C172.613 25.4396 172.703 25.4763 172.77 25.5496C172.837 25.623 172.87 25.7163 172.87 25.8296V30.5196C172.87 30.633 172.837 30.7263 172.77 30.7996C172.703 30.873 172.613 30.9096 172.5 30.9096C172.387 30.9096 172.293 30.873 172.22 30.7996C172.147 30.7263 172.11 30.633 172.11 30.5196V28.4996H168.58V30.5196C168.58 30.633 168.543 30.7263 168.47 30.7996C168.403 30.873 168.313 30.9096 168.2 30.9096C168.087 30.9096 167.993 30.873 167.92 30.7996C167.853 30.7263 167.82 30.633 167.82 30.5196V25.8296C167.82 25.7163 167.853 25.623 167.92 25.5496C167.993 25.4763 168.087 25.4396 168.2 25.4396C168.313 25.4396 168.403 25.4763 168.47 25.5496C168.543 25.623 168.58 25.7163 168.58 25.8296V27.8096H172.11V25.8296C172.11 25.7163 172.147 25.623 172.22 25.5496C172.293 25.4763 172.387 25.4396 172.5 25.4396ZM176.916 27.2496C177.522 27.2496 178.016 27.4196 178.396 27.7596C178.776 28.093 178.966 28.5396 178.966 29.0996C178.966 29.4796 178.876 29.8163 178.696 30.1096C178.522 30.3963 178.276 30.6196 177.956 30.7796C177.642 30.933 177.282 31.0096 176.876 31.0096C176.449 31.0096 176.069 30.923 175.736 30.7496C175.402 30.5763 175.139 30.3363 174.946 30.0296C174.759 29.7163 174.666 29.363 174.666 28.9696V25.8196C174.672 25.7063 174.712 25.6163 174.786 25.5496C174.859 25.4763 174.949 25.4396 175.056 25.4396C175.169 25.4396 175.259 25.4763 175.326 25.5496C175.399 25.623 175.436 25.7163 175.436 25.8296V27.2496H176.916ZM179.836 25.8296C179.836 25.7163 179.869 25.623 179.936 25.5496C180.009 25.4763 180.102 25.4396 180.216 25.4396C180.329 25.4396 180.422 25.4763 180.496 25.5496C180.569 25.623 180.606 25.7163 180.606 25.8296V30.5196C180.606 30.633 180.569 30.7263 180.496 30.7996C180.422 30.873 180.329 30.9096 180.216 30.9096C180.102 30.9096 180.009 30.873 179.936 30.7996C179.869 30.7263 179.836 30.633 179.836 30.5196V25.8296ZM175.436 28.9696C175.436 29.3563 175.569 29.6763 175.836 29.9296C176.109 30.1763 176.456 30.2996 176.876 30.2996C177.282 30.2996 177.606 30.1963 177.846 29.9896C178.092 29.783 178.216 29.4863 178.216 29.0996C178.216 28.7196 178.096 28.4296 177.856 28.2296C177.622 28.023 177.309 27.9196 176.916 27.9196H175.436V28.9696ZM186.157 30.3096C186.23 30.403 186.267 30.493 186.267 30.5796C186.267 30.673 186.23 30.753 186.157 30.8196C186.09 30.8796 186.014 30.9096 185.927 30.9096C185.847 30.9096 185.78 30.8963 185.727 30.8696C185.674 30.843 185.624 30.7963 185.577 30.7296L183.937 28.6396L182.237 30.7896C182.177 30.8696 182.087 30.9096 181.967 30.9096C181.86 30.9096 181.774 30.8763 181.707 30.8096C181.647 30.743 181.617 30.663 181.617 30.5696C181.617 30.463 181.65 30.373 181.717 30.2996L183.447 28.1396L181.807 26.0596C181.74 25.9863 181.707 25.8963 181.707 25.7896C181.707 25.6896 181.737 25.6063 181.797 25.5396C181.857 25.473 181.944 25.4396 182.057 25.4396C182.17 25.4396 182.267 25.4796 182.347 25.5596L183.957 27.6296L185.547 25.6196C185.64 25.4996 185.75 25.4396 185.877 25.4396C185.984 25.4396 186.067 25.473 186.127 25.5396C186.194 25.6063 186.227 25.6863 186.227 25.7796C186.227 25.8796 186.19 25.9763 186.117 26.0696L184.457 28.1296L186.157 30.3096ZM70.66 36.3796C71.0533 36.3796 71.4 36.473 71.7 36.6596C72.0067 36.8463 72.2433 37.113 72.41 37.4596C72.5833 37.7996 72.67 38.1963 72.67 38.6496V41.5296C72.67 41.643 72.6333 41.7363 72.56 41.8096C72.4933 41.8763 72.4033 41.9096 72.29 41.9096C72.1767 41.9096 72.0833 41.8763 72.01 41.8096C71.9367 41.7363 71.9 41.643 71.9 41.5296V38.6496C71.9 38.1763 71.7767 37.803 71.53 37.5296C71.29 37.2496 70.9733 37.1096 70.58 37.1096C70.16 37.1096 69.82 37.2496 69.56 37.5296C69.3 37.8096 69.1733 38.1763 69.18 38.6296V38.6496V41.5296C69.18 41.643 69.1433 41.7363 69.07 41.8096C69.0033 41.8763 68.9133 41.9096 68.8 41.9096C68.6867 41.9096 68.5933 41.8763 68.52 41.8096C68.4467 41.7363 68.41 41.643 68.41 41.5296V38.6496C68.41 38.1763 68.2867 37.803 68.04 37.5296C67.8 37.2496 67.4833 37.1096 67.09 37.1096C66.6767 37.1096 66.3367 37.2463 66.07 37.5196C65.8033 37.793 65.67 38.143 65.67 38.5696V41.5296C65.67 41.643 65.6333 41.7363 65.56 41.8096C65.4933 41.8763 65.4033 41.9096 65.29 41.9096C65.1767 41.9096 65.0833 41.8763 65.01 41.8096C64.9367 41.7363 64.9 41.643 64.9 41.5296V36.8296C64.9 36.7163 64.9367 36.623 65.01 36.5496C65.0833 36.4763 65.1767 36.4396 65.29 36.4396C65.4033 36.4396 65.4933 36.4763 65.56 36.5496C65.6333 36.623 65.67 36.7163 65.67 36.8296V37.0496C65.8567 36.8363 66.0767 36.673 66.33 36.5596C66.59 36.4396 66.87 36.3796 67.17 36.3796C67.5367 36.3796 67.8667 36.463 68.16 36.6296C68.4533 36.7963 68.6867 37.0296 68.86 37.3296C69.0533 37.0296 69.3033 36.7963 69.61 36.6296C69.9233 36.463 70.2733 36.3796 70.66 36.3796ZM76.7027 36.3896C77.196 36.3896 77.6327 36.5063 78.0127 36.7396C78.3927 36.9663 78.686 37.283 78.8927 37.6896C79.106 38.0963 79.2127 38.5596 79.2127 39.0796C79.2127 39.1863 79.1793 39.273 79.1127 39.3396C79.046 39.3996 78.9593 39.4296 78.8527 39.4296H74.8127C74.866 39.9763 75.0793 40.4196 75.4527 40.7596C75.826 41.0996 76.2927 41.2696 76.8527 41.2696C77.0927 41.2696 77.3327 41.2296 77.5727 41.1496C77.8193 41.063 78.016 40.9563 78.1627 40.8296C78.2493 40.763 78.3393 40.7296 78.4327 40.7296C78.506 40.7296 78.5793 40.7563 78.6527 40.8096C78.7393 40.8896 78.7827 40.9796 78.7827 41.0796C78.7827 41.1663 78.746 41.243 78.6727 41.3096C78.4527 41.4963 78.1727 41.653 77.8327 41.7796C77.4927 41.8996 77.166 41.9596 76.8527 41.9596C76.3193 41.9596 75.8427 41.843 75.4227 41.6096C75.0027 41.3696 74.6727 41.0396 74.4327 40.6196C74.1993 40.193 74.0827 39.713 74.0827 39.1796C74.0827 38.6396 74.1927 38.1596 74.4127 37.7396C74.6393 37.313 74.9493 36.983 75.3427 36.7496C75.7427 36.5096 76.196 36.3896 76.7027 36.3896ZM76.7027 37.0796C76.196 37.0796 75.776 37.2363 75.4427 37.5496C75.1093 37.863 74.906 38.2763 74.8327 38.7896H78.4927C78.4393 38.2763 78.2527 37.863 77.9327 37.5496C77.6127 37.2363 77.2027 37.0796 76.7027 37.0796ZM84.2625 41.3096C84.3358 41.403 84.3725 41.493 84.3725 41.5796C84.3725 41.673 84.3358 41.753 84.2625 41.8196C84.1958 41.8796 84.1192 41.9096 84.0325 41.9096C83.9525 41.9096 83.8858 41.8963 83.8325 41.8696C83.7792 41.843 83.7292 41.7963 83.6825 41.7296L82.0425 39.6396L80.3425 41.7896C80.2825 41.8696 80.1925 41.9096 80.0725 41.9096C79.9658 41.9096 79.8792 41.8763 79.8125 41.8096C79.7525 41.743 79.7225 41.663 79.7225 41.5696C79.7225 41.463 79.7558 41.373 79.8225 41.2996L81.5525 39.1396L79.9125 37.0596C79.8458 36.9863 79.8125 36.8963 79.8125 36.7896C79.8125 36.6896 79.8425 36.6063 79.9025 36.5396C79.9625 36.473 80.0492 36.4396 80.1625 36.4396C80.2758 36.4396 80.3725 36.4796 80.4525 36.5596L82.0625 38.6296L83.6525 36.6196C83.7458 36.4996 83.8558 36.4396 83.9825 36.4396C84.0892 36.4396 84.1725 36.473 84.2325 36.5396C84.2992 36.6063 84.3325 36.6863 84.3325 36.7796C84.3325 36.8796 84.2958 36.9763 84.2225 37.0696L82.5625 39.1296L84.2625 41.3096ZM90.371 36.4396C90.4843 36.4396 90.5743 36.4763 90.641 36.5496C90.7077 36.623 90.741 36.7163 90.741 36.8296V41.5196C90.741 41.633 90.7077 41.7263 90.641 41.7996C90.5743 41.873 90.4843 41.9096 90.371 41.9096C90.2577 41.9096 90.1643 41.873 90.091 41.7996C90.0177 41.7263 89.981 41.633 89.981 41.5196V39.4996H86.451V41.5196C86.451 41.633 86.4143 41.7263 86.341 41.7996C86.2743 41.873 86.1843 41.9096 86.071 41.9096C85.9577 41.9096 85.8643 41.873 85.791 41.7996C85.7243 41.7263 85.691 41.633 85.691 41.5196V36.8296C85.691 36.7163 85.7243 36.623 85.791 36.5496C85.8643 36.4763 85.9577 36.4396 86.071 36.4396C86.1843 36.4396 86.2743 36.4763 86.341 36.5496C86.4143 36.623 86.451 36.7163 86.451 36.8296V38.8096H89.981V36.8296C89.981 36.7163 90.0177 36.623 90.091 36.5496C90.1643 36.4763 90.2577 36.4396 90.371 36.4396ZM95.0267 36.3896C95.5534 36.3896 96.0267 36.5096 96.4467 36.7496C96.8667 36.9896 97.1967 37.323 97.4367 37.7496C97.6834 38.1763 97.8067 38.653 97.8067 39.1796C97.8067 39.7063 97.6867 40.183 97.4467 40.6096C97.2067 41.0296 96.8734 41.3596 96.4467 41.5996C96.0267 41.8396 95.5534 41.9596 95.0267 41.9596C94.5001 41.9596 94.0234 41.8396 93.5967 41.5996C93.1767 41.3596 92.8467 41.0296 92.6067 40.6096C92.3667 40.183 92.2467 39.7063 92.2467 39.1796C92.2467 38.653 92.3667 38.1763 92.6067 37.7496C92.8467 37.323 93.1767 36.9896 93.5967 36.7496C94.0234 36.5096 94.5001 36.3896 95.0267 36.3896ZM95.0267 37.0896C94.6467 37.0896 94.3001 37.1796 93.9867 37.3596C93.6801 37.5396 93.4367 37.7896 93.2567 38.1096C93.0834 38.423 92.9967 38.7796 92.9967 39.1796C92.9967 39.573 93.0834 39.9296 93.2567 40.2496C93.4367 40.563 93.6801 40.8096 93.9867 40.9896C94.3001 41.1696 94.6467 41.2596 95.0267 41.2596C95.4134 41.2596 95.7601 41.1696 96.0667 40.9896C96.3734 40.8096 96.6134 40.563 96.7867 40.2496C96.9601 39.9296 97.0467 39.573 97.0467 39.1796C97.0467 38.7796 96.9601 38.423 96.7867 38.1096C96.6134 37.7896 96.3734 37.5396 96.0667 37.3596C95.7601 37.1796 95.4134 37.0896 95.0267 37.0896ZM103.894 41.4196C103.921 41.4863 103.934 41.5363 103.934 41.5696C103.934 41.6963 103.861 41.7996 103.714 41.8796C103.661 41.9063 103.601 41.9196 103.534 41.9196C103.394 41.9196 103.288 41.8496 103.214 41.7096L101.364 37.5996L99.4843 41.6996C99.4576 41.7663 99.4143 41.8196 99.3543 41.8596C99.2943 41.8996 99.2276 41.9196 99.1543 41.9196C99.101 41.9196 99.041 41.903 98.9743 41.8696C98.821 41.7896 98.7443 41.6863 98.7443 41.5596C98.7443 41.5263 98.7576 41.4763 98.7843 41.4096L100.984 36.6996C101.064 36.5263 101.184 36.4396 101.344 36.4396C101.518 36.4396 101.644 36.5263 101.724 36.6996L103.894 41.4196ZM107.673 36.3896C108.2 36.3896 108.673 36.5096 109.093 36.7496C109.513 36.9896 109.843 37.323 110.083 37.7496C110.33 38.1763 110.453 38.653 110.453 39.1796C110.453 39.7063 110.333 40.183 110.093 40.6096C109.853 41.0296 109.52 41.3596 109.093 41.5996C108.673 41.8396 108.2 41.9596 107.673 41.9596C107.147 41.9596 106.67 41.8396 106.243 41.5996C105.823 41.3596 105.493 41.0296 105.253 40.6096C105.013 40.183 104.893 39.7063 104.893 39.1796C104.893 38.653 105.013 38.1763 105.253 37.7496C105.493 37.323 105.823 36.9896 106.243 36.7496C106.67 36.5096 107.147 36.3896 107.673 36.3896ZM107.673 37.0896C107.293 37.0896 106.947 37.1796 106.633 37.3596C106.327 37.5396 106.083 37.7896 105.903 38.1096C105.73 38.423 105.643 38.7796 105.643 39.1796C105.643 39.573 105.73 39.9296 105.903 40.2496C106.083 40.563 106.327 40.8096 106.633 40.9896C106.947 41.1696 107.293 41.2596 107.673 41.2596C108.06 41.2596 108.407 41.1696 108.713 40.9896C109.02 40.8096 109.26 40.563 109.433 40.2496C109.607 39.9296 109.693 39.573 109.693 39.1796C109.693 38.7796 109.607 38.423 109.433 38.1096C109.26 37.7896 109.02 37.5396 108.713 37.3596C108.407 37.1796 108.06 37.0896 107.673 37.0896ZM113.641 36.3896C114.207 36.3896 114.664 36.523 115.011 36.7896C115.357 37.0496 115.531 37.423 115.531 37.9096C115.531 38.2696 115.391 38.583 115.111 38.8496C114.831 39.1163 114.394 39.3163 113.801 39.4496C113.247 39.5696 112.861 39.7096 112.641 39.8696C112.421 40.0296 112.311 40.233 112.311 40.4796C112.311 40.7396 112.414 40.9363 112.621 41.0696C112.834 41.1963 113.161 41.2596 113.601 41.2596C114.321 41.2596 114.837 41.0796 115.151 40.7196C115.237 40.6196 115.337 40.5696 115.451 40.5696C115.524 40.5696 115.597 40.5963 115.671 40.6496C115.764 40.7296 115.811 40.8196 115.811 40.9196C115.811 41.013 115.777 41.093 115.711 41.1596C115.491 41.4063 115.187 41.603 114.801 41.7496C114.414 41.8896 114.021 41.9596 113.621 41.9596C113.227 41.9596 112.874 41.8996 112.561 41.7796C112.247 41.6596 111.997 41.4896 111.811 41.2696C111.631 41.043 111.541 40.783 111.541 40.4896C111.541 40.0963 111.704 39.7663 112.031 39.4996C112.357 39.2263 112.881 39.013 113.601 38.8596C114.034 38.7596 114.337 38.633 114.511 38.4796C114.691 38.3263 114.781 38.1263 114.781 37.8796C114.781 37.6396 114.677 37.4463 114.471 37.2996C114.271 37.153 113.997 37.0796 113.651 37.0796C113.371 37.0796 113.111 37.1296 112.871 37.2296C112.637 37.323 112.444 37.4596 112.291 37.6396C112.184 37.7463 112.071 37.7996 111.951 37.7996C111.884 37.7996 111.834 37.7863 111.801 37.7596C111.667 37.6863 111.601 37.5863 111.601 37.4596C111.601 37.393 111.627 37.3263 111.681 37.2596C111.881 36.993 112.147 36.783 112.481 36.6296C112.821 36.4696 113.207 36.3896 113.641 36.3896ZM121.697 36.4396C121.81 36.4396 121.903 36.4763 121.977 36.5496C122.05 36.6163 122.087 36.7063 122.087 36.8196V41.5196C122.087 41.633 122.05 41.7263 121.977 41.7996C121.903 41.873 121.81 41.9096 121.697 41.9096C121.583 41.9096 121.49 41.873 121.417 41.7996C121.35 41.7263 121.317 41.633 121.317 41.5196V41.1796C121.097 41.4263 120.83 41.6196 120.517 41.7596C120.203 41.8996 119.863 41.9696 119.497 41.9696C119.023 41.9696 118.597 41.8696 118.217 41.6696C117.843 41.4696 117.55 41.1796 117.337 40.7996C117.123 40.413 117.017 39.953 117.017 39.4196V36.8196C117.017 36.713 117.053 36.623 117.127 36.5496C117.2 36.4763 117.29 36.4396 117.397 36.4396C117.51 36.4396 117.603 36.4763 117.677 36.5496C117.75 36.623 117.787 36.713 117.787 36.8196V39.4196C117.787 40.013 117.95 40.4663 118.277 40.7796C118.61 41.0863 119.043 41.2396 119.577 41.2396C119.903 41.2396 120.197 41.1763 120.457 41.0496C120.723 40.923 120.933 40.7496 121.087 40.5296C121.24 40.303 121.317 40.053 121.317 39.7796V36.8196C121.317 36.7063 121.35 36.6163 121.417 36.5496C121.49 36.4763 121.583 36.4396 121.697 36.4396ZM128.464 36.4396C128.578 36.4396 128.671 36.4763 128.744 36.5496C128.818 36.6163 128.854 36.7063 128.854 36.8196V41.5196C128.854 41.633 128.818 41.7263 128.744 41.7996C128.671 41.873 128.578 41.9096 128.464 41.9096C128.351 41.9096 128.258 41.873 128.184 41.7996C128.118 41.7263 128.084 41.633 128.084 41.5196V41.1796C127.864 41.4263 127.598 41.6196 127.284 41.7596C126.971 41.8996 126.631 41.9696 126.264 41.9696C125.791 41.9696 125.364 41.8696 124.984 41.6696C124.611 41.4696 124.318 41.1796 124.104 40.7996C123.891 40.413 123.784 39.953 123.784 39.4196V36.8196C123.784 36.713 123.821 36.623 123.894 36.5496C123.968 36.4763 124.058 36.4396 124.164 36.4396C124.278 36.4396 124.371 36.4763 124.444 36.5496C124.518 36.623 124.554 36.713 124.554 36.8196V39.4196C124.554 40.013 124.718 40.4663 125.044 40.7796C125.378 41.0863 125.811 41.2396 126.344 41.2396C126.671 41.2396 126.964 41.1763 127.224 41.0496C127.491 40.923 127.701 40.7496 127.854 40.5296C128.008 40.303 128.084 40.053 128.084 39.7796V36.8196C128.084 36.7063 128.118 36.6163 128.184 36.5496C128.258 36.4763 128.351 36.4396 128.464 36.4396ZM125.014 34.0796C125.121 34.0796 125.208 34.1163 125.274 34.1896C125.341 34.263 125.374 34.363 125.374 34.4896C125.374 34.6696 125.468 34.8196 125.654 34.9396C125.848 35.053 126.088 35.1096 126.374 35.1096C126.661 35.1096 126.898 35.053 127.084 34.9396C127.278 34.8196 127.374 34.6696 127.374 34.4896C127.374 34.363 127.408 34.263 127.474 34.1896C127.541 34.1163 127.628 34.0796 127.734 34.0796C127.841 34.0796 127.928 34.1163 127.994 34.1896C128.061 34.2563 128.094 34.3463 128.094 34.4596C128.094 34.6996 128.018 34.9163 127.864 35.1096C127.718 35.303 127.511 35.4563 127.244 35.5696C126.984 35.6763 126.694 35.7296 126.374 35.7296C126.054 35.7296 125.761 35.6763 125.494 35.5696C125.234 35.4563 125.028 35.303 124.874 35.1096C124.728 34.9163 124.654 34.6996 124.654 34.4596C124.654 34.3463 124.688 34.2563 124.754 34.1896C124.821 34.1163 124.908 34.0796 125.014 34.0796ZM138.162 36.4396C138.275 36.4396 138.368 36.4763 138.442 36.5496C138.515 36.6163 138.552 36.7063 138.552 36.8196V41.5196C138.552 41.633 138.515 41.7263 138.442 41.7996C138.368 41.873 138.275 41.9096 138.162 41.9096C138.048 41.9096 137.955 41.873 137.882 41.7996C137.815 41.7263 137.782 41.633 137.782 41.5196V41.1796C137.562 41.4263 137.295 41.6196 136.982 41.7596C136.668 41.8996 136.328 41.9696 135.962 41.9696C135.488 41.9696 135.062 41.8696 134.682 41.6696C134.308 41.4696 134.015 41.1796 133.802 40.7996C133.588 40.413 133.482 39.953 133.482 39.4196V36.8196C133.482 36.713 133.518 36.623 133.592 36.5496C133.665 36.4763 133.755 36.4396 133.862 36.4396C133.975 36.4396 134.068 36.4763 134.142 36.5496C134.215 36.623 134.252 36.713 134.252 36.8196V39.4196C134.252 40.013 134.415 40.4663 134.742 40.7796C135.075 41.0863 135.508 41.2396 136.042 41.2396C136.368 41.2396 136.662 41.1763 136.922 41.0496C137.188 40.923 137.398 40.7496 137.552 40.5296C137.705 40.303 137.782 40.053 137.782 39.7796V36.8196C137.782 36.7063 137.815 36.6163 137.882 36.5496C137.955 36.4763 138.048 36.4396 138.162 36.4396ZM143.079 41.0696C143.079 40.9696 143.126 40.8796 143.219 40.7996C143.286 40.7463 143.359 40.7196 143.439 40.7196C143.532 40.7196 143.622 40.7563 143.709 40.8296C144.036 41.1163 144.466 41.2596 144.999 41.2596C145.532 41.2596 145.979 41.0896 146.339 40.7496C146.706 40.4096 146.916 39.973 146.969 39.4396H144.679C144.572 39.4396 144.486 39.413 144.419 39.3596C144.359 39.2996 144.329 39.223 144.329 39.1296C144.329 39.0363 144.359 38.963 144.419 38.9096C144.486 38.8496 144.572 38.8196 144.679 38.8196H146.959C146.886 38.2996 146.682 37.883 146.349 37.5696C146.016 37.2496 145.599 37.0896 145.099 37.0896C144.806 37.0896 144.539 37.1463 144.299 37.2596C144.059 37.3663 143.839 37.5296 143.639 37.7496C143.546 37.8496 143.449 37.8996 143.349 37.8996C143.282 37.8996 143.219 37.8796 143.159 37.8396C143.046 37.7596 142.989 37.6663 142.989 37.5596C142.989 37.4796 143.016 37.4096 143.069 37.3496C143.589 36.7096 144.266 36.3896 145.099 36.3896C145.599 36.3896 146.049 36.5096 146.449 36.7496C146.849 36.9896 147.162 37.323 147.389 37.7496C147.616 38.1696 147.729 38.6463 147.729 39.1796C147.729 39.6996 147.609 40.173 147.369 40.5996C147.136 41.0196 146.812 41.353 146.399 41.5996C145.986 41.8396 145.519 41.9596 144.999 41.9596C144.266 41.9596 143.659 41.7363 143.179 41.2896C143.112 41.2296 143.079 41.1563 143.079 41.0696ZM153.506 41.3196C153.573 41.3996 153.606 41.4796 153.606 41.5596C153.606 41.6463 153.566 41.7296 153.486 41.8096C153.406 41.8763 153.316 41.9096 153.216 41.9096C153.116 41.9096 153.029 41.873 152.956 41.7996L150.866 39.5096H149.996V41.5296C149.996 41.643 149.959 41.7363 149.886 41.8096C149.813 41.8763 149.719 41.9096 149.606 41.9096C149.493 41.9096 149.403 41.8763 149.336 41.8096C149.269 41.7363 149.236 41.643 149.236 41.5296V36.8296C149.236 36.7163 149.269 36.623 149.336 36.5496C149.403 36.4763 149.493 36.4396 149.606 36.4396C149.719 36.4396 149.813 36.4763 149.886 36.5496C149.959 36.623 149.996 36.7163 149.996 36.8296V38.8096H150.886L152.856 36.5596C152.929 36.4796 153.023 36.4396 153.136 36.4396C153.223 36.4396 153.299 36.4663 153.366 36.5196C153.453 36.5863 153.496 36.673 153.496 36.7796C153.496 36.873 153.463 36.953 153.396 37.0196L151.526 39.1396L153.506 41.3196ZM156.693 36.3896C157.526 36.3896 158.203 36.7096 158.723 37.3496C158.776 37.4096 158.803 37.4796 158.803 37.5596C158.803 37.6663 158.746 37.7596 158.633 37.8396C158.573 37.8796 158.51 37.8996 158.443 37.8996C158.343 37.8996 158.246 37.8496 158.153 37.7496C157.953 37.5296 157.733 37.3663 157.493 37.2596C157.253 37.1463 156.986 37.0896 156.693 37.0896C156.326 37.0896 156 37.1796 155.713 37.3596C155.426 37.533 155.203 37.7796 155.043 38.0996C154.89 38.4196 154.813 38.7796 154.813 39.1796C154.813 39.573 154.896 39.9296 155.063 40.2496C155.23 40.563 155.463 40.8096 155.763 40.9896C156.063 41.1696 156.406 41.2596 156.793 41.2596C157.326 41.2596 157.756 41.1163 158.083 40.8296C158.17 40.7563 158.26 40.7196 158.353 40.7196C158.433 40.7196 158.506 40.7463 158.573 40.7996C158.666 40.8796 158.713 40.9696 158.713 41.0696C158.713 41.1563 158.68 41.2296 158.613 41.2896C158.133 41.7363 157.526 41.9596 156.793 41.9596C156.273 41.9596 155.806 41.8396 155.393 41.5996C154.98 41.353 154.653 41.0196 154.413 40.5996C154.18 40.173 154.063 39.6996 154.063 39.1796C154.063 38.6463 154.176 38.1696 154.403 37.7496C154.63 37.323 154.943 36.9896 155.343 36.7496C155.743 36.5096 156.193 36.3896 156.693 36.3896ZM162.9 36.3796C163.373 36.3796 163.797 36.4796 164.17 36.6796C164.55 36.8796 164.847 37.173 165.06 37.5596C165.273 37.9396 165.38 38.3963 165.38 38.9296V41.5296C165.38 41.6363 165.343 41.7263 165.27 41.7996C165.197 41.873 165.107 41.9096 165 41.9096C164.887 41.9096 164.793 41.873 164.72 41.7996C164.647 41.7263 164.61 41.6363 164.61 41.5296V38.9296C164.61 38.3363 164.443 37.8863 164.11 37.5796C163.783 37.2663 163.353 37.1096 162.82 37.1096C162.493 37.1096 162.197 37.173 161.93 37.2996C161.67 37.4263 161.463 37.603 161.31 37.8296C161.157 38.0496 161.08 38.2963 161.08 38.5696V41.5296C161.08 41.643 161.043 41.7363 160.97 41.8096C160.903 41.8763 160.813 41.9096 160.7 41.9096C160.587 41.9096 160.493 41.8763 160.42 41.8096C160.347 41.7363 160.31 41.643 160.31 41.5296V36.8296C160.31 36.7163 160.347 36.623 160.42 36.5496C160.493 36.4763 160.587 36.4396 160.7 36.4396C160.813 36.4396 160.903 36.4763 160.97 36.5496C161.043 36.623 161.08 36.7163 161.08 36.8296V37.1696C161.3 36.923 161.567 36.7296 161.88 36.5896C162.193 36.4496 162.533 36.3796 162.9 36.3796ZM169.408 36.3896C169.901 36.3896 170.338 36.5063 170.718 36.7396C171.098 36.9663 171.391 37.283 171.598 37.6896C171.811 38.0963 171.918 38.5596 171.918 39.0796C171.918 39.1863 171.884 39.273 171.818 39.3396C171.751 39.3996 171.664 39.4296 171.558 39.4296H167.518C167.571 39.9763 167.784 40.4196 168.158 40.7596C168.531 41.0996 168.998 41.2696 169.558 41.2696C169.798 41.2696 170.038 41.2296 170.278 41.1496C170.524 41.063 170.721 40.9563 170.868 40.8296C170.954 40.763 171.044 40.7296 171.138 40.7296C171.211 40.7296 171.284 40.7563 171.358 40.8096C171.444 40.8896 171.488 40.9796 171.488 41.0796C171.488 41.1663 171.451 41.243 171.378 41.3096C171.158 41.4963 170.878 41.653 170.538 41.7796C170.198 41.8996 169.871 41.9596 169.558 41.9596C169.024 41.9596 168.548 41.843 168.128 41.6096C167.708 41.3696 167.378 41.0396 167.138 40.6196C166.904 40.193 166.788 39.713 166.788 39.1796C166.788 38.6396 166.898 38.1596 167.118 37.7396C167.344 37.313 167.654 36.983 168.048 36.7496C168.448 36.5096 168.901 36.3896 169.408 36.3896ZM169.408 37.0796C168.901 37.0796 168.481 37.2363 168.148 37.5496C167.814 37.863 167.611 38.2763 167.538 38.7896H171.198C171.144 38.2763 170.958 37.863 170.638 37.5496C170.318 37.2363 169.908 37.0796 169.408 37.0796ZM176 36.3896C176.52 36.3896 176.99 36.513 177.41 36.7596C177.837 36.9996 178.17 37.333 178.41 37.7596C178.657 38.1863 178.78 38.6596 178.78 39.1796C178.78 39.6996 178.66 40.173 178.42 40.5996C178.187 41.0196 177.864 41.353 177.45 41.5996C177.044 41.8396 176.587 41.9596 176.08 41.9596C175.647 41.9596 175.25 41.8696 174.89 41.6896C174.53 41.503 174.234 41.2496 174 40.9296V43.8596C174 43.973 173.964 44.0663 173.89 44.1396C173.817 44.213 173.724 44.2496 173.61 44.2496C173.497 44.2496 173.404 44.213 173.33 44.1396C173.264 44.0663 173.23 43.973 173.23 43.8596V41.6196C173.224 41.5996 173.22 41.5696 173.22 41.5296V39.1796C173.22 38.6596 173.34 38.1863 173.58 37.7596C173.827 37.333 174.16 36.9996 174.58 36.7596C175.007 36.513 175.48 36.3896 176 36.3896ZM176 41.2596C176.38 41.2596 176.724 41.1696 177.03 40.9896C177.344 40.8096 177.587 40.563 177.76 40.2496C177.94 39.9296 178.03 39.573 178.03 39.1796C178.03 38.7863 177.94 38.433 177.76 38.1196C177.587 37.7996 177.344 37.5496 177.03 37.3696C176.724 37.183 176.38 37.0896 176 37.0896C175.62 37.0896 175.277 37.183 174.97 37.3696C174.664 37.5496 174.42 37.7996 174.24 38.1196C174.067 38.433 173.98 38.7863 173.98 39.1796C173.98 39.293 173.984 39.3763 173.99 39.4296C173.997 39.443 174 39.4596 174 39.4796C174.067 39.9996 174.284 40.4263 174.65 40.7596C175.024 41.093 175.474 41.2596 176 41.2596ZM186.051 36.3796C186.444 36.3796 186.791 36.473 187.091 36.6596C187.397 36.8463 187.634 37.113 187.801 37.4596C187.974 37.7996 188.061 38.1963 188.061 38.6496V41.5296C188.061 41.643 188.024 41.7363 187.951 41.8096C187.884 41.8763 187.794 41.9096 187.681 41.9096C187.567 41.9096 187.474 41.8763 187.401 41.8096C187.327 41.7363 187.291 41.643 187.291 41.5296V38.6496C187.291 38.1763 187.167 37.803 186.921 37.5296C186.681 37.2496 186.364 37.1096 185.971 37.1096C185.551 37.1096 185.211 37.2496 184.951 37.5296C184.691 37.8096 184.564 38.1763 184.571 38.6296V38.6496V41.5296C184.571 41.643 184.534 41.7363 184.461 41.8096C184.394 41.8763 184.304 41.9096 184.191 41.9096C184.077 41.9096 183.984 41.8763 183.911 41.8096C183.837 41.7363 183.801 41.643 183.801 41.5296V38.6496C183.801 38.1763 183.677 37.803 183.431 37.5296C183.191 37.2496 182.874 37.1096 182.481 37.1096C182.067 37.1096 181.727 37.2463 181.461 37.5196C181.194 37.793 181.061 38.143 181.061 38.5696V41.5296C181.061 41.643 181.024 41.7363 180.951 41.8096C180.884 41.8763 180.794 41.9096 180.681 41.9096C180.567 41.9096 180.474 41.8763 180.401 41.8096C180.327 41.7363 180.291 41.643 180.291 41.5296V36.8296C180.291 36.7163 180.327 36.623 180.401 36.5496C180.474 36.4763 180.567 36.4396 180.681 36.4396C180.794 36.4396 180.884 36.4763 180.951 36.5496C181.024 36.623 181.061 36.7163 181.061 36.8296V37.0496C181.247 36.8363 181.467 36.673 181.721 36.5596C181.981 36.4396 182.261 36.3796 182.561 36.3796C182.927 36.3796 183.257 36.463 183.551 36.6296C183.844 36.7963 184.077 37.0296 184.251 37.3296C184.444 37.0296 184.694 36.7963 185.001 36.6296C185.314 36.463 185.664 36.3796 186.051 36.3796ZM194.343 36.4396C194.457 36.4396 194.55 36.4763 194.623 36.5496C194.697 36.6163 194.733 36.7063 194.733 36.8196V41.5196C194.733 41.633 194.697 41.7263 194.623 41.7996C194.55 41.873 194.457 41.9096 194.343 41.9096C194.23 41.9096 194.137 41.873 194.063 41.7996C193.997 41.7263 193.963 41.633 193.963 41.5196V41.1796C193.743 41.4263 193.477 41.6196 193.163 41.7596C192.85 41.8996 192.51 41.9696 192.143 41.9696C191.67 41.9696 191.243 41.8696 190.863 41.6696C190.49 41.4696 190.197 41.1796 189.983 40.7996C189.77 40.413 189.663 39.953 189.663 39.4196V36.8196C189.663 36.713 189.7 36.623 189.773 36.5496C189.847 36.4763 189.937 36.4396 190.043 36.4396C190.157 36.4396 190.25 36.4763 190.323 36.5496C190.397 36.623 190.433 36.713 190.433 36.8196V39.4196C190.433 40.013 190.597 40.4663 190.923 40.7796C191.257 41.0863 191.69 41.2396 192.223 41.2396C192.55 41.2396 192.843 41.1763 193.103 41.0496C193.37 40.923 193.58 40.7496 193.733 40.5296C193.887 40.303 193.963 40.053 193.963 39.7796V36.8196C193.963 36.7063 193.997 36.6163 194.063 36.5496C194.137 36.4763 194.23 36.4396 194.343 36.4396ZM199.221 39.0196C199.561 39.093 199.834 39.253 200.041 39.4996C200.254 39.7396 200.361 40.0263 200.361 40.3596C200.361 40.6663 200.268 40.9463 200.081 41.1996C199.901 41.4463 199.651 41.643 199.331 41.7896C199.011 41.9296 198.654 41.9996 198.261 41.9996C197.834 41.9996 197.428 41.9163 197.041 41.7496C196.654 41.5763 196.361 41.363 196.161 41.1096C196.108 41.0496 196.081 40.9763 196.081 40.8896C196.081 40.7563 196.141 40.6563 196.261 40.5896C196.308 40.563 196.364 40.5496 196.431 40.5496C196.571 40.5496 196.688 40.5996 196.781 40.6996C196.954 40.8796 197.168 41.0263 197.421 41.1396C197.681 41.2463 197.958 41.2996 198.251 41.2996C198.651 41.2996 198.974 41.2163 199.221 41.0496C199.474 40.8763 199.601 40.6396 199.601 40.3396C199.601 40.073 199.504 39.8496 199.311 39.6696C199.118 39.4896 198.871 39.393 198.571 39.3796H198.061C197.934 39.3796 197.831 39.3496 197.751 39.2896C197.671 39.223 197.631 39.143 197.631 39.0496C197.631 38.9563 197.671 38.8796 197.751 38.8196C197.831 38.7596 197.934 38.7296 198.061 38.7296H198.571C198.818 38.723 199.018 38.643 199.171 38.4896C199.324 38.3296 199.401 38.1296 199.401 37.8896C199.401 37.6496 199.294 37.453 199.081 37.2996C198.868 37.1463 198.588 37.0696 198.241 37.0696C197.641 37.0696 197.191 37.2596 196.891 37.6396C196.804 37.7396 196.698 37.7896 196.571 37.7896C196.504 37.7896 196.434 37.7696 196.361 37.7296C196.261 37.6696 196.211 37.583 196.211 37.4696C196.211 37.3896 196.241 37.3096 196.301 37.2296C196.521 36.9696 196.798 36.7596 197.131 36.5996C197.464 36.4396 197.831 36.3596 198.231 36.3596C198.591 36.3596 198.918 36.4263 199.211 36.5596C199.511 36.6863 199.744 36.863 199.911 37.0896C200.078 37.3096 200.161 37.5563 200.161 37.8296C200.161 38.103 200.074 38.3463 199.901 38.5596C199.728 38.773 199.501 38.9263 199.221 39.0196Z" fill="white"/>
</svg>
