<svg width="44" height="44" viewBox="0 0 44 44" fill="none" xmlns="http://www.w3.org/2000/svg">
<path d="M44 22C44 9.84974 34.1503 0 22 0C9.84974 0 0 9.84974 0 22C0 34.1503 9.84974 44 22 44C34.1503 44 44 34.1503 44 22Z" fill="#312B1F"/>
<path fill-rule="evenodd" clip-rule="evenodd" d="M9.71419 17.2775C9.80099 17.353 9.91009 17.398 10.0248 17.4054H10.1048H10.1083H34.6242H34.6277H34.7076C34.8223 17.398 34.9314 17.353 35.0182 17.2775C35.105 17.202 35.1647 17.1001 35.1882 16.9874C35.2116 16.8747 35.1975 16.7573 35.1481 16.6534C35.0987 16.5494 35.0166 16.4646 34.9144 16.4118L22.6147 11.0434C22.5495 11.0148 22.4791 11 22.4079 11C22.394 11 22.3801 11.0006 22.3662 11.0017C22.3524 11.0006 22.3384 11 22.3245 11C22.2533 11 22.1829 11.0148 22.1177 11.0434L9.81799 16.4118C9.71579 16.4646 9.63369 16.5494 9.58429 16.6534C9.53489 16.7573 9.52079 16.8747 9.54429 16.9874C9.56769 17.1001 9.62739 17.202 9.71419 17.2775ZM22.3662 12.0994L12.5899 16.3697H32.1425L22.3662 12.0994ZM13.0366 18.12H13.1289H31.6036H31.6958C33.0155 18.12 34.0898 19.0908 34.0898 20.2828C34.0898 21.4748 33.0155 22.4456 31.6958 22.4456C31.6804 22.4456 31.665 22.4455 31.6497 22.4452C31.6343 22.4455 31.619 22.4456 31.6036 22.4456C30.2839 22.4456 29.2113 21.4748 29.2113 20.2828C29.2113 20.1454 29.2657 20.0137 29.3627 19.9166C29.4597 19.8195 29.5912 19.7649 29.7283 19.7649C29.8654 19.7649 29.9969 19.8195 30.0939 19.9166C30.1036 19.9264 30.1129 19.9365 30.1218 19.9469C30.1338 19.9553 30.1455 19.9642 30.1568 19.9737C30.2513 20.0524 30.3152 20.1618 30.3376 20.2828C30.3376 20.8914 30.9226 21.3889 31.6497 21.4092C32.3785 21.3889 32.9636 20.8914 32.9636 20.2828C32.9636 19.6613 32.3537 19.1557 31.6036 19.1557H13.1289C12.3788 19.1557 11.7689 19.6613 11.7689 20.2828C11.7689 20.8914 12.3539 21.3889 13.0827 21.4092C13.8098 21.3889 14.3949 20.8914 14.3949 20.2828C14.4172 20.1618 14.4812 20.0524 14.5756 19.9737C14.5869 19.9642 14.5986 19.9553 14.6106 19.9469C14.6195 19.9365 14.6288 19.9264 14.6386 19.9166C14.7355 19.8195 14.867 19.7649 15.0041 19.7649C15.1413 19.7649 15.2728 19.8195 15.3697 19.9166C15.4667 20.0137 15.5212 20.1454 15.5212 20.2828C15.5212 21.4748 14.4486 22.4456 13.1289 22.4456C13.1135 22.4456 13.0981 22.4455 13.0827 22.4452C13.0674 22.4455 13.052 22.4456 13.0366 22.4456C11.7169 22.4456 10.6426 21.4748 10.6426 20.2828C10.6426 19.0908 11.7169 18.12 13.0366 18.12ZM24.2641 28.8884C24.1246 28.8884 23.9909 28.8329 23.8923 28.7341C23.7937 28.6354 23.7383 28.5014 23.7383 28.3617V21.8487C23.7606 21.7277 23.8246 21.6183 23.919 21.5396C24.0134 21.4609 24.1324 21.4178 24.2553 21.4178C24.2908 21.4178 24.326 21.4214 24.3604 21.4284C24.3947 21.4214 24.4299 21.4178 24.4654 21.4178C24.5883 21.4178 24.7073 21.4609 24.8017 21.5396C24.8961 21.6183 24.9601 21.7277 24.9824 21.8487V28.3617C24.9824 28.5014 24.927 28.6354 24.8284 28.7341C24.7298 28.8329 24.5961 28.8884 24.4566 28.8884C24.424 28.8873 24.3918 28.8832 24.3604 28.8762C24.3289 28.8832 24.2967 28.8873 24.2641 28.8884ZM19.904 28.7341C20.0026 28.8329 20.1363 28.8884 20.2758 28.8884C20.3084 28.8873 20.3406 28.8832 20.3721 28.8762C20.4035 28.8832 20.4357 28.8873 20.4684 28.8884C20.6078 28.8884 20.7415 28.8329 20.8401 28.7341C20.9387 28.6354 20.9941 28.5014 20.9941 28.3617V21.8487C20.9718 21.7277 20.9079 21.6183 20.8134 21.5396C20.719 21.4609 20.6 21.4178 20.4771 21.4178C20.4416 21.4178 20.4064 21.4214 20.3721 21.4284C20.3377 21.4214 20.3025 21.4178 20.267 21.4178C20.1442 21.4178 20.0252 21.4609 19.9307 21.5396C19.8363 21.6183 19.7723 21.7277 19.75 21.8487V28.3617C19.75 28.5014 19.8054 28.6354 19.904 28.7341ZM22.9356 20.9569V31.3531H31.7182H31.8335C31.9543 31.3755 32.0635 31.4395 32.1421 31.5342C32.2206 31.6288 32.2637 31.7479 32.2637 31.871C32.2637 31.9941 32.2206 32.1133 32.1421 32.2079C32.0635 32.3025 31.9543 32.3665 31.8335 32.3889H31.7182H13.0142H12.8989C12.7781 32.3665 12.6689 32.3025 12.5904 32.2079C12.5118 32.1133 12.4687 31.9941 12.4687 31.871C12.4687 31.7479 12.5118 31.6288 12.5904 31.5342C12.6689 31.4395 12.7781 31.3755 12.8989 31.3531H13.0142H21.7968V20.9569H18.5927H18.4844C18.4086 20.9709 18.3306 20.9681 18.2559 20.9485C18.1813 20.929 18.1119 20.8933 18.0526 20.8438C17.9933 20.7944 17.9455 20.7325 17.9128 20.6625C17.88 20.5926 17.8631 20.5163 17.8631 20.439C17.8631 20.3617 17.88 20.2854 17.9128 20.2154C17.9455 20.1455 17.9933 20.0836 18.0526 20.0341C18.1119 19.9847 18.1813 19.949 18.2559 19.9294C18.3306 19.9099 18.4086 19.9071 18.4844 19.9211H18.5927H26.1397H26.248C26.3238 19.9071 26.4019 19.9099 26.4765 19.9294C26.5511 19.949 26.6206 19.9847 26.6799 20.0341C26.7392 20.0836 26.7869 20.1455 26.8196 20.2154C26.8524 20.2854 26.8694 20.3617 26.8694 20.439C26.8694 20.5163 26.8524 20.5926 26.8196 20.6625C26.7869 20.7325 26.7392 20.7944 26.6799 20.8438C26.6206 20.8933 26.5511 20.929 26.4765 20.9485C26.4019 20.9681 26.3238 20.9709 26.248 20.9569H26.1397H22.9356Z" fill="white"/>
</svg>
