<svg width="276" height="100" viewBox="0 0 276 100" fill="none" xmlns="http://www.w3.org/2000/svg">
<rect width="276" height="100" fill="white"/>
<path fill-rule="evenodd" clip-rule="evenodd" d="M97.8506 15.0608L133.311 71.8913L123.473 71.8858L93.1368 22.2933L97.8506 15.0608Z" fill="#2B2A29"/>
<path fill-rule="evenodd" clip-rule="evenodd" d="M68.771 59.9005L76.2728 71.9245H61L68.771 59.9005Z" fill="#2B2A29"/>
<path d="M162.668 15.069L162.864 71.6373L147.268 71.64L147.265 41.9641L135.501 59.779L107.303 15.1049L126.158 15.0746L135.65 29.9402L146.348 15L162.668 15.069Z" fill="#2B2A29" stroke="#2B2A29" stroke-width="0.287608" stroke-miterlimit="22.9256"/>
<path fill-rule="evenodd" clip-rule="evenodd" d="M88.1918 29.6861L113.967 71.9134L104.515 71.8886L83.3122 37.1396L88.1918 29.6861Z" fill="#2B2A29"/>
<path fill-rule="evenodd" clip-rule="evenodd" d="M78.5331 44.8886L95.1143 71.8941L85.6378 71.9355L73.6235 52.2924L78.5331 44.8886Z" fill="#2B2A29"/>
<path d="M213.959 84.3405L198.058 84.3019L198.031 72.104L146.955 71.941V67.1663V63.8772L146.952 61.4277V61.331V60.5606L146.955 59.768V57.5643V56.1862V54.046V50.71V48.5836L146.936 44.1292L146.952 42.2706L146.944 36.5182L146.936 34.3504L146.947 28.8079L147.074 15.069H162.927L162.81 55.9045L177.84 55.9183L186.868 55.888L186.955 36.9601L186.62 25.6072L186.593 15.069L202.769 15.1132L202.804 61.1985L214 61.2344L213.959 84.3405Z" fill="#2B2A29" stroke="#2B2A29" stroke-width="0.287608" stroke-miterlimit="22.9256"/>
<path d="M63.9158 75.6554L66.149 82.6449H65.7491L64.9902 80.223H62.3491L61.5848 82.6449H61.1931L63.4344 75.6554H63.9158ZM64.8842 79.8916L64.2613 77.895C64.0899 77.3648 63.905 76.7269 63.701 75.9868H63.6357C63.4834 76.5612 63.2984 77.1908 63.0754 77.884L62.4443 79.8889H64.8814L64.8842 79.8916ZM68.7928 81.659C68.9179 81.1178 68.9805 80.2534 68.9805 79.0659V77.8895H71.7821V82.6477H71.4339V78.2126H69.3259V79.0576C69.3259 80.3003 69.2606 81.1896 69.1301 81.7198C68.9614 82.4102 68.6269 82.7526 68.121 82.7526C68.0149 82.7526 67.9224 82.7499 67.849 82.7443L67.8218 82.3936C67.9224 82.413 68.023 82.4212 68.121 82.4212C68.4501 82.4212 68.6704 82.1672 68.7901 81.6618L68.7928 81.659ZM77.6083 77.8895V78.2126H76.0198V82.6477H75.6717V78.2126H74.1158V77.8895H77.6056H77.6083ZM79.8251 78.9637C80.1162 78.1794 80.6738 77.7873 81.4979 77.7873C82.0229 77.7873 82.4064 77.9309 82.643 78.2126C82.8579 78.4722 82.9667 78.8588 82.9667 79.3725V80.93C82.9667 81.6867 83.0048 82.2611 83.0837 82.6504H82.7518C82.7029 82.435 82.6648 82.123 82.6349 81.7198C82.1997 82.4102 81.653 82.7554 80.9893 82.7554C80.5242 82.7554 80.1706 82.609 79.923 82.3191C79.719 82.0816 79.6184 81.7778 79.6184 81.405C79.6184 80.5461 80.1107 80.0325 81.0954 79.8585C81.4762 79.7895 81.9821 79.737 82.6158 79.7038V79.4387C82.6158 78.9168 82.5152 78.555 82.3194 78.359C82.1453 78.185 81.8706 78.0994 81.4952 78.0994C80.8016 78.0994 80.3528 78.4446 80.1434 79.135L79.8224 78.9637H79.8251ZM82.6186 79.9993C82.1045 80.0187 81.6176 80.0711 81.1579 80.1567C80.3718 80.3142 79.9774 80.7284 79.9774 81.3939C79.9774 81.7391 80.0808 82.0015 80.2821 82.1837C80.4616 82.3467 80.701 82.4295 81.0002 82.4295C81.6394 82.4295 82.1779 82.0567 82.6213 81.3083V79.9993H82.6186ZM85.7928 77.8922H86.1328V81.0018C86.1328 81.4326 86.1246 81.8744 86.1083 82.3191H86.1328C86.1818 82.2252 86.2498 82.0898 86.3368 81.9159C86.5136 81.5651 86.6469 81.3138 86.7366 81.1592L88.5862 77.895H89.0867V82.6532H88.7494V79.436C88.7494 79.2289 88.7603 78.8091 88.7848 78.1794H88.7603C88.5346 78.6379 88.3387 79.0162 88.1646 79.32L86.2634 82.6532H85.7982V77.895L85.7928 77.8922ZM86.7366 75.7548C86.7774 76.2878 87.0114 76.5529 87.4411 76.5529C87.86 76.5529 88.0939 76.2878 88.1456 75.7548H88.3741C88.3741 76.1663 88.2816 76.4728 88.0966 76.6771C87.9389 76.8539 87.7186 76.9423 87.4411 76.9423C87.1229 76.9423 86.8808 76.8263 86.7203 76.5943C86.5789 76.3927 86.5054 76.1138 86.5054 75.7548H86.7366ZM95.0136 79.077L94.6818 79.2206C94.475 78.4805 94.0589 78.1104 93.4306 78.1104C92.9682 78.1104 92.6064 78.323 92.348 78.7511C92.1141 79.135 91.9944 79.6403 91.9944 80.2672C91.9944 80.988 92.1467 81.5431 92.4459 81.938C92.7016 82.2694 93.028 82.4323 93.4278 82.4323C94.0779 82.4323 94.5077 82.0595 94.7171 81.3111L95.0435 81.474C94.7389 82.3301 94.2003 82.7554 93.4278 82.7554C92.8594 82.7554 92.4106 82.5041 92.0814 82.0015C91.7877 81.5569 91.6381 80.9825 91.6381 80.2783C91.6381 79.4719 91.8285 78.8395 92.212 78.3783C92.533 77.9861 92.9382 77.7901 93.4278 77.7901C93.8141 77.7901 94.1459 77.9088 94.4261 78.1518C94.6899 78.3755 94.883 78.6876 95.0082 79.0797L95.0136 79.077ZM98.5088 80.0573L97.7608 80.883V82.6504H97.4154V77.8922H97.7608V80.4854L99.9858 77.8922H100.429L98.74 79.8226L100.647 82.6504H100.209L98.5088 80.0573ZM102.872 77.8922H103.209V81.0018C103.209 81.4326 103.201 81.8744 103.184 82.3191H103.209C103.258 82.2252 103.326 82.0898 103.413 81.9159C103.59 81.5651 103.723 81.3138 103.813 81.1592L105.662 77.895H106.163V82.6532H105.823V79.436C105.823 79.2289 105.834 78.8091 105.858 78.1794H105.834C105.608 78.6379 105.412 79.0162 105.238 79.32L103.334 82.6532H102.869V77.895L102.872 77.8922ZM109.019 77.8922H109.356V81.0018C109.356 81.4326 109.348 81.8744 109.332 82.3191H109.356C109.405 82.2252 109.473 82.0898 109.56 81.9159C109.737 81.5651 109.87 81.3138 109.96 81.1592L111.81 77.895H112.31V82.6532H111.97V79.436C111.97 79.2289 111.981 78.8091 112.005 78.1794H111.981C111.755 78.6379 111.559 79.0162 111.385 79.32L109.481 82.6532H109.016V77.895L109.019 77.8922ZM109.96 75.7548C110.001 76.2878 110.235 76.5529 110.664 76.5529C111.083 76.5529 111.317 76.2878 111.369 75.7548H111.597C111.597 76.1663 111.505 76.4728 111.317 76.6771C111.16 76.8539 110.939 76.9423 110.662 76.9423C110.344 76.9423 110.101 76.8263 109.941 76.5943C109.8 76.3927 109.726 76.1138 109.726 75.7548H109.955H109.96ZM121.466 77.8922V82.6504H121.126V79.4249C121.126 79.2371 121.134 79.0134 121.147 78.7483C121.158 78.497 121.166 78.3037 121.169 78.1684H121.126C120.903 78.8837 120.772 79.2924 120.734 79.3973L119.545 82.6504H119.116L117.924 79.3973C117.883 79.2841 117.753 78.8726 117.532 78.1684H117.489C117.516 78.9444 117.532 79.3642 117.532 79.4249V82.6504H117.192V77.8922H117.709L118.901 81.1095C119.026 81.4409 119.164 81.8634 119.317 82.3826H119.349C119.545 81.7502 119.681 81.3304 119.757 81.1261L120.949 77.8895H121.466V77.8922ZM124.21 78.9665C124.501 78.1822 125.061 77.7901 125.883 77.7901C126.408 77.7901 126.791 77.9337 127.028 78.2154C127.243 78.4749 127.349 78.8616 127.349 79.3752V80.9327C127.349 81.6894 127.387 82.2638 127.466 82.6532H127.134C127.085 82.4378 127.047 82.1257 127.017 81.7226C126.582 82.413 126.035 82.7582 125.372 82.7582C124.906 82.7582 124.553 82.6118 124.305 82.3218C124.101 82.0843 124.001 81.7806 124.001 81.4077C124.001 80.5489 124.493 80.0352 125.478 79.8613C125.858 79.7922 126.364 79.7397 126.998 79.7066V79.4415C126.998 78.9196 126.9 78.5578 126.702 78.3617C126.528 78.1877 126.253 78.1021 125.877 78.1021C125.184 78.1021 124.735 78.4473 124.526 79.1377L124.205 78.9665H124.21ZM127.004 80.0021C126.489 80.0214 126.005 80.0739 125.543 80.1595C124.757 80.3169 124.36 80.7311 124.36 81.3967C124.36 81.7419 124.463 82.0042 124.664 82.1865C124.844 82.3494 125.083 82.4323 125.382 82.4323C126.019 82.4323 126.56 82.0595 127.004 81.3111V80.0021ZM130.55 81.6646C130.676 81.1233 130.738 80.2589 130.738 79.0714V77.895H133.542V82.6532H133.194V78.2181H131.086V79.0632C131.086 80.3059 131.021 81.1951 130.89 81.7253C130.722 82.4157 130.384 82.7582 129.881 82.7582C129.775 82.7582 129.683 82.7554 129.609 82.7499L129.582 82.3991C129.683 82.4185 129.783 82.4268 129.881 82.4268C130.21 82.4268 130.431 82.1727 130.55 81.6673V81.6646ZM138.879 77.895V82.6532H138.542V80.3556H137.533C137.416 80.3556 137.329 80.3528 137.277 80.3473L136.192 82.656H135.808L136.929 80.3114C136.254 80.1678 135.917 79.7729 135.917 79.1184C135.917 78.3037 136.412 77.8978 137.402 77.8978H138.879V77.895ZM138.542 78.2071H137.421C136.975 78.2071 136.66 78.2982 136.477 78.4749C136.33 78.6213 136.257 78.8367 136.257 79.1239C136.257 79.4608 136.363 79.6983 136.575 79.8447C136.766 79.98 137.059 80.049 137.456 80.049H138.542V78.2071ZM142.072 77.895V78.7124C142.26 78.4004 142.488 78.1629 142.755 77.9999C142.984 77.8619 143.217 77.7901 143.457 77.7901C144.006 77.7901 144.444 78.0414 144.768 78.544C145.056 78.9914 145.203 79.5658 145.203 80.2672C145.203 81.0708 145.01 81.7032 144.626 82.1672C144.3 82.5593 143.895 82.7554 143.413 82.7554C142.872 82.7554 142.429 82.4544 142.078 81.8524V84.3129H141.732V77.8922H142.072V77.895ZM142.08 79.146V81.4464C142.301 81.8192 142.524 82.0843 142.752 82.2362C142.945 82.3632 143.166 82.4268 143.408 82.4268C143.862 82.4268 144.218 82.2141 144.488 81.7888C144.73 81.3995 144.852 80.8941 144.852 80.2727C144.852 79.563 144.705 79.0107 144.409 78.6213C144.164 78.2982 143.846 78.1353 143.462 78.1353C142.907 78.1353 142.45 78.4749 142.083 79.1488L142.08 79.146ZM150.991 77.895V82.6532H150.643V80.2976H148.103V82.6532H147.754V77.895H148.103V79.9745H150.643V77.895H150.991ZM153.85 77.895H154.195V79.8613H155.572C156.08 79.8613 156.464 80.0021 156.725 80.2838C156.948 80.524 157.06 80.8527 157.06 81.2669C157.06 81.7253 156.918 82.076 156.635 82.3246C156.38 82.5455 156.037 82.6532 155.607 82.6532H153.853V77.895H153.85ZM154.195 82.3301H155.583C156.331 82.3301 156.703 81.9766 156.703 81.2669C156.703 80.5461 156.32 80.1844 155.555 80.1844H154.195V82.3301ZM158.289 77.9033V82.6615H157.941V77.9033H158.289ZM161.148 77.895H161.485V81.0045C161.485 81.4354 161.477 81.8772 161.46 82.3218H161.485C161.534 82.2279 161.602 82.0926 161.689 81.9186C161.866 81.5679 161.999 81.3166 162.089 81.162L163.941 77.8978H164.442V82.656H164.102V79.4387C164.102 79.2316 164.112 78.8118 164.137 78.1822H164.112C163.889 78.6406 163.691 79.019 163.517 79.3227L161.616 82.656H161.15V77.8978L161.148 77.895ZM162.089 75.7575C162.13 76.2905 162.366 76.5556 162.793 76.5556C163.212 76.5556 163.446 76.2905 163.498 75.7575H163.726C163.726 76.169 163.634 76.4756 163.446 76.6799C163.288 76.8567 163.068 76.945 162.791 76.945C162.472 76.945 162.23 76.829 162.07 76.5971C161.928 76.3955 161.858 76.1165 161.858 75.7575H162.086H162.089ZM172.213 82.3301V77.895H172.561V82.3301H173.069V83.5452H172.738V82.6532H169.321V77.895H169.669V82.3301H172.21H172.213ZM178.893 80.2313H175.664C175.664 80.9825 175.833 81.5569 176.165 81.9573C176.431 82.2749 176.76 82.435 177.16 82.435C177.541 82.435 177.84 82.3356 178.063 82.1423C178.256 81.9711 178.414 81.7143 178.528 81.3718L178.86 81.5431C178.528 82.3522 177.96 82.7582 177.152 82.7582C176.578 82.7582 176.121 82.5068 175.779 82.0042C175.471 81.5569 175.319 80.9825 175.319 80.281C175.319 79.4774 175.512 78.8422 175.901 78.381C176.23 77.9889 176.638 77.7928 177.128 77.7928C177.68 77.7928 178.123 78.0358 178.455 78.5191C178.749 78.9472 178.893 79.4857 178.893 80.1374V80.2341V80.2313ZM178.537 79.9082C178.488 79.2951 178.319 78.8312 178.031 78.5136C177.789 78.2485 177.487 78.1132 177.122 78.1132C176.706 78.1132 176.366 78.2927 176.097 78.6517C175.857 78.972 175.719 79.3918 175.681 79.9082H178.534H178.537ZM184.662 77.895V82.6532H184.314V80.2976H181.773V82.6532H181.425V77.895H181.773V79.9745H184.314V77.895H184.662ZM190.488 77.895V78.2181H188.9V82.6532H188.554V78.2181H186.999V77.895H190.488ZM193.162 77.895V78.7124C193.35 78.4004 193.578 78.1629 193.845 77.9999C194.073 77.8619 194.307 77.7901 194.547 77.7901C195.096 77.7901 195.534 78.0414 195.858 78.544C196.146 78.9914 196.293 79.5658 196.293 80.2672C196.293 81.0708 196.1 81.7032 195.713 82.1672C195.387 82.5593 194.982 82.7554 194.503 82.7554C193.962 82.7554 193.516 82.4544 193.168 81.8524V84.3129H192.822V77.8922H193.162V77.895ZM193.17 79.146V81.4464C193.393 81.8192 193.614 82.0843 193.842 82.2362C194.035 82.3632 194.256 82.4268 194.498 82.4268C194.949 82.4268 195.308 82.2141 195.577 81.7888C195.82 81.3995 195.942 80.8941 195.942 80.2727C195.942 79.563 195.792 79.0107 195.499 78.6213C195.254 78.2982 194.936 78.1353 194.552 78.1353C194 78.1353 193.54 78.4749 193.173 79.1488L193.17 79.146Z" fill="#2B2A29" stroke="#2B2A29" stroke-width="0.287608" stroke-miterlimit="22.9256"/>
</svg>
