<svg width="276" height="100" viewBox="0 0 276 100" fill="none" xmlns="http://www.w3.org/2000/svg">
<rect y="0.000976562" width="276" height="100" rx="10" fill="white"/>
<rect y="0.000976562" width="276" height="100" rx="10" stroke="#F3F0EB"/>
<path fill-rule="evenodd" clip-rule="evenodd" d="M34.3789 41.7058C34.5615 41.8556 34.791 41.9448 35.0323 41.9597H35.2009C35.2013 41.9597 35.2016 41.9597 35.2019 41.9597H35.2093H86.9638C87.2051 41.9449 87.4346 41.8557 87.6172 41.7058C87.7998 41.556 87.9254 41.3537 87.9748 41.13C88.0241 40.9062 87.9945 40.6734 87.8905 40.4671C87.7865 40.2607 87.6138 40.0923 87.3989 39.9876L61.5216 29.3323C61.3844 29.2755 61.2363 29.2462 61.0865 29.2462C61.0571 29.2462 61.0277 29.2473 60.9984 29.2495C60.9689 29.2472 60.9393 29.2461 60.9096 29.2461C60.7598 29.2461 60.6117 29.2754 60.4745 29.3322L34.5972 39.9875C34.3823 40.0922 34.2096 40.2607 34.1056 40.467C34.0016 40.6733 33.972 40.9062 34.0213 41.1299C34.0707 41.3536 34.1963 41.5559 34.3789 41.7058ZM60.9981 31.4284L40.4306 39.9039H81.5656L60.9981 31.4284ZM41.3708 43.3779H80.4337C80.4427 43.3779 80.4517 43.3779 80.4608 43.378H80.6253C83.4018 43.378 85.6621 45.3049 85.6621 47.6708C85.6621 50.0367 83.4018 51.9635 80.6253 51.9635C80.5927 51.9635 80.5601 51.9633 80.5276 51.9627C80.4964 51.9632 80.4651 51.9635 80.4337 51.9635C77.6572 51.9635 75.4006 50.0366 75.4006 47.6707C75.4006 47.3981 75.5152 47.1366 75.7192 46.9439C75.9232 46.7511 76.1998 46.6428 76.4883 46.6428C76.7768 46.6428 77.0535 46.7511 77.2575 46.9439C77.2794 46.9646 77.3003 46.9861 77.3201 47.0083C77.3432 47.0238 77.3656 47.0401 77.3874 47.0573C77.5861 47.2135 77.7207 47.4306 77.7677 47.6708C77.7677 48.8788 78.9985 49.8663 80.5284 49.9065C82.0629 49.8673 83.295 48.8794 83.295 47.6707C83.295 46.4428 82.0234 45.4428 80.455 45.4338H41.5624C39.9842 45.4338 38.7011 46.4373 38.7011 47.6708C38.7011 48.8788 39.932 49.8663 41.4653 49.9065C42.9963 49.8673 44.2284 48.8794 44.2284 47.6707C44.2754 47.4305 44.4099 47.2134 44.6086 47.0572C44.6306 47.04 44.6531 47.0236 44.6762 47.0081C44.696 46.986 44.7168 46.9646 44.7386 46.9439C44.9426 46.7512 45.2193 46.6429 45.5078 46.6429C45.7963 46.6429 46.0729 46.7512 46.2769 46.9439C46.4809 47.1367 46.5955 47.3981 46.5955 47.6708C46.5955 50.0367 44.3389 51.9635 41.5624 51.9635C41.5298 51.9635 41.4972 51.9633 41.4647 51.9627C41.4335 51.9632 41.4022 51.9635 41.3708 51.9635C38.5943 51.9635 36.334 50.0366 36.334 47.6707C36.334 45.3048 38.5943 43.3779 41.3708 43.3779ZM64.9892 64.7511C64.6958 64.7511 64.4145 64.6409 64.207 64.4449C63.9996 64.2489 63.883 63.983 63.883 63.7057V50.7786C63.93 50.5384 64.0646 50.3214 64.2633 50.1652C64.462 50.0089 64.7123 49.9234 64.9708 49.9234C65.0454 49.9234 65.1194 49.9305 65.1916 49.9444C65.2637 49.9305 65.3375 49.9234 65.412 49.9234C65.6705 49.9234 65.9208 50.009 66.1196 50.1652C66.3183 50.3215 66.4528 50.5385 66.4998 50.7787V63.7058C66.4998 63.983 66.3832 64.2489 66.1758 64.445C65.9683 64.641 65.687 64.7511 65.3936 64.7511C65.3251 64.749 65.2574 64.7409 65.1913 64.7271C65.1253 64.7408 65.0577 64.7489 64.9892 64.7511ZM55.8203 64.4449C56.0278 64.6409 56.3091 64.7511 56.6025 64.7511C56.6709 64.7489 56.7386 64.7408 56.8046 64.7271C56.8706 64.7409 56.9383 64.749 57.0069 64.7511C57.3003 64.7511 57.5816 64.641 57.7891 64.445C57.9965 64.2489 58.1131 63.983 58.1131 63.7058V50.7787C58.0661 50.5385 57.9315 50.3215 57.7328 50.1652C57.5341 50.009 57.2838 49.9234 57.0253 49.9234C56.9508 49.9234 56.877 49.9305 56.8048 49.9444C56.7326 49.9305 56.6587 49.9234 56.5841 49.9234C56.3256 49.9234 56.0752 50.0089 55.8765 50.1652C55.6778 50.3214 55.5433 50.5384 55.4963 50.7786V63.7057C55.4963 63.983 55.6129 64.2489 55.8203 64.4449ZM53.0574 49.0086H52.8324C52.6728 49.0364 52.5087 49.0308 52.3516 48.992C52.1946 48.9532 52.0485 48.8823 51.9238 48.7842C51.799 48.6861 51.6986 48.5633 51.6297 48.4244C51.5608 48.2855 51.5251 48.134 51.5251 47.9807C51.5251 47.8273 51.5608 47.6758 51.6297 47.5369C51.6986 47.3981 51.799 47.2752 51.9238 47.1771C52.0485 47.079 52.1946 47.0081 52.3516 46.9693C52.5087 46.9305 52.6728 46.9249 52.8324 46.9528H68.9384C68.9385 46.9528 68.9386 46.9528 68.9387 46.9528H69.1637C69.3233 46.9249 69.4874 46.9306 69.6445 46.9694C69.8015 47.0081 69.9476 47.0791 70.0723 47.1772C70.1971 47.2753 70.2975 47.3981 70.3664 47.537C70.4353 47.6759 70.471 47.8273 70.471 47.9807C70.471 48.1341 70.4353 48.2856 70.3664 48.4245C70.2975 48.5633 70.1971 48.6862 70.0723 48.7843C69.9476 48.8824 69.8015 48.9533 69.6445 48.9921C69.4874 49.0309 69.3233 49.0365 69.1637 49.0086H62.1948V69.6431H80.6749C80.6789 69.6431 80.6828 69.6432 80.6868 69.6432H80.915C81.1692 69.6876 81.3989 69.8147 81.5642 70.0025C81.7296 70.1903 81.8201 70.4268 81.8201 70.6711C81.8201 70.9154 81.7296 71.1519 81.5642 71.3397C81.3989 71.5274 81.1692 71.6546 80.915 71.699H41.3212C41.3172 71.699 41.3133 71.699 41.3093 71.6989H41.0811C40.8269 71.6545 40.5972 71.5274 40.4319 71.3396C40.2665 71.1518 40.176 70.9153 40.176 70.671C40.176 70.4268 40.2665 70.1902 40.4319 70.0024C40.5972 69.8147 40.8269 69.6875 41.0811 69.6431H59.8013V49.0086H53.0577C53.0576 49.0086 53.0575 49.0086 53.0574 49.0086Z" fill="#A09784"/>
<path d="M111.301 31.1396C110.28 31.1037 109.261 31.2612 108.306 31.6027C107.351 31.9441 106.479 32.4627 105.741 33.1274C104.384 34.5624 103.635 36.4156 103.635 38.3356C103.635 40.2556 104.384 42.1088 105.741 43.5437C106.478 44.2088 107.351 44.7275 108.306 45.069C109.261 45.4105 110.28 45.5678 111.301 45.5315C112.318 45.5699 113.333 45.4135 114.284 45.0718C115.235 44.7301 116.102 44.2102 116.833 43.5437C118.19 42.1077 118.94 40.2534 118.94 38.3323C118.94 36.4111 118.19 34.5568 116.833 33.1208C116.102 32.4545 115.235 31.9352 114.284 31.5946C113.333 31.254 112.318 31.0992 111.301 31.1396ZM115.395 38.3157C115.419 39.0616 115.218 39.7987 114.817 40.4427C114.456 41.0071 113.935 41.4666 113.314 41.7705C112.692 42.0745 111.993 42.2112 111.294 42.1655C110.593 42.1797 109.899 42.0342 109.271 41.7414C108.589 41.4457 108.02 40.9595 107.641 40.349C107.263 39.7384 107.094 39.0331 107.157 38.3289C107.132 37.8163 107.221 37.3043 107.418 36.8257C107.616 36.3472 107.917 35.9125 108.303 35.5496C108.689 35.1867 109.151 34.9035 109.66 34.718C110.169 34.5326 110.713 34.449 111.259 34.4725C112.298 34.4455 113.307 34.7968 114.077 35.4532C114.509 35.8083 114.852 36.2495 115.08 36.7446C115.308 37.2398 115.416 37.7765 115.395 38.3157Z" fill="#312B1F"/>
<path d="M129.418 31.1394C128.397 31.1043 127.378 31.2621 126.423 31.6036C125.468 31.945 124.596 32.4631 123.858 33.1273C122.502 34.5629 121.754 36.4158 121.754 38.3354C121.754 40.255 122.502 42.108 123.858 43.5436C124.594 44.2084 125.465 44.7271 126.419 45.0686C127.373 45.4101 128.391 45.5675 129.411 45.5314C130.443 45.5731 131.474 45.4178 132.441 45.075C133.409 44.7321 134.292 44.2088 135.038 43.5365C135.785 42.8642 136.379 42.0568 136.784 41.1629C137.19 40.2691 137.399 39.3073 137.399 38.3354C137.399 37.3636 137.19 36.4017 136.784 35.5079C136.379 34.6141 135.785 33.8067 135.038 33.1343C134.292 32.462 133.409 31.9387 132.441 31.5959C131.474 31.253 130.443 31.0978 129.411 31.1394H129.418ZM133.512 38.3155C133.538 39.0608 133.34 39.7979 132.941 40.4425C132.578 41.0059 132.058 41.4645 131.436 41.7684C130.815 42.0722 130.117 42.2095 129.418 42.1653C128.723 42.1733 128.036 42.0232 127.416 41.728C126.734 41.4323 126.165 40.9461 125.786 40.3356C125.408 39.725 125.239 39.0197 125.302 38.3155C125.313 37.567 125.552 36.8371 125.99 36.2125C126.429 35.5879 127.049 35.0948 127.777 34.792C128.506 34.4891 129.311 34.3892 130.097 34.504C130.884 34.6189 131.619 34.9436 132.215 35.4398C132.645 35.7982 132.985 36.2424 133.209 36.7399C133.434 37.2374 133.537 37.7757 133.512 38.3155Z" fill="#312B1F"/>
<path d="M147.536 31.1394C146.516 31.1037 145.499 31.2613 144.545 31.6028C143.591 31.9443 142.72 32.4627 141.983 33.1273C140.626 34.5622 139.877 36.4154 139.877 38.3354C139.877 40.2554 140.626 42.1086 141.983 43.5436C142.719 44.2084 143.59 44.7271 144.545 45.0686C145.499 45.4101 146.516 45.5675 147.536 45.5314C148.569 45.5731 149.6 45.4178 150.567 45.075C151.534 44.7321 152.417 44.2088 153.164 43.5365C153.91 42.8642 154.504 42.0568 154.91 41.1629C155.315 40.2691 155.525 39.3073 155.525 38.3354C155.525 37.3636 155.315 36.4017 154.91 35.5079C154.504 34.6141 153.91 33.8067 153.164 33.1343C152.417 32.462 151.534 31.9387 150.567 31.5959C149.6 31.253 148.569 31.0978 147.536 31.1394ZM151.637 38.3155C151.661 39.0615 151.461 39.7986 151.06 40.4425C150.697 41.0064 150.177 41.4655 149.555 41.7694C148.934 42.0733 148.235 42.2103 147.536 42.1653C146.841 42.1725 146.155 42.0225 145.535 41.728C144.852 41.4323 144.283 40.9461 143.905 40.3356C143.527 39.725 143.357 39.0197 143.421 38.3155C143.431 37.567 143.67 36.8371 144.109 36.2125C144.548 35.5879 145.168 35.0948 145.896 34.792C146.624 34.4891 147.429 34.3892 148.216 34.504C149.003 34.6189 149.738 34.9436 150.334 35.4398C150.766 35.797 151.107 36.2408 151.333 36.7384C151.559 37.2361 151.663 37.775 151.637 38.3155Z" fill="#312B1F"/>
<path d="M177.83 42.1123V40.9262H177.907V40.7009H177.809V32.8423C177.833 32.6157 177.803 32.3868 177.722 32.1723C177.64 31.9578 177.509 31.7629 177.338 31.6019C177.167 31.4408 176.96 31.3175 176.731 31.241C176.503 31.1645 176.26 31.1366 176.019 31.1593C175.782 31.1405 175.543 31.1679 175.317 31.2397C175.092 31.3115 174.884 31.4263 174.708 31.5767C174.551 31.7466 174.432 31.9445 174.358 32.1585C174.285 32.3725 174.257 32.5983 174.278 32.8225V42.099H166.794C166.414 42.099 166.28 41.9731 166.28 41.6021V32.8357C166.308 32.6117 166.286 32.3847 166.216 32.1691C166.146 31.9534 166.028 31.754 165.871 31.5834C165.69 31.4337 165.479 31.3192 165.25 31.2464C165.022 31.1736 164.78 31.144 164.539 31.1593C164.299 31.1376 164.056 31.1663 163.829 31.2433C163.602 31.3203 163.395 31.4437 163.225 31.6047C163.054 31.7656 162.924 31.9601 162.843 32.1741C162.762 32.3881 162.732 32.6163 162.756 32.8423V43.7224C162.732 43.9486 162.761 44.177 162.843 44.391C162.924 44.605 163.056 44.7992 163.227 44.9593C163.399 45.1194 163.606 45.2413 163.835 45.3162C164.063 45.3912 164.306 45.4171 164.546 45.3922H175.744V49.2884C175.732 49.4804 175.762 49.6726 175.831 49.8536C175.9 50.0346 176.007 50.2007 176.146 50.3419C176.329 50.4932 176.542 50.6087 176.773 50.6815C177.004 50.7543 177.249 50.7831 177.492 50.766C177.745 50.7882 178 50.762 178.242 50.6892C178.485 50.6163 178.709 50.4982 178.901 50.3419C179.032 50.2048 179.132 50.0445 179.196 49.8704C179.261 49.6963 179.287 49.512 179.275 49.3281L179.324 43.8417C179.352 43.6049 179.328 43.3652 179.254 43.1374C179.181 42.9095 179.058 42.6982 178.894 42.5165C178.604 42.2637 178.225 42.1199 177.83 42.1123Z" fill="#312B1F"/>
<path d="M187.606 34.34H192.912L193.321 34.3002C193.51 34.3151 193.702 34.292 193.881 34.2327C194.061 34.1733 194.225 34.0789 194.364 33.9557C194.519 33.7874 194.637 33.5917 194.71 33.3801C194.784 33.1685 194.812 32.9452 194.793 32.7232C194.813 32.5032 194.784 32.2819 194.71 32.0725C194.637 31.863 194.519 31.6697 194.364 31.504C194.22 31.3837 194.053 31.2913 193.872 31.2321C193.69 31.173 193.498 31.1483 193.307 31.1594H187.598C186.631 31.1338 185.669 31.2911 184.768 31.622C183.866 31.9529 183.045 32.4507 182.352 33.0858C181.66 33.7209 181.11 34.4803 180.735 35.319C180.361 36.1578 180.169 37.0587 180.172 37.9684C180.175 38.8781 180.372 39.778 180.752 40.6146C181.131 41.4513 181.686 42.2077 182.383 42.839C183.079 43.4702 183.904 43.9634 184.807 44.2894C185.71 44.6153 186.674 44.7673 187.641 44.7364H193.314C193.863 44.7364 194.793 44.5111 194.793 43.1196C194.793 41.7281 193.863 41.536 193.307 41.536H187.591C186.959 41.5616 186.331 41.4265 185.773 41.145C185.139 40.8664 184.611 40.4113 184.26 39.8413C183.91 39.2713 183.754 38.6138 183.814 37.9578C183.795 37.4838 183.878 37.0109 184.058 36.5678C184.239 36.1247 184.513 35.7207 184.864 35.3803C185.225 35.0443 185.653 34.7793 186.124 34.6006C186.594 34.422 187.098 34.3334 187.606 34.34Z" fill="#312B1F"/>
<path d="M210.783 32.7099C210.803 32.4869 210.773 32.2626 210.697 32.0506C210.62 31.8387 210.499 31.6437 210.34 31.4775C210.196 31.3568 210.027 31.2651 209.844 31.2081C209.661 31.1511 209.467 31.13 209.275 31.1462H199.17C198.937 31.1211 198.7 31.1448 198.478 31.2157C198.256 31.2865 198.053 31.4027 197.884 31.5559C197.715 31.7092 197.584 31.8957 197.5 32.102C197.417 32.3084 197.383 32.5296 197.401 32.7497C197.386 32.9643 197.418 33.1796 197.494 33.3824C197.57 33.5852 197.69 33.7712 197.845 33.9292C198.027 34.0763 198.239 34.1874 198.468 34.2557C198.697 34.3241 198.938 34.3482 199.177 34.3267H201.291C201.622 34.3267 201.848 34.4327 201.848 34.9893V43.1593C201.833 43.573 201.993 43.9755 202.292 44.2792C202.663 44.55 203.119 44.697 203.588 44.697C204.058 44.697 204.514 44.55 204.885 44.2792C205.028 44.1261 205.135 43.9471 205.2 43.7533C205.266 43.5594 205.288 43.355 205.266 43.1527V35.0026C205.301 34.4062 205.611 34.3068 205.879 34.287H209.339C209.524 34.3072 209.712 34.2899 209.889 34.2362C210.067 34.1825 210.23 34.0936 210.368 33.9755C210.523 33.8014 210.64 33.5997 210.712 33.3823C210.783 33.1649 210.808 32.9363 210.783 32.7099Z" fill="#312B1F"/>
<path d="M235.293 33.0543C234.609 32.4279 233.798 31.9369 232.908 31.6103C232.019 31.2837 231.068 31.128 230.114 31.1526H224.476C224.282 31.1373 224.087 31.16 223.902 31.2193C223.718 31.2786 223.549 31.3732 223.405 31.4971C223.249 31.6623 223.129 31.8554 223.054 32.0649C222.979 32.2744 222.95 32.4959 222.968 32.7164C222.951 32.9362 222.98 33.1571 223.053 33.3664C223.127 33.5756 223.244 33.7691 223.398 33.9356C223.534 34.054 223.694 34.146 223.868 34.2063C224.042 34.2666 224.227 34.2939 224.413 34.2867L224.871 34.3265H230.135C230.645 34.3158 231.153 34.4038 231.625 34.585C232.098 34.7662 232.526 35.0369 232.883 35.3801C233.184 35.6557 233.423 35.9845 233.588 36.3475H229.747C229.517 36.3247 229.284 36.3505 229.066 36.4229C228.848 36.4953 228.649 36.6126 228.485 36.7662C228.321 36.9198 228.196 37.1058 228.118 37.3108C228.04 37.5157 228.012 37.7344 228.035 37.951C228.02 38.1611 228.051 38.3718 228.126 38.5701C228.201 38.7684 228.319 38.9501 228.472 39.1039C228.655 39.2495 228.867 39.3596 229.095 39.4278C229.324 39.4961 229.565 39.5211 229.804 39.5015H233.637C233.331 40.2242 232.741 40.808 231.988 41.1315C231.415 41.3974 230.781 41.5271 230.142 41.5092H224.462C223.905 41.5092 222.968 41.7279 222.968 43.1061C222.968 44.4844 223.905 44.703 224.469 44.7096H230.107C231.526 44.6768 232.905 44.259 234.077 43.5064C235.25 42.7538 236.166 41.6985 236.716 40.4676C237.265 39.2368 237.425 37.8828 237.175 36.5687C236.925 35.2546 236.276 34.0365 235.307 33.0609L235.293 33.0543Z" fill="#312B1F"/>
<path d="M212.524 42.2911H212.954C213.123 42.2955 213.291 42.2665 213.448 42.206C213.604 42.1455 213.746 42.0549 213.863 41.9399L217.703 38.1498L217.767 38.0968V41.2375C217.743 41.3763 217.754 41.5184 217.798 41.6526C217.842 41.7868 217.919 41.9097 218.022 42.0116C218.125 42.1135 218.251 42.1918 218.392 42.2402C218.532 42.2887 218.682 42.3061 218.831 42.2911C218.981 42.3067 219.132 42.2906 219.274 42.2439C219.416 42.1973 219.546 42.1213 219.652 42.0215C219.759 41.9217 219.841 41.8007 219.891 41.6673C219.942 41.5339 219.96 41.3916 219.944 41.2508V35.1349C219.958 35.0235 219.945 34.9107 219.908 34.8044C219.87 34.698 219.808 34.6007 219.726 34.5193C219.644 34.4379 219.544 34.3742 219.434 34.3329C219.323 34.2916 219.204 34.2736 219.085 34.2801H218.704C218.359 34.2914 218.033 34.4294 217.795 34.6644L213.658 38.8654V35.3337C213.68 35.195 213.667 35.0536 213.621 34.9203C213.575 34.787 213.498 34.6652 213.395 34.5643C213.291 34.4633 213.165 34.3858 213.025 34.3378C212.885 34.2897 212.735 34.2722 212.587 34.2867C212.439 34.2751 212.291 34.2935 212.151 34.3406C212.011 34.3878 211.884 34.4625 211.778 34.5599C211.672 34.6573 211.589 34.775 211.535 34.9051C211.482 35.0351 211.458 35.1745 211.467 35.3138V41.3369C211.454 41.4687 211.473 41.6016 211.522 41.7256C211.571 41.8496 211.65 41.9616 211.751 42.0533C211.853 42.1449 211.975 42.2139 212.109 42.2551C212.242 42.2963 212.384 42.3086 212.524 42.2911Z" fill="#312B1F"/>
<path d="M220.488 43.3646H210.904C210.609 43.3862 210.333 43.5118 210.131 43.7163C209.93 43.9208 209.818 44.1892 209.818 44.4679C209.818 44.7466 209.93 45.015 210.131 45.2195C210.333 45.424 210.609 45.5496 210.904 45.5711H220.488C220.65 45.5829 220.812 45.5632 220.966 45.5131C221.119 45.463 221.259 45.3836 221.378 45.28C221.497 45.1764 221.592 45.0508 221.657 44.9111C221.722 44.7713 221.756 44.6204 221.756 44.4679C221.756 44.3154 221.722 44.1645 221.657 44.0247C221.592 43.885 221.497 43.7593 221.378 43.6557C221.259 43.5521 221.119 43.4728 220.966 43.4227C220.812 43.3726 220.65 43.3528 220.488 43.3646Z" fill="#312B1F"/>
<path d="M109.455 58.632C109.575 58.632 109.668 58.6666 109.735 58.7358C109.808 58.7987 109.845 58.8867 109.845 59V60.5094C109.845 60.6226 109.811 60.7106 109.745 60.7735C109.685 60.8427 109.598 60.8773 109.485 60.8773C109.371 60.8773 109.278 60.8427 109.205 60.7735C109.138 60.7106 109.105 60.6226 109.105 60.5094V59.2641H108.855C108.588 59.2641 108.395 59.2075 108.275 59.0943C108.161 58.9811 108.105 58.8018 108.105 58.5566V58.5188C107.898 58.7704 107.638 58.9685 107.325 59.1132C107.011 59.2515 106.665 59.3207 106.285 59.3207C105.805 59.3207 105.375 59.2201 104.995 59.0188C104.621 58.8113 104.328 58.5251 104.115 58.1603C103.908 57.7955 103.805 57.3805 103.805 56.915V54.4622C103.805 54.3553 103.838 54.2704 103.905 54.2075C103.978 54.1383 104.071 54.1037 104.185 54.1037C104.298 54.1037 104.391 54.1383 104.465 54.2075C104.538 54.2704 104.575 54.3553 104.575 54.4622V56.915C104.575 57.2421 104.651 57.5377 104.805 57.8018C104.958 58.0597 105.168 58.2641 105.435 58.415C105.708 58.5597 106.018 58.632 106.365 58.632C106.871 58.632 107.288 58.5031 107.615 58.2452C107.941 57.9874 108.105 57.6572 108.105 57.2547V54.4622C108.105 54.3553 108.138 54.2704 108.205 54.2075C108.278 54.1383 108.371 54.1037 108.485 54.1037C108.598 54.1037 108.691 54.1383 108.765 54.2075C108.838 54.2704 108.875 54.3553 108.875 54.4622V58.632H109.455Z" fill="#312B1F"/>
<path d="M113.285 54.0566C113.779 54.0566 114.215 54.1666 114.595 54.3867C114.975 54.6006 115.269 54.8993 115.475 55.283C115.689 55.6666 115.795 56.1037 115.795 56.5943C115.795 56.6949 115.762 56.7767 115.695 56.8396C115.629 56.8962 115.542 56.9245 115.435 56.9245H111.395C111.449 57.4402 111.662 57.8584 112.035 58.1792C112.409 58.4999 112.875 58.6603 113.435 58.6603C113.675 58.6603 113.915 58.6226 114.155 58.5471C114.402 58.4654 114.599 58.3647 114.745 58.2452C114.832 58.1823 114.922 58.1509 115.015 58.1509C115.089 58.1509 115.162 58.1761 115.235 58.2264C115.322 58.3018 115.365 58.3867 115.365 58.4811C115.365 58.5628 115.329 58.6352 115.255 58.6981C115.035 58.8742 114.755 59.022 114.415 59.1415C114.075 59.2547 113.749 59.3113 113.435 59.3113C112.902 59.3113 112.425 59.2012 112.005 58.9811C111.585 58.7547 111.255 58.4433 111.015 58.0471C110.782 57.6446 110.665 57.1918 110.665 56.6886C110.665 56.1792 110.775 55.7264 110.995 55.3301C111.222 54.9276 111.532 54.6163 111.925 54.3962C112.325 54.1698 112.779 54.0566 113.285 54.0566ZM113.285 54.7075C112.779 54.7075 112.359 54.8553 112.025 55.1509C111.692 55.4465 111.489 55.8364 111.415 56.3207H115.075C115.022 55.8364 114.835 55.4465 114.515 55.1509C114.195 54.8553 113.785 54.7075 113.285 54.7075Z" fill="#312B1F"/>
<path d="M121.778 54.1037C121.891 54.1037 121.981 54.1383 122.048 54.2075C122.115 54.2767 122.148 54.3647 122.148 54.4716V58.8962C122.148 59.0031 122.115 59.0911 122.048 59.1603C121.981 59.2295 121.891 59.2641 121.778 59.2641C121.665 59.2641 121.571 59.2295 121.498 59.1603C121.425 59.0911 121.388 59.0031 121.388 58.8962V56.9905H117.858V58.8962C117.858 59.0031 117.821 59.0911 117.748 59.1603C117.681 59.2295 117.591 59.2641 117.478 59.2641C117.365 59.2641 117.271 59.2295 117.198 59.1603C117.131 59.0911 117.098 59.0031 117.098 58.8962V54.4716C117.098 54.3647 117.131 54.2767 117.198 54.2075C117.271 54.1383 117.365 54.1037 117.478 54.1037C117.591 54.1037 117.681 54.1383 117.748 54.2075C117.821 54.2767 117.858 54.3647 117.858 54.4716V56.3396H121.388V54.4716C121.388 54.3647 121.425 54.2767 121.498 54.2075C121.571 54.1383 121.665 54.1037 121.778 54.1037Z" fill="#312B1F"/>
<path d="M129.704 54.0471C130.097 54.0471 130.444 54.1352 130.744 54.3113C131.05 54.4874 131.287 54.7389 131.454 55.066C131.627 55.3867 131.714 55.761 131.714 56.1886V58.9056C131.714 59.0125 131.677 59.1006 131.604 59.1698C131.537 59.2327 131.447 59.2641 131.334 59.2641C131.22 59.2641 131.127 59.2327 131.054 59.1698C130.98 59.1006 130.944 59.0125 130.944 58.9056V56.1886C130.944 55.7421 130.82 55.3899 130.574 55.132C130.334 54.8679 130.017 54.7358 129.624 54.7358C129.204 54.7358 128.864 54.8679 128.604 55.132C128.344 55.3962 128.217 55.7421 128.224 56.1698V58.9056C128.224 59.0125 128.187 59.1006 128.114 59.1698C128.047 59.2327 127.957 59.2641 127.844 59.2641C127.73 59.2641 127.637 59.2327 127.564 59.1698C127.49 59.1006 127.454 59.0125 127.454 58.9056V56.1886C127.454 55.7421 127.33 55.3899 127.084 55.132C126.844 54.8679 126.527 54.7358 126.134 54.7358C125.72 54.7358 125.38 54.8647 125.114 55.1226C124.847 55.3805 124.714 55.7106 124.714 56.1132V58.9056C124.714 59.0125 124.677 59.1006 124.604 59.1698C124.537 59.2327 124.447 59.2641 124.334 59.2641C124.22 59.2641 124.127 59.2327 124.054 59.1698C123.98 59.1006 123.944 59.0125 123.944 58.9056V54.4716C123.944 54.3647 123.98 54.2767 124.054 54.2075C124.127 54.1383 124.22 54.1037 124.334 54.1037C124.447 54.1037 124.537 54.1383 124.604 54.2075C124.677 54.2767 124.714 54.3647 124.714 54.4716V54.6792C124.9 54.4779 125.12 54.3238 125.374 54.2169C125.634 54.1037 125.914 54.0471 126.214 54.0471C126.58 54.0471 126.91 54.1257 127.204 54.283C127.497 54.4402 127.73 54.6603 127.904 54.9433C128.097 54.6603 128.347 54.4402 128.654 54.283C128.967 54.1257 129.317 54.0471 129.704 54.0471Z" fill="#312B1F"/>
<path d="M136.196 54.0566C136.716 54.0566 137.186 54.1729 137.606 54.4056C138.033 54.632 138.366 54.9465 138.606 55.349C138.853 55.7515 138.976 56.1981 138.976 56.6886C138.976 57.1792 138.856 57.6257 138.616 58.0283C138.383 58.4245 138.06 58.7389 137.646 58.9716C137.24 59.1981 136.783 59.3113 136.276 59.3113C135.843 59.3113 135.446 59.2264 135.086 59.0566C134.726 58.8805 134.43 58.6415 134.196 58.3396V61.1037C134.196 61.2106 134.16 61.2987 134.086 61.3679C134.013 61.4371 133.92 61.4716 133.806 61.4716C133.693 61.4716 133.6 61.4371 133.526 61.3679C133.46 61.2987 133.426 61.2106 133.426 61.1037V58.9905C133.42 58.9716 133.416 58.9433 133.416 58.9056V56.6886C133.416 56.1981 133.536 55.7515 133.776 55.349C134.023 54.9465 134.356 54.632 134.776 54.4056C135.203 54.1729 135.676 54.0566 136.196 54.0566ZM136.196 58.6509C136.576 58.6509 136.92 58.566 137.226 58.3962C137.54 58.2264 137.783 57.9937 137.956 57.6981C138.136 57.3962 138.226 57.0597 138.226 56.6886C138.226 56.3176 138.136 55.9842 137.956 55.6886C137.783 55.3867 137.54 55.1509 137.226 54.9811C136.92 54.805 136.576 54.7169 136.196 54.7169C135.816 54.7169 135.473 54.805 135.166 54.9811C134.86 55.1509 134.616 55.3867 134.436 55.6886C134.263 55.9842 134.176 56.3176 134.176 56.6886C134.176 56.7955 134.18 56.8742 134.186 56.9245C134.193 56.9371 134.196 56.9528 134.196 56.9716C134.263 57.4622 134.48 57.8647 134.846 58.1792C135.22 58.4937 135.67 58.6509 136.196 58.6509Z" fill="#312B1F"/>
<path d="M145.756 54.0566C146.59 54.0566 147.266 54.3584 147.786 54.9622C147.84 55.0188 147.866 55.0849 147.866 55.1603C147.866 55.261 147.81 55.349 147.696 55.4245C147.636 55.4622 147.573 55.4811 147.506 55.4811C147.406 55.4811 147.31 55.4339 147.216 55.3396C147.016 55.132 146.796 54.9779 146.556 54.8773C146.316 54.7704 146.05 54.7169 145.756 54.7169C145.39 54.7169 145.063 54.8018 144.776 54.9716C144.49 55.1352 144.266 55.3679 144.106 55.6698C143.953 55.9716 143.876 56.3113 143.876 56.6886C143.876 57.0597 143.96 57.3962 144.126 57.6981C144.293 57.9937 144.526 58.2264 144.826 58.3962C145.126 58.566 145.47 58.6509 145.856 58.6509C146.39 58.6509 146.82 58.5157 147.146 58.2452C147.233 58.1761 147.323 58.1415 147.416 58.1415C147.496 58.1415 147.57 58.1666 147.636 58.2169C147.73 58.2924 147.776 58.3773 147.776 58.4716C147.776 58.5534 147.743 58.6226 147.676 58.6792C147.196 59.1006 146.59 59.3113 145.856 59.3113C145.336 59.3113 144.87 59.1981 144.456 58.9716C144.043 58.7389 143.716 58.4245 143.476 58.0283C143.243 57.6257 143.126 57.1792 143.126 56.6886C143.126 56.1855 143.24 55.7358 143.466 55.3396C143.693 54.9371 144.006 54.6226 144.406 54.3962C144.806 54.1698 145.256 54.0566 145.756 54.0566Z" fill="#312B1F"/>
<path d="M155.133 54.0471C155.527 54.0471 155.873 54.1352 156.173 54.3113C156.48 54.4874 156.717 54.7389 156.883 55.066C157.057 55.3867 157.143 55.761 157.143 56.1886V58.9056C157.143 59.0125 157.107 59.1006 157.033 59.1698C156.967 59.2327 156.877 59.2641 156.763 59.2641C156.65 59.2641 156.557 59.2327 156.483 59.1698C156.41 59.1006 156.373 59.0125 156.373 58.9056V56.1886C156.373 55.7421 156.25 55.3899 156.003 55.132C155.763 54.8679 155.447 54.7358 155.053 54.7358C154.633 54.7358 154.293 54.8679 154.033 55.132C153.773 55.3962 153.647 55.7421 153.653 56.1698V58.9056C153.653 59.0125 153.617 59.1006 153.543 59.1698C153.477 59.2327 153.387 59.2641 153.273 59.2641C153.16 59.2641 153.067 59.2327 152.993 59.1698C152.92 59.1006 152.883 59.0125 152.883 58.9056V56.1886C152.883 55.7421 152.76 55.3899 152.513 55.132C152.273 54.8679 151.957 54.7358 151.563 54.7358C151.15 54.7358 150.81 54.8647 150.543 55.1226C150.277 55.3805 150.143 55.7106 150.143 56.1132V58.9056C150.143 59.0125 150.107 59.1006 150.033 59.1698C149.967 59.2327 149.877 59.2641 149.763 59.2641C149.65 59.2641 149.557 59.2327 149.483 59.1698C149.41 59.1006 149.373 59.0125 149.373 58.9056V54.4716C149.373 54.3647 149.41 54.2767 149.483 54.2075C149.557 54.1383 149.65 54.1037 149.763 54.1037C149.877 54.1037 149.967 54.1383 150.033 54.2075C150.107 54.2767 150.143 54.3647 150.143 54.4716V54.6792C150.33 54.4779 150.55 54.3238 150.803 54.2169C151.063 54.1037 151.343 54.0471 151.643 54.0471C152.01 54.0471 152.34 54.1257 152.633 54.283C152.927 54.4402 153.16 54.6603 153.333 54.9433C153.527 54.6603 153.777 54.4402 154.083 54.283C154.397 54.1257 154.747 54.0471 155.133 54.0471Z" fill="#312B1F"/>
<path d="M161.626 54.0566C162.146 54.0566 162.616 54.1729 163.036 54.4056C163.463 54.632 163.796 54.9465 164.036 55.349C164.283 55.7515 164.406 56.1981 164.406 56.6886C164.406 57.1792 164.286 57.6257 164.046 58.0283C163.813 58.4245 163.489 58.7389 163.076 58.9716C162.669 59.1981 162.213 59.3113 161.706 59.3113C161.273 59.3113 160.876 59.2264 160.516 59.0566C160.156 58.8805 159.859 58.6415 159.626 58.3396V61.1037C159.626 61.2106 159.589 61.2987 159.516 61.3679C159.443 61.4371 159.349 61.4716 159.236 61.4716C159.123 61.4716 159.029 61.4371 158.956 61.3679C158.889 61.2987 158.856 61.2106 158.856 61.1037V58.9905C158.849 58.9716 158.846 58.9433 158.846 58.9056V56.6886C158.846 56.1981 158.966 55.7515 159.206 55.349C159.453 54.9465 159.786 54.632 160.206 54.4056C160.633 54.1729 161.106 54.0566 161.626 54.0566ZM161.626 58.6509C162.006 58.6509 162.349 58.566 162.656 58.3962C162.969 58.2264 163.213 57.9937 163.386 57.6981C163.566 57.3962 163.656 57.0597 163.656 56.6886C163.656 56.3176 163.566 55.9842 163.386 55.6886C163.213 55.3867 162.969 55.1509 162.656 54.9811C162.349 54.805 162.006 54.7169 161.626 54.7169C161.246 54.7169 160.903 54.805 160.596 54.9811C160.289 55.1509 160.046 55.3867 159.866 55.6886C159.693 55.9842 159.606 56.3176 159.606 56.6886C159.606 56.7955 159.609 56.8742 159.616 56.9245C159.623 56.9371 159.626 56.9528 159.626 56.9716C159.693 57.4622 159.909 57.8647 160.276 58.1792C160.649 58.4937 161.099 58.6509 161.626 58.6509Z" fill="#312B1F"/>
<path d="M168.406 54.0566C168.933 54.0566 169.406 54.1698 169.826 54.3962C170.246 54.6226 170.576 54.9371 170.816 55.3396C171.063 55.7421 171.186 56.1918 171.186 56.6886C171.186 57.1855 171.066 57.6352 170.826 58.0377C170.586 58.4339 170.253 58.7452 169.826 58.9716C169.406 59.1981 168.933 59.3113 168.406 59.3113C167.88 59.3113 167.403 59.1981 166.976 58.9716C166.556 58.7452 166.226 58.4339 165.986 58.0377C165.746 57.6352 165.626 57.1855 165.626 56.6886C165.626 56.1918 165.746 55.7421 165.986 55.3396C166.226 54.9371 166.556 54.6226 166.976 54.3962C167.403 54.1698 167.88 54.0566 168.406 54.0566ZM168.406 54.7169C168.026 54.7169 167.68 54.8018 167.366 54.9716C167.06 55.1415 166.816 55.3773 166.636 55.6792C166.463 55.9748 166.376 56.3113 166.376 56.6886C166.376 57.0597 166.463 57.3962 166.636 57.6981C166.816 57.9937 167.06 58.2264 167.366 58.3962C167.68 58.566 168.026 58.6509 168.406 58.6509C168.793 58.6509 169.14 58.566 169.446 58.3962C169.753 58.2264 169.993 57.9937 170.166 57.6981C170.34 57.3962 170.426 57.0597 170.426 56.6886C170.426 56.3113 170.34 55.9748 170.166 55.6792C169.993 55.3773 169.753 55.1415 169.446 54.9716C169.14 54.8018 168.793 54.7169 168.406 54.7169Z" fill="#312B1F"/>
<path d="M177.264 54.1037C177.377 54.1037 177.471 54.1383 177.544 54.2075C177.617 54.2704 177.654 54.3553 177.654 54.4622V58.8962C177.654 59.0031 177.617 59.0911 177.544 59.1603C177.471 59.2295 177.377 59.2641 177.264 59.2641C177.151 59.2641 177.057 59.2295 176.984 59.1603C176.917 59.0911 176.884 59.0031 176.884 58.8962V58.5754C176.664 58.8081 176.397 58.9905 176.084 59.1226C175.771 59.2547 175.431 59.3207 175.064 59.3207C174.591 59.3207 174.164 59.2264 173.784 59.0377C173.411 58.849 173.117 58.5754 172.904 58.2169C172.691 57.8522 172.584 57.4182 172.584 56.915V54.4622C172.584 54.3616 172.621 54.2767 172.694 54.2075C172.767 54.1383 172.857 54.1037 172.964 54.1037C173.077 54.1037 173.171 54.1383 173.244 54.2075C173.317 54.2767 173.354 54.3616 173.354 54.4622V56.915C173.354 57.4748 173.517 57.9025 173.844 58.1981C174.177 58.4874 174.611 58.632 175.144 58.632C175.471 58.632 175.764 58.5723 176.024 58.4528C176.291 58.3333 176.501 58.1698 176.654 57.9622C176.807 57.7484 176.884 57.5125 176.884 57.2547V54.4622C176.884 54.3553 176.917 54.2704 176.984 54.2075C177.057 54.1383 177.151 54.1037 177.264 54.1037Z" fill="#312B1F"/>
<path d="M185.212 54.0471C185.605 54.0471 185.952 54.1352 186.252 54.3113C186.558 54.4874 186.795 54.7389 186.962 55.066C187.135 55.3867 187.222 55.761 187.222 56.1886V58.9056C187.222 59.0125 187.185 59.1006 187.112 59.1698C187.045 59.2327 186.955 59.2641 186.842 59.2641C186.728 59.2641 186.635 59.2327 186.562 59.1698C186.488 59.1006 186.452 59.0125 186.452 58.9056V56.1886C186.452 55.7421 186.328 55.3899 186.082 55.132C185.842 54.8679 185.525 54.7358 185.132 54.7358C184.712 54.7358 184.372 54.8679 184.112 55.132C183.852 55.3962 183.725 55.7421 183.732 56.1698V58.9056C183.732 59.0125 183.695 59.1006 183.622 59.1698C183.555 59.2327 183.465 59.2641 183.352 59.2641C183.238 59.2641 183.145 59.2327 183.072 59.1698C182.998 59.1006 182.962 59.0125 182.962 58.9056V56.1886C182.962 55.7421 182.838 55.3899 182.592 55.132C182.352 54.8679 182.035 54.7358 181.642 54.7358C181.228 54.7358 180.888 54.8647 180.622 55.1226C180.355 55.3805 180.222 55.7106 180.222 56.1132V58.9056C180.222 59.0125 180.185 59.1006 180.112 59.1698C180.045 59.2327 179.955 59.2641 179.842 59.2641C179.728 59.2641 179.635 59.2327 179.562 59.1698C179.488 59.1006 179.452 59.0125 179.452 58.9056V54.4716C179.452 54.3647 179.488 54.2767 179.562 54.2075C179.635 54.1383 179.728 54.1037 179.842 54.1037C179.955 54.1037 180.045 54.1383 180.112 54.2075C180.185 54.2767 180.222 54.3647 180.222 54.4716V54.6792C180.408 54.4779 180.628 54.3238 180.882 54.2169C181.142 54.1037 181.422 54.0471 181.722 54.0471C182.088 54.0471 182.418 54.1257 182.712 54.283C183.005 54.4402 183.238 54.6603 183.412 54.9433C183.605 54.6603 183.855 54.4402 184.162 54.283C184.475 54.1257 184.825 54.0471 185.212 54.0471Z" fill="#312B1F"/>
<path d="M191.254 54.0566C191.748 54.0566 192.184 54.1666 192.564 54.3867C192.944 54.6006 193.238 54.8993 193.444 55.283C193.658 55.6666 193.764 56.1037 193.764 56.5943C193.764 56.6949 193.731 56.7767 193.664 56.8396C193.598 56.8962 193.511 56.9245 193.404 56.9245H189.364C189.418 57.4402 189.631 57.8584 190.004 58.1792C190.378 58.4999 190.844 58.6603 191.404 58.6603C191.644 58.6603 191.884 58.6226 192.124 58.5471C192.371 58.4654 192.568 58.3647 192.714 58.2452C192.801 58.1823 192.891 58.1509 192.984 58.1509C193.058 58.1509 193.131 58.1761 193.204 58.2264C193.291 58.3018 193.334 58.3867 193.334 58.4811C193.334 58.5628 193.298 58.6352 193.224 58.6981C193.004 58.8742 192.724 59.022 192.384 59.1415C192.044 59.2547 191.718 59.3113 191.404 59.3113C190.871 59.3113 190.394 59.2012 189.974 58.9811C189.554 58.7547 189.224 58.4433 188.984 58.0471C188.751 57.6446 188.634 57.1918 188.634 56.6886C188.634 56.1792 188.744 55.7264 188.964 55.3301C189.191 54.9276 189.501 54.6163 189.894 54.3962C190.294 54.1698 190.748 54.0566 191.254 54.0566ZM191.254 54.7075C190.748 54.7075 190.328 54.8553 189.994 55.1509C189.661 55.4465 189.458 55.8364 189.384 56.3207H193.044C192.991 55.8364 192.804 55.4465 192.484 55.1509C192.164 54.8553 191.754 54.7075 191.254 54.7075Z" fill="#312B1F"/>
<path d="M199.657 58.8018C199.683 58.8647 199.697 58.9119 199.697 58.9433C199.697 59.0628 199.623 59.1603 199.477 59.2358C199.423 59.261 199.363 59.2735 199.297 59.2735C199.157 59.2735 199.05 59.2075 198.977 59.0754L197.127 55.1981L195.247 59.066C195.22 59.1289 195.177 59.1792 195.117 59.2169C195.057 59.2547 194.99 59.2735 194.917 59.2735C194.863 59.2735 194.803 59.2578 194.737 59.2264C194.583 59.1509 194.507 59.0534 194.507 58.9339C194.507 58.9025 194.52 58.8553 194.547 58.7924L196.747 54.349C196.827 54.1855 196.947 54.1037 197.107 54.1037C197.28 54.1037 197.407 54.1855 197.487 54.349L199.657 58.8018Z" fill="#312B1F"/>
<path d="M203.346 55.8113C203.779 55.8113 204.159 55.8867 204.486 56.0377C204.819 56.1823 205.076 56.3867 205.256 56.6509C205.442 56.915 205.536 57.2169 205.536 57.5566C205.536 57.9025 205.439 58.2138 205.246 58.4905C205.059 58.761 204.792 58.9748 204.446 59.132C204.099 59.283 203.706 59.3584 203.266 59.3584C202.812 59.3584 202.409 59.2798 202.056 59.1226C201.702 58.9591 201.429 58.7327 201.236 58.4433C201.042 58.1477 200.946 57.8113 200.946 57.4339V54.4622C200.952 54.3616 200.992 54.2767 201.066 54.2075C201.139 54.1383 201.229 54.1037 201.336 54.1037C201.449 54.1037 201.539 54.1383 201.606 54.2075C201.679 54.2767 201.716 54.3647 201.716 54.4716V55.8113H203.346ZM201.716 57.4339C201.716 57.7987 201.859 58.1006 202.146 58.3396C202.432 58.5723 202.806 58.6886 203.266 58.6886C203.719 58.6886 204.082 58.5911 204.356 58.3962C204.636 58.2012 204.776 57.9213 204.776 57.5566C204.776 57.2044 204.649 56.9308 204.396 56.7358C204.142 56.5408 203.792 56.4433 203.346 56.4433H201.716V57.4339Z" fill="#312B1F"/>
<path d="M211.505 54.1037C211.618 54.1037 211.708 54.1383 211.775 54.2075C211.841 54.2767 211.875 54.3647 211.875 54.4716V58.8962C211.875 59.0031 211.841 59.0911 211.775 59.1603C211.708 59.2295 211.618 59.2641 211.505 59.2641C211.391 59.2641 211.298 59.2295 211.225 59.1603C211.151 59.0911 211.115 59.0031 211.115 58.8962V56.9905H207.585V58.8962C207.585 59.0031 207.548 59.0911 207.475 59.1603C207.408 59.2295 207.318 59.2641 207.205 59.2641C207.091 59.2641 206.998 59.2295 206.925 59.1603C206.858 59.0911 206.825 59.0031 206.825 58.8962V54.4716C206.825 54.3647 206.858 54.2767 206.925 54.2075C206.998 54.1383 207.091 54.1037 207.205 54.1037C207.318 54.1037 207.408 54.1383 207.475 54.2075C207.548 54.2767 207.585 54.3647 207.585 54.4716V56.3396H211.115V54.4716C211.115 54.3647 211.151 54.2767 211.225 54.2075C211.298 54.1383 211.391 54.1037 211.505 54.1037Z" fill="#312B1F"/>
<path d="M215.92 55.8113C216.527 55.8113 217.02 55.9716 217.4 56.2924C217.78 56.6069 217.97 57.0283 217.97 57.5566C217.97 57.915 217.88 58.2327 217.7 58.5094C217.527 58.7798 217.28 58.9905 216.96 59.1415C216.647 59.2861 216.287 59.3584 215.88 59.3584C215.454 59.3584 215.074 59.2767 214.74 59.1132C214.407 58.9496 214.144 58.7232 213.95 58.4339C213.764 58.1383 213.67 57.805 213.67 57.4339V54.4622C213.677 54.3553 213.717 54.2704 213.79 54.2075C213.864 54.1383 213.954 54.1037 214.06 54.1037C214.174 54.1037 214.264 54.1383 214.33 54.2075C214.404 54.2767 214.44 54.3647 214.44 54.4716V55.8113H215.92ZM218.84 54.4716C218.84 54.3647 218.874 54.2767 218.94 54.2075C219.014 54.1383 219.107 54.1037 219.22 54.1037C219.334 54.1037 219.427 54.1383 219.5 54.2075C219.574 54.2767 219.61 54.3647 219.61 54.4716V58.8962C219.61 59.0031 219.574 59.0911 219.5 59.1603C219.427 59.2295 219.334 59.2641 219.22 59.2641C219.107 59.2641 219.014 59.2295 218.94 59.1603C218.874 59.0911 218.84 59.0031 218.84 58.8962V54.4716ZM214.44 57.4339C214.44 57.7987 214.574 58.1006 214.84 58.3396C215.114 58.5723 215.46 58.6886 215.88 58.6886C216.287 58.6886 216.61 58.5911 216.85 58.3962C217.097 58.2012 217.22 57.9213 217.22 57.5566C217.22 57.1981 217.1 56.9245 216.86 56.7358C216.627 56.5408 216.314 56.4433 215.92 56.4433H214.44V57.4339Z" fill="#312B1F"/>
<path d="M225.162 58.6981C225.235 58.7861 225.272 58.871 225.272 58.9528C225.272 59.0408 225.235 59.1163 225.162 59.1792C225.095 59.2358 225.018 59.2641 224.932 59.2641C224.852 59.2641 224.785 59.2515 224.732 59.2264C224.678 59.2012 224.628 59.1572 224.582 59.0943L222.942 57.1226L221.242 59.1509C221.182 59.2264 221.092 59.2641 220.972 59.2641C220.865 59.2641 220.778 59.2327 220.712 59.1698C220.652 59.1069 220.622 59.0314 220.622 58.9433C220.622 58.8427 220.655 58.7578 220.722 58.6886L222.452 56.6509L220.812 54.6886C220.745 54.6194 220.712 54.5345 220.712 54.4339C220.712 54.3396 220.742 54.261 220.802 54.1981C220.862 54.1352 220.948 54.1037 221.062 54.1037C221.175 54.1037 221.272 54.1415 221.352 54.2169L222.962 56.1698L224.552 54.2735C224.645 54.1603 224.755 54.1037 224.882 54.1037C224.988 54.1037 225.072 54.1352 225.132 54.1981C225.198 54.261 225.232 54.3364 225.232 54.4245C225.232 54.5188 225.195 54.61 225.122 54.6981L223.462 56.6415L225.162 58.6981Z" fill="#312B1F"/>
<path d="M109.665 64.4245C110.058 64.4245 110.405 64.5125 110.705 64.6886C111.011 64.8647 111.248 65.1163 111.415 65.4433C111.588 65.7641 111.675 66.1383 111.675 66.566V69.283C111.675 69.3899 111.638 69.4779 111.565 69.5471C111.498 69.61 111.408 69.6415 111.295 69.6415C111.181 69.6415 111.088 69.61 111.015 69.5471C110.941 69.4779 110.905 69.3899 110.905 69.283V66.566C110.905 66.1194 110.781 65.7672 110.535 65.5094C110.295 65.2452 109.978 65.1132 109.585 65.1132C109.165 65.1132 108.825 65.2452 108.565 65.5094C108.305 65.7735 108.178 66.1194 108.185 66.5471V69.283C108.185 69.3899 108.148 69.4779 108.075 69.5471C108.008 69.61 107.918 69.6415 107.805 69.6415C107.691 69.6415 107.598 69.61 107.525 69.5471C107.451 69.4779 107.415 69.3899 107.415 69.283V66.566C107.415 66.1194 107.291 65.7672 107.045 65.5094C106.805 65.2452 106.488 65.1132 106.095 65.1132C105.681 65.1132 105.341 65.2421 105.075 65.5C104.808 65.7578 104.675 66.088 104.675 66.4905V69.283C104.675 69.3899 104.638 69.4779 104.565 69.5471C104.498 69.61 104.408 69.6415 104.295 69.6415C104.181 69.6415 104.088 69.61 104.015 69.5471C103.941 69.4779 103.905 69.3899 103.905 69.283V64.849C103.905 64.7421 103.941 64.654 104.015 64.5849C104.088 64.5157 104.181 64.4811 104.295 64.4811C104.408 64.4811 104.498 64.5157 104.565 64.5849C104.638 64.654 104.675 64.7421 104.675 64.849V65.0566C104.861 64.8553 105.081 64.7012 105.335 64.5943C105.595 64.4811 105.875 64.4245 106.175 64.4245C106.541 64.4245 106.871 64.5031 107.165 64.6603C107.458 64.8176 107.691 65.0377 107.865 65.3207C108.058 65.0377 108.308 64.8176 108.615 64.6603C108.928 64.5031 109.278 64.4245 109.665 64.4245Z" fill="#312B1F"/>
<path d="M115.707 64.4339C116.201 64.4339 116.637 64.544 117.017 64.7641C117.397 64.9779 117.691 65.2767 117.897 65.6603C118.111 66.044 118.217 66.4811 118.217 66.9716C118.217 67.0723 118.184 67.154 118.117 67.2169C118.051 67.2735 117.964 67.3018 117.857 67.3018H113.817C113.871 67.8176 114.084 68.2358 114.457 68.5566C114.831 68.8773 115.297 69.0377 115.857 69.0377C116.097 69.0377 116.337 69 116.577 68.9245C116.824 68.8427 117.021 68.7421 117.167 68.6226C117.254 68.5597 117.344 68.5283 117.437 68.5283C117.511 68.5283 117.584 68.5534 117.657 68.6037C117.744 68.6792 117.787 68.7641 117.787 68.8584C117.787 68.9402 117.751 69.0125 117.677 69.0754C117.457 69.2515 117.177 69.3993 116.837 69.5188C116.497 69.632 116.171 69.6886 115.857 69.6886C115.324 69.6886 114.847 69.5786 114.427 69.3584C114.007 69.132 113.677 68.8207 113.437 68.4245C113.204 68.022 113.087 67.5691 113.087 67.066C113.087 66.5566 113.197 66.1037 113.417 65.7075C113.644 65.305 113.954 64.9937 114.347 64.7735C114.747 64.5471 115.201 64.4339 115.707 64.4339ZM115.707 65.0849C115.201 65.0849 114.781 65.2327 114.447 65.5283C114.114 65.8238 113.911 66.2138 113.837 66.6981H117.497C117.444 66.2138 117.257 65.8238 116.937 65.5283C116.617 65.2327 116.207 65.0849 115.707 65.0849Z" fill="#312B1F"/>
<path d="M123.267 69.0754C123.341 69.1635 123.377 69.2484 123.377 69.3301C123.377 69.4182 123.341 69.4937 123.267 69.5566C123.201 69.6132 123.124 69.6415 123.037 69.6415C122.957 69.6415 122.891 69.6289 122.837 69.6037C122.784 69.5786 122.734 69.5345 122.687 69.4716L121.047 67.5L119.347 69.5283C119.287 69.6037 119.197 69.6415 119.077 69.6415C118.971 69.6415 118.884 69.61 118.817 69.5471C118.757 69.4842 118.727 69.4088 118.727 69.3207C118.727 69.2201 118.761 69.1352 118.827 69.066L120.557 67.0283L118.917 65.066C118.851 64.9968 118.817 64.9119 118.817 64.8113C118.817 64.7169 118.847 64.6383 118.907 64.5754C118.967 64.5125 119.054 64.4811 119.167 64.4811C119.281 64.4811 119.377 64.5188 119.457 64.5943L121.067 66.5471L122.657 64.6509C122.751 64.5377 122.861 64.4811 122.987 64.4811C123.094 64.4811 123.177 64.5125 123.237 64.5754C123.304 64.6383 123.337 64.7138 123.337 64.8018C123.337 64.8962 123.301 64.9874 123.227 65.0754L121.567 67.0188L123.267 69.0754Z" fill="#312B1F"/>
<path d="M129.376 64.4811C129.489 64.4811 129.579 64.5157 129.646 64.5849C129.712 64.654 129.746 64.7421 129.746 64.849V69.2735C129.746 69.3805 129.712 69.4685 129.646 69.5377C129.579 69.6069 129.489 69.6415 129.376 69.6415C129.262 69.6415 129.169 69.6069 129.096 69.5377C129.022 69.4685 128.986 69.3805 128.986 69.2735V67.3679H125.456V69.2735C125.456 69.3805 125.419 69.4685 125.346 69.5377C125.279 69.6069 125.189 69.6415 125.076 69.6415C124.962 69.6415 124.869 69.6069 124.796 69.5377C124.729 69.4685 124.696 69.3805 124.696 69.2735V64.849C124.696 64.7421 124.729 64.654 124.796 64.5849C124.869 64.5157 124.962 64.4811 125.076 64.4811C125.189 64.4811 125.279 64.5157 125.346 64.5849C125.419 64.654 125.456 64.7421 125.456 64.849V66.7169H128.986V64.849C128.986 64.7421 129.022 64.654 129.096 64.5849C129.169 64.5157 129.262 64.4811 129.376 64.4811Z" fill="#312B1F"/>
<path d="M134.031 64.4339C134.558 64.4339 135.031 64.5471 135.451 64.7735C135.871 65 136.201 65.3144 136.441 65.7169C136.688 66.1194 136.811 66.5691 136.811 67.066C136.811 67.5628 136.691 68.0125 136.451 68.415C136.211 68.8113 135.878 69.1226 135.451 69.349C135.031 69.5754 134.558 69.6886 134.031 69.6886C133.505 69.6886 133.028 69.5754 132.601 69.349C132.181 69.1226 131.851 68.8113 131.611 68.415C131.371 68.0125 131.251 67.5628 131.251 67.066C131.251 66.5691 131.371 66.1194 131.611 65.7169C131.851 65.3144 132.181 65 132.601 64.7735C133.028 64.5471 133.505 64.4339 134.031 64.4339ZM134.031 65.0943C133.651 65.0943 133.305 65.1792 132.991 65.349C132.685 65.5188 132.441 65.7547 132.261 66.0566C132.088 66.3522 132.001 66.6886 132.001 67.066C132.001 67.4371 132.088 67.7735 132.261 68.0754C132.441 68.371 132.685 68.6037 132.991 68.7735C133.305 68.9433 133.651 69.0283 134.031 69.0283C134.418 69.0283 134.765 68.9433 135.071 68.7735C135.378 68.6037 135.618 68.371 135.791 68.0754C135.965 67.7735 136.051 67.4371 136.051 67.066C136.051 66.6886 135.965 66.3522 135.791 66.0566C135.618 65.7547 135.378 65.5188 135.071 65.349C134.765 65.1792 134.418 65.0943 134.031 65.0943Z" fill="#312B1F"/>
<path d="M142.899 69.1792C142.926 69.2421 142.939 69.2893 142.939 69.3207C142.939 69.4402 142.866 69.5377 142.719 69.6132C142.666 69.6383 142.606 69.6509 142.539 69.6509C142.399 69.6509 142.292 69.5849 142.219 69.4528L140.369 65.5754L138.489 69.4433C138.462 69.5062 138.419 69.5566 138.359 69.5943C138.299 69.632 138.232 69.6509 138.159 69.6509C138.106 69.6509 138.046 69.6352 137.979 69.6037C137.826 69.5283 137.749 69.4308 137.749 69.3113C137.749 69.2798 137.762 69.2327 137.789 69.1698L139.989 64.7264C140.069 64.5628 140.189 64.4811 140.349 64.4811C140.522 64.4811 140.649 64.5628 140.729 64.7264L142.899 69.1792Z" fill="#312B1F"/>
<path d="M146.678 64.4339C147.205 64.4339 147.678 64.5471 148.098 64.7735C148.518 65 148.848 65.3144 149.088 65.7169C149.335 66.1194 149.458 66.5691 149.458 67.066C149.458 67.5628 149.338 68.0125 149.098 68.415C148.858 68.8113 148.525 69.1226 148.098 69.349C147.678 69.5754 147.205 69.6886 146.678 69.6886C146.151 69.6886 145.675 69.5754 145.248 69.349C144.828 69.1226 144.498 68.8113 144.258 68.415C144.018 68.0125 143.898 67.5628 143.898 67.066C143.898 66.5691 144.018 66.1194 144.258 65.7169C144.498 65.3144 144.828 65 145.248 64.7735C145.675 64.5471 146.151 64.4339 146.678 64.4339ZM146.678 65.0943C146.298 65.0943 145.951 65.1792 145.638 65.349C145.331 65.5188 145.088 65.7547 144.908 66.0566C144.735 66.3522 144.648 66.6886 144.648 67.066C144.648 67.4371 144.735 67.7735 144.908 68.0754C145.088 68.371 145.331 68.6037 145.638 68.7735C145.951 68.9433 146.298 69.0283 146.678 69.0283C147.065 69.0283 147.411 68.9433 147.718 68.7735C148.025 68.6037 148.265 68.371 148.438 68.0754C148.611 67.7735 148.698 67.4371 148.698 67.066C148.698 66.6886 148.611 66.3522 148.438 66.0566C148.265 65.7547 148.025 65.5188 147.718 65.349C147.411 65.1792 147.065 65.0943 146.678 65.0943Z" fill="#312B1F"/>
<path d="M152.645 64.4339C153.212 64.4339 153.669 64.5597 154.015 64.8113C154.362 65.0566 154.535 65.4088 154.535 65.8679C154.535 66.2075 154.395 66.5031 154.115 66.7547C153.835 67.0062 153.399 67.1949 152.805 67.3207C152.252 67.4339 151.865 67.566 151.645 67.7169C151.425 67.8679 151.315 68.0597 151.315 68.2924C151.315 68.5377 151.419 68.7232 151.625 68.849C151.839 68.9685 152.165 69.0283 152.605 69.0283C153.325 69.0283 153.842 68.8584 154.155 68.5188C154.242 68.4245 154.342 68.3773 154.455 68.3773C154.529 68.3773 154.602 68.4025 154.675 68.4528C154.769 68.5283 154.815 68.6132 154.815 68.7075C154.815 68.7955 154.782 68.871 154.715 68.9339C154.495 69.1666 154.192 69.3522 153.805 69.4905C153.419 69.6226 153.025 69.6886 152.625 69.6886C152.232 69.6886 151.879 69.632 151.565 69.5188C151.252 69.4056 151.002 69.2452 150.815 69.0377C150.635 68.8239 150.545 68.5786 150.545 68.3018C150.545 67.9308 150.709 67.6194 151.035 67.3679C151.362 67.11 151.885 66.9088 152.605 66.7641C153.039 66.6698 153.342 66.5503 153.515 66.4056C153.695 66.261 153.785 66.0723 153.785 65.8396C153.785 65.6132 153.682 65.4308 153.475 65.2924C153.275 65.154 153.002 65.0849 152.655 65.0849C152.375 65.0849 152.115 65.132 151.875 65.2264C151.642 65.3144 151.449 65.4433 151.295 65.6132C151.189 65.7138 151.075 65.7641 150.955 65.7641C150.889 65.7641 150.839 65.7515 150.805 65.7264C150.672 65.6572 150.605 65.5628 150.605 65.4433C150.605 65.3805 150.632 65.3176 150.685 65.2547C150.885 65.0031 151.152 64.805 151.485 64.6603C151.825 64.5094 152.212 64.4339 152.645 64.4339Z" fill="#312B1F"/>
<path d="M160.701 64.4811C160.815 64.4811 160.908 64.5157 160.981 64.5849C161.055 64.6477 161.091 64.7327 161.091 64.8396V69.2735C161.091 69.3805 161.055 69.4685 160.981 69.5377C160.908 69.6069 160.815 69.6415 160.701 69.6415C160.588 69.6415 160.495 69.6069 160.421 69.5377C160.355 69.4685 160.321 69.3805 160.321 69.2735V68.9528C160.101 69.1855 159.835 69.3679 159.521 69.5C159.208 69.632 158.868 69.6981 158.501 69.6981C158.028 69.6981 157.601 69.6037 157.221 69.415C156.848 69.2264 156.555 68.9528 156.341 68.5943C156.128 68.2295 156.021 67.7955 156.021 67.2924V64.8396C156.021 64.7389 156.058 64.654 156.131 64.5849C156.205 64.5157 156.295 64.4811 156.401 64.4811C156.515 64.4811 156.608 64.5157 156.681 64.5849C156.755 64.654 156.791 64.7389 156.791 64.8396V67.2924C156.791 67.8522 156.955 68.2798 157.281 68.5754C157.615 68.8647 158.048 69.0094 158.581 69.0094C158.908 69.0094 159.201 68.9496 159.461 68.8301C159.728 68.7106 159.938 68.5471 160.091 68.3396C160.245 68.1257 160.321 67.8899 160.321 67.632V64.8396C160.321 64.7327 160.355 64.6477 160.421 64.5849C160.495 64.5157 160.588 64.4811 160.701 64.4811Z" fill="#312B1F"/>
<path d="M167.469 64.4811C167.582 64.4811 167.676 64.5157 167.749 64.5849C167.822 64.6477 167.859 64.7327 167.859 64.8396V69.2735C167.859 69.3805 167.822 69.4685 167.749 69.5377C167.676 69.6069 167.582 69.6415 167.469 69.6415C167.356 69.6415 167.262 69.6069 167.189 69.5377C167.122 69.4685 167.089 69.3805 167.089 69.2735V68.9528C166.869 69.1855 166.602 69.3679 166.289 69.5C165.976 69.632 165.636 69.6981 165.269 69.6981C164.796 69.6981 164.369 69.6037 163.989 69.415C163.616 69.2264 163.322 68.9528 163.109 68.5943C162.896 68.2295 162.789 67.7955 162.789 67.2924V64.8396C162.789 64.7389 162.826 64.654 162.899 64.5849C162.972 64.5157 163.062 64.4811 163.169 64.4811C163.282 64.4811 163.376 64.5157 163.449 64.5849C163.522 64.654 163.559 64.7389 163.559 64.8396V67.2924C163.559 67.8522 163.722 68.2798 164.049 68.5754C164.382 68.8647 164.816 69.0094 165.349 69.0094C165.676 69.0094 165.969 68.9496 166.229 68.8301C166.496 68.7106 166.706 68.5471 166.859 68.3396C167.012 68.1257 167.089 67.8899 167.089 67.632V64.8396C167.089 64.7327 167.122 64.6477 167.189 64.5849C167.262 64.5157 167.356 64.4811 167.469 64.4811ZM164.019 62.2547C164.126 62.2547 164.212 62.2893 164.279 62.3584C164.346 62.4276 164.379 62.522 164.379 62.6415C164.379 62.8113 164.472 62.9528 164.659 63.066C164.852 63.1729 165.092 63.2264 165.379 63.2264C165.666 63.2264 165.902 63.1729 166.089 63.066C166.282 62.9528 166.379 62.8113 166.379 62.6415C166.379 62.522 166.412 62.4276 166.479 62.3584C166.546 62.2893 166.632 62.2547 166.739 62.2547C166.846 62.2547 166.932 62.2893 166.999 62.3584C167.066 62.4213 167.099 62.5062 167.099 62.6132C167.099 62.8396 167.022 63.044 166.869 63.2264C166.722 63.4088 166.516 63.5534 166.249 63.6603C165.989 63.761 165.699 63.8113 165.379 63.8113C165.059 63.8113 164.766 63.761 164.499 63.6603C164.239 63.5534 164.032 63.4088 163.879 63.2264C163.732 63.044 163.659 62.8396 163.659 62.6132C163.659 62.5062 163.692 62.4213 163.759 62.3584C163.826 62.2893 163.912 62.2547 164.019 62.2547Z" fill="#312B1F"/>
<path d="M177.166 64.4811C177.28 64.4811 177.373 64.5157 177.446 64.5849C177.52 64.6477 177.556 64.7327 177.556 64.8396V69.2735C177.556 69.3805 177.52 69.4685 177.446 69.5377C177.373 69.6069 177.28 69.6415 177.166 69.6415C177.053 69.6415 176.96 69.6069 176.886 69.5377C176.82 69.4685 176.786 69.3805 176.786 69.2735V68.9528C176.566 69.1855 176.3 69.3679 175.986 69.5C175.673 69.632 175.333 69.6981 174.966 69.6981C174.493 69.6981 174.066 69.6037 173.686 69.415C173.313 69.2264 173.02 68.9528 172.806 68.5943C172.593 68.2295 172.486 67.7955 172.486 67.2924V64.8396C172.486 64.7389 172.523 64.654 172.596 64.5849C172.67 64.5157 172.76 64.4811 172.866 64.4811C172.98 64.4811 173.073 64.5157 173.146 64.5849C173.22 64.654 173.256 64.7389 173.256 64.8396V67.2924C173.256 67.8522 173.42 68.2798 173.746 68.5754C174.08 68.8647 174.513 69.0094 175.046 69.0094C175.373 69.0094 175.666 68.9496 175.926 68.8301C176.193 68.7106 176.403 68.5471 176.556 68.3396C176.71 68.1257 176.786 67.8899 176.786 67.632V64.8396C176.786 64.7327 176.82 64.6477 176.886 64.5849C176.96 64.5157 177.053 64.4811 177.166 64.4811Z" fill="#312B1F"/>
<path d="M182.084 68.849C182.084 68.7547 182.13 68.6698 182.224 68.5943C182.29 68.544 182.364 68.5188 182.444 68.5188C182.537 68.5188 182.627 68.5534 182.714 68.6226C183.04 68.893 183.47 69.0283 184.004 69.0283C184.537 69.0283 184.984 68.8679 185.344 68.5471C185.71 68.2264 185.92 67.8144 185.974 67.3113H183.684C183.577 67.3113 183.49 67.2861 183.424 67.2358C183.364 67.1792 183.334 67.1069 183.334 67.0188C183.334 66.9308 183.364 66.8616 183.424 66.8113C183.49 66.7547 183.577 66.7264 183.684 66.7264H185.964C185.89 66.2358 185.687 65.8427 185.354 65.5471C185.02 65.2452 184.604 65.0943 184.104 65.0943C183.81 65.0943 183.544 65.1477 183.304 65.2547C183.064 65.3553 182.844 65.5094 182.644 65.7169C182.55 65.8113 182.454 65.8584 182.354 65.8584C182.287 65.8584 182.224 65.8396 182.164 65.8018C182.05 65.7264 181.994 65.6383 181.994 65.5377C181.994 65.4622 182.02 65.3962 182.074 65.3396C182.594 64.7358 183.27 64.4339 184.104 64.4339C184.604 64.4339 185.054 64.5471 185.454 64.7735C185.854 65 186.167 65.3144 186.394 65.7169C186.62 66.1132 186.734 66.5628 186.734 67.066C186.734 67.5566 186.614 68.0031 186.374 68.4056C186.14 68.8018 185.817 69.1163 185.404 69.349C184.99 69.5754 184.524 69.6886 184.004 69.6886C183.27 69.6886 182.664 69.4779 182.184 69.0566C182.117 69 182.084 68.9308 182.084 68.849Z" fill="#312B1F"/>
<path d="M192.511 69.0849C192.577 69.1603 192.611 69.2358 192.611 69.3113C192.611 69.393 192.571 69.4716 192.491 69.5471C192.411 69.61 192.321 69.6415 192.221 69.6415C192.121 69.6415 192.034 69.6069 191.961 69.5377L189.871 67.3773H189.001V69.283C189.001 69.3899 188.964 69.4779 188.891 69.5471C188.817 69.61 188.724 69.6415 188.611 69.6415C188.497 69.6415 188.407 69.61 188.341 69.5471C188.274 69.4779 188.241 69.3899 188.241 69.283V64.849C188.241 64.7421 188.274 64.654 188.341 64.5849C188.407 64.5157 188.497 64.4811 188.611 64.4811C188.724 64.4811 188.817 64.5157 188.891 64.5849C188.964 64.654 189.001 64.7421 189.001 64.849V66.7169H189.891L191.861 64.5943C191.934 64.5188 192.027 64.4811 192.141 64.4811C192.227 64.4811 192.304 64.5062 192.371 64.5566C192.457 64.6194 192.501 64.7012 192.501 64.8018C192.501 64.8899 192.467 64.9654 192.401 65.0283L190.531 67.0283L192.511 69.0849Z" fill="#312B1F"/>
<path d="M195.698 64.4339C196.531 64.4339 197.208 64.7358 197.728 65.3396C197.781 65.3962 197.808 65.4622 197.808 65.5377C197.808 65.6383 197.751 65.7264 197.638 65.8018C197.578 65.8396 197.514 65.8584 197.448 65.8584C197.348 65.8584 197.251 65.8113 197.158 65.7169C196.958 65.5094 196.738 65.3553 196.498 65.2547C196.258 65.1477 195.991 65.0943 195.698 65.0943C195.331 65.0943 195.004 65.1792 194.718 65.349C194.431 65.5125 194.208 65.7452 194.048 66.0471C193.894 66.349 193.818 66.6886 193.818 67.066C193.818 67.4371 193.901 67.7735 194.068 68.0754C194.234 68.371 194.468 68.6037 194.768 68.7735C195.068 68.9433 195.411 69.0283 195.798 69.0283C196.331 69.0283 196.761 68.893 197.088 68.6226C197.174 68.5534 197.264 68.5188 197.358 68.5188C197.438 68.5188 197.511 68.544 197.578 68.5943C197.671 68.6698 197.718 68.7547 197.718 68.849C197.718 68.9308 197.684 69 197.618 69.0566C197.138 69.4779 196.531 69.6886 195.798 69.6886C195.278 69.6886 194.811 69.5754 194.398 69.349C193.984 69.1163 193.658 68.8018 193.418 68.4056C193.184 68.0031 193.068 67.5566 193.068 67.066C193.068 66.5628 193.181 66.1132 193.408 65.7169C193.634 65.3144 193.948 65 194.348 64.7735C194.748 64.5471 195.198 64.4339 195.698 64.4339Z" fill="#312B1F"/>
<path d="M201.905 64.4245C202.378 64.4245 202.801 64.5188 203.175 64.7075C203.555 64.8962 203.851 65.1729 204.065 65.5377C204.278 65.8962 204.385 66.327 204.385 66.8301V69.283C204.385 69.3836 204.348 69.4685 204.275 69.5377C204.201 69.6069 204.111 69.6415 204.005 69.6415C203.892 69.6415 203.798 69.6069 203.725 69.5377C203.652 69.4685 203.615 69.3836 203.615 69.283V66.8301C203.615 66.2704 203.448 65.8459 203.115 65.5566C202.788 65.261 202.358 65.1132 201.825 65.1132C201.498 65.1132 201.201 65.1729 200.935 65.2924C200.675 65.4119 200.468 65.5786 200.315 65.7924C200.161 66 200.085 66.2327 200.085 66.4905V69.283C200.085 69.3899 200.048 69.4779 199.975 69.5471C199.908 69.61 199.818 69.6415 199.705 69.6415C199.591 69.6415 199.498 69.61 199.425 69.5471C199.352 69.4779 199.315 69.3899 199.315 69.283V64.849C199.315 64.7421 199.352 64.654 199.425 64.5849C199.498 64.5157 199.591 64.4811 199.705 64.4811C199.818 64.4811 199.908 64.5157 199.975 64.5849C200.048 64.654 200.085 64.7421 200.085 64.849V65.1698C200.305 64.9371 200.571 64.7547 200.885 64.6226C201.198 64.4905 201.538 64.4245 201.905 64.4245Z" fill="#312B1F"/>
<path d="M208.412 64.4339C208.906 64.4339 209.342 64.544 209.722 64.7641C210.102 64.9779 210.396 65.2767 210.602 65.6603C210.816 66.044 210.922 66.4811 210.922 66.9716C210.922 67.0723 210.889 67.154 210.822 67.2169C210.756 67.2735 210.669 67.3018 210.562 67.3018H206.522C206.576 67.8176 206.789 68.2358 207.162 68.5566C207.536 68.8773 208.002 69.0377 208.562 69.0377C208.802 69.0377 209.042 69 209.282 68.9245C209.529 68.8427 209.726 68.7421 209.872 68.6226C209.959 68.5597 210.049 68.5283 210.142 68.5283C210.216 68.5283 210.289 68.5534 210.362 68.6037C210.449 68.6792 210.492 68.7641 210.492 68.8584C210.492 68.9402 210.456 69.0125 210.382 69.0754C210.162 69.2515 209.882 69.3993 209.542 69.5188C209.202 69.632 208.876 69.6886 208.562 69.6886C208.029 69.6886 207.552 69.5786 207.132 69.3584C206.712 69.132 206.382 68.8207 206.142 68.4245C205.909 68.022 205.792 67.5691 205.792 67.066C205.792 66.5566 205.902 66.1037 206.122 65.7075C206.349 65.305 206.659 64.9937 207.052 64.7735C207.452 64.5471 207.906 64.4339 208.412 64.4339ZM208.412 65.0849C207.906 65.0849 207.486 65.2327 207.152 65.5283C206.819 65.8238 206.616 66.2138 206.542 66.6981H210.202C210.149 66.2138 209.962 65.8238 209.642 65.5283C209.322 65.2327 208.912 65.0849 208.412 65.0849Z" fill="#312B1F"/>
<path d="M215.005 64.4339C215.525 64.4339 215.995 64.5503 216.415 64.783C216.842 65.0094 217.175 65.3238 217.415 65.7264C217.662 66.1289 217.785 66.5754 217.785 67.066C217.785 67.5566 217.665 68.0031 217.425 68.4056C217.192 68.8018 216.868 69.1163 216.455 69.349C216.048 69.5754 215.592 69.6886 215.085 69.6886C214.652 69.6886 214.255 69.6037 213.895 69.4339C213.535 69.2578 213.238 69.0188 213.005 68.7169V71.4811C213.005 71.588 212.968 71.6761 212.895 71.7452C212.822 71.8144 212.728 71.849 212.615 71.849C212.502 71.849 212.408 71.8144 212.335 71.7452C212.268 71.6761 212.235 71.588 212.235 71.4811V69.3679C212.228 69.349 212.225 69.3207 212.225 69.283V67.066C212.225 66.5754 212.345 66.1289 212.585 65.7264C212.832 65.3238 213.165 65.0094 213.585 64.783C214.012 64.5503 214.485 64.4339 215.005 64.4339ZM215.005 69.0283C215.385 69.0283 215.728 68.9433 216.035 68.7735C216.348 68.6037 216.592 68.371 216.765 68.0754C216.945 67.7735 217.035 67.4371 217.035 67.066C217.035 66.6949 216.945 66.3616 216.765 66.066C216.592 65.7641 216.348 65.5283 216.035 65.3584C215.728 65.1823 215.385 65.0943 215.005 65.0943C214.625 65.0943 214.282 65.1823 213.975 65.3584C213.668 65.5283 213.425 65.7641 213.245 66.066C213.072 66.3616 212.985 66.6949 212.985 67.066C212.985 67.1729 212.988 67.2515 212.995 67.3018C213.002 67.3144 213.005 67.3301 213.005 67.349C213.072 67.8396 213.288 68.2421 213.655 68.5566C214.028 68.871 214.478 69.0283 215.005 69.0283Z" fill="#312B1F"/>
<path d="M225.055 64.4245C225.449 64.4245 225.795 64.5125 226.095 64.6886C226.402 64.8647 226.639 65.1163 226.805 65.4433C226.979 65.7641 227.065 66.1383 227.065 66.566V69.283C227.065 69.3899 227.029 69.4779 226.955 69.5471C226.889 69.61 226.799 69.6415 226.685 69.6415C226.572 69.6415 226.479 69.61 226.405 69.5471C226.332 69.4779 226.295 69.3899 226.295 69.283V66.566C226.295 66.1194 226.172 65.7672 225.925 65.5094C225.685 65.2452 225.369 65.1132 224.975 65.1132C224.555 65.1132 224.215 65.2452 223.955 65.5094C223.695 65.7735 223.569 66.1194 223.575 66.5471V69.283C223.575 69.3899 223.539 69.4779 223.465 69.5471C223.399 69.61 223.309 69.6415 223.195 69.6415C223.082 69.6415 222.989 69.61 222.915 69.5471C222.842 69.4779 222.805 69.3899 222.805 69.283V66.566C222.805 66.1194 222.682 65.7672 222.435 65.5094C222.195 65.2452 221.879 65.1132 221.485 65.1132C221.072 65.1132 220.732 65.2421 220.465 65.5C220.199 65.7578 220.065 66.088 220.065 66.4905V69.283C220.065 69.3899 220.029 69.4779 219.955 69.5471C219.889 69.61 219.799 69.6415 219.685 69.6415C219.572 69.6415 219.479 69.61 219.405 69.5471C219.332 69.4779 219.295 69.3899 219.295 69.283V64.849C219.295 64.7421 219.332 64.654 219.405 64.5849C219.479 64.5157 219.572 64.4811 219.685 64.4811C219.799 64.4811 219.889 64.5157 219.955 64.5849C220.029 64.654 220.065 64.7421 220.065 64.849V65.0566C220.252 64.8553 220.472 64.7012 220.725 64.5943C220.985 64.4811 221.265 64.4245 221.565 64.4245C221.932 64.4245 222.262 64.5031 222.555 64.6603C222.849 64.8176 223.082 65.0377 223.255 65.3207C223.449 65.0377 223.699 64.8176 224.005 64.6603C224.319 64.5031 224.669 64.4245 225.055 64.4245Z" fill="#312B1F"/>
<path d="M233.348 64.4811C233.461 64.4811 233.555 64.5157 233.628 64.5849C233.701 64.6477 233.738 64.7327 233.738 64.8396V69.2735C233.738 69.3805 233.701 69.4685 233.628 69.5377C233.555 69.6069 233.461 69.6415 233.348 69.6415C233.235 69.6415 233.141 69.6069 233.068 69.5377C233.001 69.4685 232.968 69.3805 232.968 69.2735V68.9528C232.748 69.1855 232.481 69.3679 232.168 69.5C231.855 69.632 231.515 69.6981 231.148 69.6981C230.675 69.6981 230.248 69.6037 229.868 69.415C229.495 69.2264 229.201 68.9528 228.988 68.5943C228.775 68.2295 228.668 67.7955 228.668 67.2924V64.8396C228.668 64.7389 228.705 64.654 228.778 64.5849C228.851 64.5157 228.941 64.4811 229.048 64.4811C229.161 64.4811 229.255 64.5157 229.328 64.5849C229.401 64.654 229.438 64.7389 229.438 64.8396V67.2924C229.438 67.8522 229.601 68.2798 229.928 68.5754C230.261 68.8647 230.695 69.0094 231.228 69.0094C231.555 69.0094 231.848 68.9496 232.108 68.8301C232.375 68.7106 232.585 68.5471 232.738 68.3396C232.891 68.1257 232.968 67.8899 232.968 67.632V64.8396C232.968 64.7327 233.001 64.6477 233.068 64.5849C233.141 64.5157 233.235 64.4811 233.348 64.4811Z" fill="#312B1F"/>
<path d="M238.226 66.915C238.566 66.9842 238.839 67.1352 239.046 67.3679C239.259 67.5943 239.366 67.8647 239.366 68.1792C239.366 68.4685 239.272 68.7327 239.086 68.9717C238.906 69.2044 238.656 69.3899 238.336 69.5283C238.016 69.6603 237.659 69.7264 237.266 69.7264C236.839 69.7264 236.432 69.6478 236.046 69.4905C235.659 69.327 235.366 69.1257 235.166 68.8867C235.112 68.8301 235.086 68.761 235.086 68.6792C235.086 68.5534 235.146 68.4591 235.266 68.3962C235.312 68.371 235.369 68.3584 235.436 68.3584C235.576 68.3584 235.692 68.4056 235.786 68.5C235.959 68.6698 236.172 68.8081 236.426 68.915C236.686 69.0157 236.962 69.066 237.256 69.066C237.656 69.066 237.979 68.9874 238.226 68.8301C238.479 68.6666 238.606 68.4433 238.606 68.1603C238.606 67.9088 238.509 67.6981 238.316 67.5283C238.122 67.3584 237.876 67.2672 237.576 67.2547H237.066C236.939 67.2547 236.836 67.2264 236.756 67.1698C236.676 67.1069 236.636 67.0314 236.636 66.9433C236.636 66.8553 236.676 66.783 236.756 66.7264C236.836 66.6698 236.939 66.6415 237.066 66.6415H237.576C237.822 66.6352 238.022 66.5597 238.176 66.415C238.329 66.2641 238.406 66.0754 238.406 65.849C238.406 65.6226 238.299 65.4371 238.086 65.2924C237.872 65.1477 237.592 65.0754 237.246 65.0754C236.646 65.0754 236.196 65.2547 235.896 65.6132C235.809 65.7075 235.702 65.7547 235.576 65.7547C235.509 65.7547 235.439 65.7358 235.366 65.6981C235.266 65.6415 235.216 65.5597 235.216 65.4528C235.216 65.3773 235.246 65.3018 235.306 65.2264C235.526 64.9811 235.802 64.783 236.136 64.632C236.469 64.4811 236.836 64.4056 237.236 64.4056C237.596 64.4056 237.922 64.4685 238.216 64.5943C238.516 64.7138 238.749 64.8805 238.916 65.0943C239.082 65.3018 239.166 65.5345 239.166 65.7924C239.166 66.0503 239.079 66.2798 238.906 66.4811C238.732 66.6823 238.506 66.827 238.226 66.915Z" fill="#312B1F"/>
</svg>
