<svg width="48" height="37" viewBox="0 0 48 37" fill="none" xmlns="http://www.w3.org/2000/svg">
<path d="M12.115 21.6948C13.4441 22.2892 14.4665 23.2303 15.1821 24.5181C16 25.7068 16.4089 27.0442 16.4089 28.5301C16.4089 30.9076 15.5399 32.9384 13.8019 34.6225C12.1661 36.2075 10.1725 37 7.82109 37C5.57189 37 3.68051 36.3066 2.14696 34.9197C0.715655 33.4337 0 31.6011 0 29.4217C0 28.1339 0.204473 26.9451 0.613419 25.8554C1.02236 24.7657 1.73802 23.3293 2.76038 21.5462L14.5687 0H21.9297L12.115 21.6948ZM38.1853 21.6948C39.5144 22.2892 40.5367 23.2303 41.2524 24.5181C42.0703 25.7068 42.4792 27.0442 42.4792 28.5301C42.4792 30.9076 41.6102 32.9384 39.8722 34.6225C38.2364 36.2075 36.2428 37 33.8914 37C31.6422 37 29.7508 36.3066 28.2173 34.9197C26.7859 33.4337 26.0703 31.6011 26.0703 29.4217C26.0703 28.1339 26.2748 26.9451 26.6837 25.8554C27.0927 24.7657 27.8083 23.3293 28.8307 21.5462L40.639 0H48L38.1853 21.6948Z" fill="#60543E"/>
</svg>
